<svg xmlns="http://www.w3.org/2000/svg" xmlns:xlink="http://www.w3.org/1999/xlink" width="251.497" height="198.627" viewBox="0 0 251.497 198.627"><defs><style>.a,.d{fill:#33624b;}.b{fill:#224031;}.c{fill:#448465;}.d,.h{opacity:0.8;}.e{opacity:0.6;}.f{fill:#f4d892;}.g{fill:#efc764;}.h{fill:#f4f8fd;}.af,.i,.y{fill:#f1a498;}.j{fill:url(#a);}.k{fill:#545454;}.l{fill:#d6d8d9;}.m,.z{fill:#5960a3;}.m{opacity:0.2;}.n{fill:#ffc52d;}.o{fill:#3a4774;}.p{fill:#9780da;}.q{fill:#fcd6cb;}.r{fill:#c2baef;}.s{fill:#fff;}.t{fill:#135af7;}.u{fill:#1522ed;}.v{fill:#00d280;}.w{fill:#ff9100;}.x{fill:#ef888b;}.y{opacity:0.7;}.aa{fill:#34406b;}.ab{fill:#283cea;}.ac{fill:#1d274a;}.ad{fill:#34416b;}.ae{fill:#bf7f79;}.ae,.af{opacity:0.5;}.ag{fill:#1b274a;}.ah{fill:#192342;}.ai{fill:#fbcd2a;}.aj{fill:#e2b31e;}.ak{fill:#344975;}</style><linearGradient id="a" x1="0.474" y1="0.859" x2="0.321" y2="0.158" gradientUnits="objectBoundingBox"><stop offset="0" stop-color="#f4f8fd"/><stop offset="1" stop-color="#fff"/></linearGradient></defs><path class="a" d="M1226.937,1032.757c-.016-.038-.041-3.043-.8-4.464,0,0-.142-.336,0-.263a3,3,0,0,1,.864,1.389,3.145,3.145,0,0,0,.632,1.182,14.734,14.734,0,0,1,.3,3.236.686.686,0,0,1-.427,0C1227.478,1033.788,1226.937,1032.757,1226.937,1032.757Z" transform="translate(-1065.092 -893.045)"/><path class="b" d="M1230.65,1036.347c0,.009-.031.018-.072.025l-.773-3.088a8.2,8.2,0,0,0-.595-2.374,3.069,3.069,0,0,1,.513,1.015,3.085,3.085,0,0,0,.633,1.182A14.674,14.674,0,0,1,1230.65,1036.347Z" transform="translate(-1067.82 -895.555)"/><path class="a" d="M1239.911,1015.9s-.209-1.59-.209-2.068a12.486,12.486,0,0,1,0-1.536c.06-.05.091-.051.091.172a34.683,34.683,0,0,0,.846,3.695c.163.315-.081.641.154,1.527s1.032,1.969.456,1.862-1.586-.525-1.423-1.4A11.979,11.979,0,0,0,1239.911,1015.9Z" transform="translate(-1076.911 -879.365)"/><path class="b" d="M1246.726,1023.781a16.263,16.263,0,0,1-.113-2.6,4.19,4.19,0,0,0,.244-1.707,4.337,4.337,0,0,1,.152-1.791,3.26,3.26,0,0,1,.152,1.191c0,.428.131,1.969.173,2.208A27.072,27.072,0,0,1,1246.726,1023.781Z" transform="translate(-1082.905 -884.069)"/><path class="a" d="M1244.944,1012.078a9.367,9.367,0,0,1,.467-2.778,8.2,8.2,0,0,0,.59-2.778c0-.5.234-2.123.234-2.232s.051-.109.122.075,0,2.584,0,3.368a18.845,18.845,0,0,1-.167,2.1c-.057.5-.932,3.437-1.182,3.362s-.559-.473-.468-.574S1244.944,1012.078,1244.944,1012.078Z" transform="translate(-1081.123 -872.366)"/><path class="a" d="M1266.238,1004.791s-.071-.051-.148.046a43.536,43.536,0,0,0-2.569,4.17l.062,1.066.752-1.506Z" transform="translate(-1097.625 -872.854)"/><path class="c" d="M1223.716,1042.023a.529.529,0,0,1-.113-.022l-.159-.039c-.248-.07-.375.12-.449.039-.1-.112-.683-1.3-.9-1.6a3.259,3.259,0,0,1-.366-.957,7.221,7.221,0,0,1-.366-1.251,1.613,1.613,0,0,0-.031-.457c-.025-.206-.055-.411-.085-.616-.008-.051-.033-.131-.018-.156s.025-.016.059,0c.1.055.164.272.208.37a2.384,2.384,0,0,0,.235.5,1.376,1.376,0,0,1,.234.428,3.521,3.521,0,0,0,.274.632c.113.182.54.919.672,1.17.083.152.373.871.582,1.392.008.02.015.038.022.055Z" transform="translate(-1060.884 -900.805)"/><path class="c" d="M1222.664,1012.985l-.676.656-.148-.01-.16-.01-.244-.017a28.112,28.112,0,0,0-.263-3.236,24.035,24.035,0,0,0-1.015-3.808,16.708,16.708,0,0,0-1.145-1.946s-.344-.314-.131-.336.855.794,1.031.947a15.083,15.083,0,0,1,1.069,1.838c.176.351.488.847.557,1.031s.366,1.305.412,1.481a1.434,1.434,0,0,0,.168.525.4.4,0,0,1,.046.374c-.022.13.131.32.16.381s0,.146,0,.328.222.32.184.481a.438.438,0,0,0,.076.374c.068.114-.031.206,0,.382.011.066.025.16.038.253a.8.8,0,0,0,.013.1Z" transform="translate(-1058.786 -872.419)"/><path class="c" d="M1262.355,1009.927a1.115,1.115,0,0,0,.167-.366c.021-.152.051-.122.184-.285a.447.447,0,0,0,.131-.326c0-.071.009-.081.091-.173a.609.609,0,0,0,.122-.306c.01-.071,0,.072.092-.1s.092-.394.184-.437.172-.113.182-.184-.071-.163,0-.223.131-.041.163-.113a1.479,1.479,0,0,0,.071-.274.569.569,0,0,1,.131-.214.375.375,0,0,0,.071-.182c.01-.062.169-.03.172-.131s-.033-.173,0-.225.093-.05.123-.122-.041-.131,0-.2.122-.071.143-.142a.566.566,0,0,1,.092-.225c.06-.081-.021.1.122-.131s.274-.621.394-.672a.228.228,0,0,1-.051.152,4.284,4.284,0,0,0-.353.863c-.108.374-1.313,2.466-1.631,3.391a16.17,16.17,0,0,1-.865,2.1Z" transform="translate(-1096.383 -872.952)"/><path class="a" d="M1259.36,1029.549s-.263-.026-.572.578-1.018,2.114-1.23,2.472-.465,2.176-.8,2.436-.016.3.263.068a8.691,8.691,0,0,0,.97-2.13c.095-.29.456-1.54.823-2.454C1259,1030.039,1259.171,1029.629,1259.36,1029.549Z" transform="translate(-1091.624 -894.373)"/><path class="c" d="M1256.119,1029.824c-.356.357-.855,2.686-1.2,4.04a2.086,2.086,0,0,1-1.251,1.619c-.062.018-.57.112-.57.112h-.006l.064-.025h0c.869-.4,1.527-2.152,1.6-2.294s0-.131,0-.213.1-.062.152-.164a.787.787,0,0,0,.031-.381c-.01-.131.05-.108.1-.179a1.126,1.126,0,0,0,.081-.469c-.01-.112.021-.152.122-.214s.1-.213.1-.376.05-.184.152-.276.437-1.1.58-1.3S1256.475,1029.468,1256.119,1029.824Z" transform="translate(-1088.564 -894.376)"/><path class="c" d="M1245.7,1027.359c-.06.29-.12,2.136-1.313,2.681h0l-.058.025H1243c.012-.016.207-.263.428-.562.072-.1.147-.2.218-.3a4.706,4.706,0,0,0,.368-.6,1.437,1.437,0,0,0,.194-.656c.021-.1.081-.041.152-.173a.99.99,0,0,0,.051-.437c0-.092.152-.234.193-.306a2.6,2.6,0,0,1,.2-.641l.056-.071h0a1.073,1.073,0,0,0,.188-.273,4.141,4.141,0,0,0,.489-1.639c-.037-.6.051-1.253.131-1.221a5.287,5.287,0,0,1,.1,1.19C1245.793,1024.718,1245.765,1027.059,1245.7,1027.359Z" transform="translate(-1079.799 -888.842)"/><path class="d" d="M1241.606,1068.331a3.775,3.775,0,0,1-.8.856l-.16-.01a3.046,3.046,0,0,0,.943-.947C1241.6,1068.26,1241.6,1068.3,1241.606,1068.331Z" transform="translate(-1077.758 -927.976)"/><path class="d" d="M1238.279,1071.83l-.159-.039a3.929,3.929,0,0,1,.05-.5c.008.02.014.038.022.055C1238.2,1071.407,1238.25,1071.677,1238.279,1071.83Z" transform="translate(-1075.56 -930.634)"/><path class="a" d="M1254.117,1066.3a4.181,4.181,0,0,1-.977,1.021,3.337,3.337,0,0,0,1.145-1.247Z" transform="translate(-1088.608 -926.099)"/><g class="e" transform="translate(165.931 133.493)"><path class="b" d="M1265.581,1016.73c0,.043.016.1.015.164,0,.1-.161.071-.172.131a.372.372,0,0,1-.071.182.569.569,0,0,0-.131.214,1.6,1.6,0,0,1-.071.274c-.03.072-.092.051-.163.113s.01.152,0,.223-.092.131-.182.184-.092.263-.184.437-.081.03-.092.1a.611.611,0,0,1-.122.306c-.081.092-.092.1-.092.173a.451.451,0,0,1-.131.326c-.131.163-.163.131-.184.285a1.115,1.115,0,0,1-.167.366l-.043.246c0-.185.05-.666.054-.681S1264.819,1018.061,1265.581,1016.73Z" transform="translate(-1263.79 -1016.73)"/></g><path class="f" d="M1234.023,1074.847v.626a.076.076,0,0,1-.078.078h0a.077.077,0,0,0-.076.066l-.28,1.666a1.661,1.661,0,0,1-1.556,1.385h-.923a1.664,1.664,0,0,1-1.644-1.409l-.253-1.644a.071.071,0,0,0-.026-.047.074.074,0,0,0-.05-.02.076.076,0,0,1-.078-.078v-.626a.285.285,0,0,1,.284-.285h4.4A.285.285,0,0,1,1234.023,1074.847Z" transform="translate(-1067.689 -933.474)"/><path class="g" d="M1250.557,1082.11a.078.078,0,0,0-.076.066l-.28,1.666a1.661,1.661,0,0,1-1.556,1.385,2.65,2.65,0,0,0,.726-2.551c-.139-.5-1.182-.566-1.182-.566Z" transform="translate(-1084.308 -940.033)"/><path class="h" d="M1260.219,1378.5s4.841,8.8-12.4,8.294-16.018-4.444-32.552-3.532-40.825,3.637-32.094-7.878S1256.219,1365.815,1260.219,1378.5Z" transform="translate(-1026.226 -1188.184)"/><path class="i" d="M1284.213,1147.185l-7.866-40.886a.28.28,0,0,0-.549.106l1.576,8.222a.278.278,0,0,0-.253-.164h-31.659l1.551-8.059a.28.28,0,0,0-.549-.105l-7.866,40.886a.28.28,0,0,0,.221.327.4.4,0,0,0,.054,0,.279.279,0,0,0,.273-.226l6.209-32.269h31.774a.278.278,0,0,0,.277-.263l6.26,32.536a.28.28,0,0,0,.274.226.377.377,0,0,0,.052,0,.28.28,0,0,0,.222-.332Z" transform="translate(-1075.97 -960.857)"/><path class="j" d="M303.748,77.045c-17.293-25.583-22.738-17.468-56.175-16.109s-27.819-5.659-60.453-11.571c-8.21-1.488-16.981-.771-23.774,4.5-6.447,5-6.885,13.685-11.617,18.972a13.165,13.165,0,0,1-1.129,1.119,33.755,33.755,0,0,1-5.908,3.667c-6.686,3.764-14.52,10.92-14.968,19.224-.449,8.343,7.164,14.311,10.321,21.334,4.542,10.11-9.453,31.05.068,38.609h0c2.063,1.633,6.008,2.829,8.589,3.313,4.745.889,11.084-4.018,15.72-2.911,4.754,1.136,9.526,3.993,14.013,5.973,9.943,4.387,20.255,10.278,30.69,13.1,10.8,2.919,21.383,2.363,32.5,1.522,7.073-.533,14.246-1.1,20.684-3.819,6.195-2.626,12.727-5.488,19.8-6.177,8.985-.877,18.576,3.98,26.742.629,15.708-6.444,15.362-29.653,13.537-41.865C319.83,109.319,313.753,91.846,303.748,77.045Z" transform="translate(-112.675 -42.292)"/><path class="h" d="M837.169,1301.174s-2.957-4.178,7.572-3.939,9.782,2.111,19.876,1.677,24.927-1.727,19.6,3.743S839.612,1307.195,837.169,1301.174Z" transform="translate(-726.92 -1126.904)"/><path class="k" d="M1339.214,1096.583v.238a.413.413,0,0,1-.412.419H1317.31l4.6-.719Z" transform="translate(-1144.352 -952.551)"/><path class="l" d="M1282.027,1010.946l-5.084-12.042-5.533-.884,6.026,13.646Z" transform="translate(-1104.479 -866.984)"/><path class="k" d="M1284.294,1003.061c.161.341,4.549,10.945,4.549,10.945l-3.573.2-5.12-11.847Z" transform="translate(-1112.072 -870.754)"/><path class="l" d="M1321.843,1096.48l17.3.068-1.322.431a4.5,4.5,0,0,1-1.389.221h-19.2Z" transform="translate(-1144.283 -952.516)"/><path class="k" d="M1362.249,1098.036h6.7l-2.341-.236h-5.4Z" transform="translate(-1182.488 -953.663)"/><path class="k" d="M1412.81,1098.036h.468l-2.313-.236h-.884Z" transform="translate(-1224.942 -953.663)"/><ellipse class="m" cx="11.441" cy="1.723" rx="11.441" ry="1.723" transform="translate(220.911 178.145)"/><path class="n" d="M1713.227,1034.948c1.05,1.636,1.263,3.666,2.1,5.42a8.488,8.488,0,0,0,3.231,3.577,3.5,3.5,0,0,1,.768.525,1.214,1.214,0,0,1,.243.735c.143,1.287.161,2.592.2,3.884.131,4.514.154,9.032.165,13.547v3.4h.567c-.009-2.174-.131-4.36-.181-6.507-.131-5.747-.617-11.569-.386-17.3a8.193,8.193,0,0,0-.758-4.381,9.647,9.647,0,0,0-1.792-2.1,25.573,25.573,0,0,0-5.252-4.24,3.185,3.185,0,0,0,.224,2.084A11.756,11.756,0,0,0,1713.227,1034.948Z" transform="translate(-1487.267 -896.077)"/><path class="o" d="M1768.28,1044.393h.919c.445-6.894,1.619-22.181,3.386-24.832.382,0,4.974-2.569,5.16-3.355a24.5,24.5,0,0,1,.579-3.3,14.365,14.365,0,0,0,.894-3.609c.078-.754,1.119-1.853.855-2.58-.219-.6-1.969.985-2.626,1.64a15.985,15.985,0,0,1-2.733,2.678c-1.039.6-2.4,3.553-2.727,4.754a11.434,11.434,0,0,0,0,3.439s-2.852,12.3-3.282,19.079C1768.544,1040.917,1768.4,1042.917,1768.28,1044.393Z" transform="translate(-1536.112 -874.422)"/><path class="o" d="M1685.728,1091.12c-.017,2.474-.029,4.163-.037,5.32h1.182c.219-4.384-.124-13.46-6.04-18.292,0,0,.865-.112.542-1.568s-2.436-3.131-2.363-3.939c.066-.743-.617-1.392-.948-2.077-.693-1.444-1.838-1.212-2.8-2.3-.263-.29-1.233-1.99-1.721-1.736s-.32,2.527-.282,2.789a3.252,3.252,0,0,0,1.141,2.34c.984.6,1.2,3.335,1.969,3.881s3.607,2.787,4.2,2.843S1685.78,1083.31,1685.728,1091.12Z" transform="translate(-1453.517 -926.475)"/><path class="n" d="M1783.547,1090.059a10.516,10.516,0,0,1-1.838.576,3.543,3.543,0,0,0-1.256.412c-.369.247-.6.621-.945.875a9.063,9.063,0,0,1-1.339.614,3.581,3.581,0,0,0-1.518,1.8c-.32.733-.5,1.518-.752,2.275a1.923,1.923,0,0,1-.32.643,2.276,2.276,0,0,1-.626.456,17.011,17.011,0,0,0-6.491,6.99,22.637,22.637,0,0,0-2.257,7.644,25,25,0,0,0-.175,3.773h1.169a29.582,29.582,0,0,1,.2-6.087,19.712,19.712,0,0,1,1.375-5.016,15.119,15.119,0,0,1,2.071-3.47,13.732,13.732,0,0,1,2.232-2.207,14.423,14.423,0,0,1,1.846-1.225c.45-.253,1.174-.788,1.653-.731a4.573,4.573,0,0,0,1.934.121,3.341,3.341,0,0,0,1.2-.8c1.173-1.05,2.384-2.071,3.448-3.234a11.1,11.1,0,0,0,2.467-3.991.327.327,0,0,0,.024-.15.242.242,0,0,0-.263-.176.732.732,0,0,0-.319.131A10.452,10.452,0,0,1,1783.547,1090.059Z" transform="translate(-1534.147 -946.146)"/><path class="o" d="M1683.524,1180.783c1.725.886,2.682,3.76,3.234,5.341a24.319,24.319,0,0,1,.525,5.566h.544c.012-8.612-4.136-11.314-4.136-11.314-.1-3.138-2.635-3.282-3.856-3.282a11.7,11.7,0,0,1-3.282-.788c-.815-.236-1.222-.24-1.222.143s2.1.958,3.042,1.534c.12.072,3.473,2.323,3.917,2.5A7.041,7.041,0,0,0,1683.524,1180.783Z" transform="translate(-1455.366 -1021.72)"/><path class="p" d="M1783.4,1159.34a13.155,13.155,0,0,1-3.745.9c-1.394,0-4.291.164-4.4,3.745,0,0-4.745,3.091-4.719,12.944h.62a27.974,27.974,0,0,1,.6-6.386c.629-1.8,1.721-5.082,3.689-6.093a8.014,8.014,0,0,0,1.407-.343c.506-.2,4.333-2.773,4.464-2.856,1.082-.656,3.47-1.313,3.47-1.749S1784.331,1159.067,1783.4,1159.34Z" transform="translate(-1538.074 -1006.96)"/><path class="p" d="M1685.516,1129.517c.536-.071,2.889,10.766,2.16,15.23h.582c.038-1.506.108-9.406-2.487-15.413a5.77,5.77,0,0,1-.06-1,3.353,3.353,0,0,0-.928-2.338,9.4,9.4,0,0,0-3.126-1.838c-1.182-.332-2.445-.314-3.609-.727-1.129-.394-2.587-1.786-2.7-1.166,0,0,1.969,3.752,2.879,4.081a14.145,14.145,0,0,1,3.607,1.895A8.115,8.115,0,0,0,1685.516,1129.517Z" transform="translate(-1455.383 -974.778)"/><path class="p" d="M1780.06,1065.792a.378.378,0,0,0-.034-.031c-2.03,1.683-4.954,1.716-7.305,2.912a16.083,16.083,0,0,0-3.163,2.332,4.325,4.325,0,0,0-1.117,1.268,3.378,3.378,0,0,0-.042,2.426,2.313,2.313,0,0,1,.131.6,2.111,2.111,0,0,1-.07.487,96.588,96.588,0,0,0-2.3,15.047c-.112,1.654-.18,3.314-.164,4.972h.938a57.886,57.886,0,0,1,.723-14.156c.286-1.944.656-3.876,1.014-5.808a.775.775,0,0,1,.1-.3c.172-.263.584-.224.854-.285a5.329,5.329,0,0,0,1.274-.546,19.912,19.912,0,0,0,9.048-8.26C1780.08,1066.248,1780.208,1065.957,1780.06,1065.792Z" transform="translate(-1534.125 -925.83)"/><path class="q" d="M1736.921,1287.34h-11.15s-.317,9.161,3.185,11.257a.789.789,0,0,0,.406.112h3.968a.787.787,0,0,0,.4-.112C1737.236,1296.5,1736.921,1287.34,1736.921,1287.34Z" transform="translate(-1499.177 -1118.317)"/><path class="i" d="M1771.886,1298.6a.789.789,0,0,1-.406.112h-1.8a.788.788,0,0,0,.406-.112c3.5-2.1,3.185-11.257,3.185-11.257h1.8S1775.386,1296.5,1771.886,1298.6Z" transform="translate(-1537.328 -1118.317)"/><path class="p" d="M1675.61,1177.26a16.673,16.673,0,0,1,2.3.548c.375.121.746.263,1.117.394s.74.263,1.108.414a11.745,11.745,0,0,1,1.084.477c.178.087.351.184.525.278a5.418,5.418,0,0,1,.5.316,5.651,5.651,0,0,1,.919.759,2.977,2.977,0,0,1,.647.991h-.01a3.262,3.262,0,0,0-.7-.936,6.732,6.732,0,0,0-.919-.726,14.21,14.21,0,0,0-2.073-1.109c-.359-.16-.724-.308-1.1-.433s-.752-.234-1.13-.341c-.756-.217-1.514-.427-2.278-.624Z" transform="translate(-1455.609 -1022.69)"/><path class="r" d="M1677.6,1123.141a2.48,2.48,0,0,0,.344.7c.039.052.075.108.116.159l.131.15c.091.093.18.188.28.272a3.866,3.866,0,0,0,.3.241l.165.1a1.673,1.673,0,0,0,.169.1c.117.058.229.123.351.169l.18.076c.06.025.123.042.185.063.246.088.5.154.755.226l.762.211c.508.142,1.013.291,1.51.471a9.261,9.261,0,0,1,1.444.666c.222.143.456.272.664.436.108.077.215.156.319.238l.3.262a8.546,8.546,0,0,1,1.92,2.505h-.01l-.427-.663-.471-.631-.263-.3a3.667,3.667,0,0,0-.263-.292l-.277-.278a1.45,1.45,0,0,0-.139-.131l-.148-.131-.3-.262-.314-.235a7.453,7.453,0,0,0-.656-.44,10.97,10.97,0,0,0-1.409-.7,12.153,12.153,0,0,0-1.5-.491c-.508-.139-1.025-.234-1.535-.394a3.62,3.62,0,0,1-1.383-.773,2.812,2.812,0,0,1-.512-.61,2.259,2.259,0,0,1-.309-.73Z" transform="translate(-1457.329 -975.667)"/><path class="p" d="M1680.588,1076.341a6.615,6.615,0,0,0-.368-1.182,11.7,11.7,0,0,0-.566-1.182,10.8,10.8,0,0,0-.695-1.116,7,7,0,0,0-.846-1.01,4.564,4.564,0,0,0-.5-.431,3.857,3.857,0,0,1-.525-.394,3.106,3.106,0,0,1-.672-1.1,9.606,9.606,0,0,1-.568-2.539h-.01a7.657,7.657,0,0,0,.131,1.313,6.067,6.067,0,0,0,.366,1.266,3.351,3.351,0,0,0,.731,1.091,5.511,5.511,0,0,0,.525.394,2.592,2.592,0,0,1,.248.211c.083.07.155.154.231.231a11.19,11.19,0,0,1,1.484,2.137c.207.383.41.769.586,1.167a7.941,7.941,0,0,1,.428,1.145Z" transform="translate(-1455.809 -927.246)"/><path class="o" d="M1712.39,1033.085a1.15,1.15,0,0,0,.113.2c.043.064.087.131.131.19l.262.377c.183.25.37.494.559.739q.567.731,1.182,1.426c.2.231.412.458.633.675.109.108.223.211.339.313s.244.192.353.3a9.358,9.358,0,0,1,1.127,1.474,17.827,17.827,0,0,1,.919,1.612c.277.552.548,1.112.788,1.686a16.826,16.826,0,0,1,.616,1.758,6.58,6.58,0,0,1,.3,1.83h-.01a4.873,4.873,0,0,0-.131-.919c-.066-.3-.152-.6-.241-.892-.185-.588-.406-1.165-.642-1.734a26.342,26.342,0,0,0-1.652-3.309c-.159-.263-.326-.525-.507-.775a5.176,5.176,0,0,0-.595-.705,4.246,4.246,0,0,0-.354-.3c-.121-.1-.239-.2-.353-.3-.229-.209-.448-.429-.656-.656-.419-.456-.806-.941-1.182-1.436-.187-.247-.364-.5-.538-.756-.088-.131-.172-.263-.255-.394-.041-.066-.082-.131-.121-.2-.02-.033-.04-.067-.058-.1a.439.439,0,0,1-.046-.11Z" transform="translate(-1487.543 -897.441)"/><path class="r" d="M1797.646,1066.314a2.685,2.685,0,0,1-.277.394c-.1.121-.21.239-.324.349a7.63,7.63,0,0,1-.721.625,12.712,12.712,0,0,1-1.6,1.036c-.559.3-1.133.57-1.707.825-.29.131-.574.263-.86.4-.142.068-.28.147-.419.222s-.28.147-.414.232c-.263.165-.541.326-.8.508-.131.089-.263.173-.394.263l-.38.284c-.131.091-.245.2-.369.3s-.245.2-.36.307l-.349.317-.343.331a10.979,10.979,0,0,0-1.2,1.456,6.7,6.7,0,0,0-.855,1.681h-.01a6.107,6.107,0,0,1,.788-1.725,9.828,9.828,0,0,1,1.189-1.488,12.922,12.922,0,0,1,3.034-2.286c.131-.081.281-.147.42-.222s.281-.147.424-.215l.861-.4.431-.2c.143-.068.281-.144.423-.217.282-.14.555-.3.832-.453a16.36,16.36,0,0,0,1.59-1.024,8.915,8.915,0,0,0,.731-.6,4.2,4.2,0,0,0,.631-.7Z" transform="translate(-1551.74 -926.308)"/><path class="p" d="M1812.159,1007.146q-1.2,1.361-2.321,2.793c-.375.474-.751.949-1.1,1.444s-.68,1-.991,1.523-.6,1.05-.874,1.589-.516,1.092-.738,1.653a11.98,11.98,0,0,0-.525,1.728,8.263,8.263,0,0,0-.131.823l-.061.046a6.939,6.939,0,0,1,.114-.886,10.05,10.05,0,0,1,.5-1.752,18.011,18.011,0,0,1,1.667-3.232c.324-.512.667-1.012,1.01-1.513s.692-1,1.058-1.478.752-.951,1.149-1.411.8-.907,1.235-1.333Z" transform="translate(-1568.375 -874.906)"/><path class="o" d="M1852.909,1089.711a.012.012,0,0,1,.009.005.012.012,0,0,1,0,.01v.012a.132.132,0,0,1-.013.022.4.4,0,0,1-.029.038c-.02.025-.041.049-.062.072a1.569,1.569,0,0,1-.131.131c-.089.089-.181.177-.274.262-.187.171-.374.34-.569.5-.394.326-.788.642-1.2.933a8.137,8.137,0,0,1-1.313.77c-.119.047-.239.083-.352.131a3.257,3.257,0,0,0-.333.177c-.221.123-.431.263-.641.4a23.636,23.636,0,0,0-2.375,1.868c-.187.168-.37.341-.549.525s-.353.357-.517.547a5.756,5.756,0,0,0-.463.594,2.375,2.375,0,0,0-.328.673h-.01a2.257,2.257,0,0,1,.293-.7,5.12,5.12,0,0,1,.444-.62,10.51,10.51,0,0,1,1.05-1.1c.374-.343.767-.664,1.171-.969s.818-.6,1.247-.865q.321-.2.656-.394c.112-.062.224-.118.339-.173s.236-.1.352-.143a4.194,4.194,0,0,0,.656-.372c.21-.131.415-.286.617-.436.4-.3.8-.607,1.2-.919.2-.159.394-.316.584-.48l.286-.248c.047-.042.094-.084.139-.131l.067-.067.03-.036c.009-.009.021-.031.017-.03Z" transform="translate(-1601.682 -946.635)"/><path class="r" d="M1818.622,1159.738c-.809.313-1.62.611-2.434.906-.407.146-.817.285-1.217.45-.2.079-.394.169-.6.263l-.595.263a22.117,22.117,0,0,0-2.317,1.153c-.185.109-.364.23-.54.352a4.949,4.949,0,0,0-.507.394,3.245,3.245,0,0,0-.8,1h-.01a3.008,3.008,0,0,1,.748-1.062,6.091,6.091,0,0,1,1.05-.788,11.207,11.207,0,0,1,1.154-.605c.394-.182.788-.348,1.2-.505s.8-.324,1.2-.5.8-.34,1.2-.5q1.213-.466,2.462-.832Z" transform="translate(-1572.016 -1007.462)"/><rect class="s" width="105.343" height="67.415" rx="33.708" transform="translate(63.958 32.349)"/><rect class="t" width="10.044" height="1.096" rx="0.548" transform="translate(96.219 71.571)"/><rect class="t" width="1.843" height="16.992" transform="translate(76.458 71.844)"/><rect class="t" width="1.843" height="16.172" transform="translate(79.69 72.666)"/><rect class="t" width="1.843" height="7.213" transform="translate(82.923 81.623)"/><rect class="t" width="1.843" height="13.346" transform="translate(86.156 75.491)"/><rect class="t" width="0.381" height="19.072" transform="translate(73.552 69.956)"/><rect class="t" width="0.381" height="17.918" transform="translate(73.552 89.028) rotate(-90)"/><path class="u" d="M692.633,668.741l-2.063-1.191v2.382Z" transform="translate(-599.901 -579.903)"/><path class="u" d="M553.771,519.96l-1.191,2.063h2.382Z" transform="translate(-480.028 -451.691)"/><rect class="t" width="35.08" height="2.206" rx="1.103" transform="translate(124.339 80.565)"/><rect class="t" width="25.549" height="2.206" rx="1.103" transform="translate(124.339 85.484)"/><rect class="t" width="22.626" height="1.343" rx="0.672" transform="translate(130.956 61.703)"/><rect class="t" width="21.845" height="1.343" rx="0.672" transform="translate(130.956 64.696)"/><rect class="t" width="28.562" height="1.343" rx="0.672" transform="translate(130.956 67.691)"/><rect class="t" width="16.425" height="1.343" rx="0.672" transform="translate(130.956 70.686)"/><path class="t" d="M1051.275,335.311a7.4,7.4,0,1,1-7.4-7.4v7.4Z" transform="translate(-900.386 -284.857)"/><path class="u" d="M1107.8,327a7.434,7.434,0,0,0-7.437-7.435m0,0V327h7.435" transform="translate(-955.887 -277.603)"/><rect class="t" width="45.51" height="21.605" rx="8.55" transform="translate(71.436 40.652)"/><rect class="s" width="27.935" height="1.096" rx="0.548" transform="translate(86.687 44.672)"/><rect class="s" width="18.019" height="1.096" rx="0.548" transform="translate(86.687 47.117)"/><rect class="s" width="23.56" height="1.096" rx="0.548" transform="translate(86.687 49.563)"/><rect class="s" width="7.296" height="1.096" rx="0.548" transform="translate(86.687 52.008)"/><rect class="s" width="39.637" height="1.096" rx="0.548" transform="translate(74.984 55.897)"/><rect class="s" width="38.395" height="1.096" rx="0.548" transform="translate(74.984 58.341)"/><circle class="u" cx="3.938" cy="3.938" r="3.938" transform="translate(74.984 44.672)"/><path class="r" d="M580.446,184.1a2.155,2.155,0,1,1,2.153-2.154A2.155,2.155,0,0,1,580.446,184.1Zm0-3.968a1.815,1.815,0,1,0,1.813,1.814A1.814,1.814,0,0,0,580.446,180.131Z" transform="translate(-502.363 -156.184)"/><path class="r" d="M313.6,59.99a.171.171,0,0,1-.171-.171V41.831H271.281a.171.171,0,1,1,0-.341H313.6a.172.172,0,0,1,.171.171V59.819A.171.171,0,0,1,313.6,59.99Z" transform="translate(-235.514 -36.043)"/><path class="r" d="M1207.275,185.1a2.155,2.155,0,1,1,2.155-2.155A2.155,2.155,0,0,1,1207.275,185.1Zm0-3.968a1.815,1.815,0,1,0,1.814,1.813A1.814,1.814,0,0,0,1207.275,181.131Z" transform="translate(-1046.892 -157.053)"/><path class="r" d="M1220.409,102.87a.171.171,0,0,1-.169-.171V90.871a.171.171,0,0,1,.169-.171h32.229a.171.171,0,0,1,0,.341H1220.58V102.7A.171.171,0,0,1,1220.409,102.87Z" transform="translate(-1060.027 -78.791)"/><path class="r" d="M1333.886,483.269a2.155,2.155,0,1,1,2.153-2.154A2.155,2.155,0,0,1,1333.886,483.269Zm0-3.968a1.813,1.813,0,1,0,1.818,1.813A1.813,1.813,0,0,0,1333.886,479.3Z" transform="translate(-1156.879 -416.074)"/><path class="r" d="M1398.666,494.411h-36.456a.171.171,0,0,1,0-.341h36.456a.171.171,0,1,1,0,.341Z" transform="translate(-1183.21 -429.201)"/><path class="t" d="M1504.749,54.888h-16.217a1.012,1.012,0,0,1-1.012-1.012V42.691a1.012,1.012,0,0,1,1.012-1.011h16.217a1.012,1.012,0,0,1,1.012,1.011V53.876a1.012,1.012,0,0,1-1.012,1.012" transform="translate(-1292.214 -36.208)"/><path class="v" d="M1572.726,57.937a1.888,1.888,0,1,1-1.888-1.887,1.888,1.888,0,0,1,1.888,1.887" transform="translate(-1362.953 -48.691)"/><path class="s" d="M1589.5,57.937a1.887,1.887,0,1,1-1.887-1.887,1.887,1.887,0,0,1,1.887,1.887" transform="translate(-1377.53 -48.691)"/><path class="s" d="M1500.246,58.44h-2.831a.315.315,0,1,0,0,.63h2.831a.315.315,0,0,0,0-.63" transform="translate(-1300.536 -50.767)"/><path class="s" d="M1504.469,69.74h-6.919a.315.315,0,0,0,0,.629h6.919a.315.315,0,0,0,0-.629Z" transform="translate(-1300.671 -60.583)"/><path class="s" d="M1531.7,58.755a.315.315,0,0,0-.314-.315h-2.831a.315.315,0,0,0,0,.63h2.831a.315.315,0,0,0,.314-.315" transform="translate(-1327.588 -50.767)"/><rect class="v" width="2.831" height="1.887" transform="translate(196.878 14.592)"/><rect class="v" width="2.831" height="1.887" transform="translate(200.967 14.592)"/><rect class="v" width="2.831" height="1.887" transform="translate(205.056 14.592)"/><rect class="v" width="2.831" height="1.887" transform="translate(209.144 14.592)"/><path class="t" d="M1638.448,399.751a5.3,5.3,0,0,0,.192,1.208l-.73.566a.592.592,0,0,0-.146.773l.722,1.195a.592.592,0,0,0,.754.232l.834-.381a5.2,5.2,0,0,0,1.019.763l-.117.919a.593.593,0,0,0,.445.65l1.356.335a.594.594,0,0,0,.7-.369l.314-.84a5.265,5.265,0,0,0,1.342-.193l.542.7a.6.6,0,0,0,.775.144l1.195-.722a.59.59,0,0,0,.231-.752l-.36-.8a5.106,5.106,0,0,0,.8-1.075l.833.106a.593.593,0,0,0,.65-.445l.333-1.356a.591.591,0,0,0-.368-.7l-.775-.29a5.186,5.186,0,0,0-.189-1.3l.643-.5a.592.592,0,0,0,.146-.773l-.721-1.192a.591.591,0,0,0-.752-.232l-.721.33a5.208,5.208,0,0,0-1.117-.831l.1-.8a.593.593,0,0,0-.445-.65l-1.356-.335a.594.594,0,0,0-.7.369l-.283.756a5.147,5.147,0,0,0-1.412.226l-.5-.65a.6.6,0,0,0-.775-.144l-1.195.722a.59.59,0,0,0-.231.752l.358.788a5.072,5.072,0,0,0-.767,1.081l-.86-.11a.592.592,0,0,0-.656.444l-.335,1.356a.592.592,0,0,0,.369.7Zm5.815-2.458a2.309,2.309,0,1,1-2.8,1.69A2.309,2.309,0,0,1,1644.263,397.293Z" transform="translate(-1422.242 -341.507)"/><path class="u" d="M1728.922,464.171l-.567-.78a.58.58,0,0,0-.759-.165l-.487.272a4.248,4.248,0,0,0-.97-.6l.024-.572a.59.59,0,0,0-.492-.6l-.953-.151a.586.586,0,0,0-.656.419l-.155.55a4.232,4.232,0,0,0-1.137.281l-.394-.429a.584.584,0,0,0-.775-.077l-.788.571a.583.583,0,0,0-.167.759l.306.542a4.332,4.332,0,0,0-.554.935l-.62-.026a.59.59,0,0,0-.6.492l-.151.953a.587.587,0,0,0,.42.656l.633.177a4.322,4.322,0,0,0,.239.976l-.49.45a.584.584,0,0,0-.078.773l.567.781a.583.583,0,0,0,.759.165l.576-.323a4.267,4.267,0,0,0,.884.55l-.029.672a.59.59,0,0,0,.492.6l.953.151a.587.587,0,0,0,.656-.419l.175-.622a4.332,4.332,0,0,0,1.08-.249l.432.467a.584.584,0,0,0,.773.079l.781-.567a.582.582,0,0,0,.165-.759l-.307-.544a4.2,4.2,0,0,0,.578-.932l.6.024a.59.59,0,0,0,.6-.492l.151-.953a.587.587,0,0,0-.42-.656l-.566-.159a4.19,4.19,0,0,0-.243-1.05l.427-.394A.586.586,0,0,0,1728.922,464.171Zm-4.858,4.531a2.282,2.282,0,1,1,.007,0Z" transform="translate(-1493.315 -400.962)"/><path class="w" d="M1650.219,502.349a.586.586,0,0,0-.647.433l-.148.574a.583.583,0,0,0,.354.692l.41.159a3.285,3.285,0,0,0,.12.807l-.356.269a.583.583,0,0,0-.152.763l.3.511a.584.584,0,0,0,.742.238l.4-.177a3.46,3.46,0,0,0,.672.516l-.062.446a.586.586,0,0,0,.433.647l.574.148a.583.583,0,0,0,.692-.354l.154-.394a3.5,3.5,0,0,0,.9-.122l.255.336a.583.583,0,0,0,.763.151l.511-.3a.583.583,0,0,0,.238-.741l-.165-.377a3.343,3.343,0,0,0,.542-.709l.386.054a.585.585,0,0,0,.647-.433l.148-.574a.583.583,0,0,0-.354-.692l-.356-.138a3.537,3.537,0,0,0-.115-.873l.3-.224a.583.583,0,0,0,.151-.763l-.3-.511a.583.583,0,0,0-.74-.238l-.327.143a3.46,3.46,0,0,0-.739-.563l.051-.365a.583.583,0,0,0-.433-.647l-.572-.148a.584.584,0,0,0-.693.354l-.131.344a3.521,3.521,0,0,0-.943.138l-.227-.3a.583.583,0,0,0-.762-.151l-.513.3a.584.584,0,0,0-.239.742l.165.373a3.411,3.411,0,0,0-.525.716Zm3.871.263a1.54,1.54,0,1,1-1.877,1.1,1.54,1.54,0,0,1,1.877-1.1Z" transform="translate(-1432.844 -434.242)"/><path class="t" d="M73.192,28.47H84.23a1.2,1.2,0,0,1,1.192,1.192v6.859a1.2,1.2,0,0,1-1.192,1.191H76.622L74.9,39.449a.37.37,0,0,1-.263.118.381.381,0,0,1-.383-.383V37.712H73.192A1.2,1.2,0,0,1,72,36.521V29.662A1.2,1.2,0,0,1,73.192,28.47Z" transform="translate(-62.547 -24.732)"/><path class="w" d="M134.212,0h-14.75a1.6,1.6,0,0,0-1.593,1.594v9.172a1.6,1.6,0,0,0,1.593,1.59h10.173l2.3,2.321a.494.494,0,0,0,.355.158.507.507,0,0,0,.511-.512V12.354h1.417a1.6,1.6,0,0,0,1.589-1.587V1.594A1.6,1.6,0,0,0,134.212,0Z" transform="translate(-102.394)"/><circle class="s" cx="0.97" cy="0.97" r="0.97" transform="translate(18.396 4.857)"/><circle class="s" cx="0.97" cy="0.97" r="0.97" transform="translate(23.47 4.857)"/><circle class="s" cx="0.97" cy="0.97" r="0.97" transform="translate(28.545 4.857)"/><path class="h" d="M.72,1314.559s-5.563-7.861,14.25-7.412,18.406,3.972,37.4,3.151,46.9-3.25,36.873,7.044S5.317,1325.887.72,1314.559Z" transform="translate(0 -1135.508)"/><path class="i" d="M336.209,1053.581a.292.292,0,0,0-.335-.227.286.286,0,0,0-.227.335l1.5,7.819H306.374a.282.282,0,0,0-.218.1l1.524-7.92a.286.286,0,1,0-.562-.108l-7.651,39.759a.288.288,0,0,0,.227.335.265.265,0,0,0,.054,0,.286.286,0,0,0,.281-.232l6.068-31.562a.286.286,0,0,0,.27.2h30.894l6.04,31.369a.284.284,0,0,0,.28.232.26.26,0,0,0,.055,0,.286.286,0,0,0,.226-.335Z" transform="translate(-260.144 -915.043)"/><path class="q" d="M178.74,742.8a25.23,25.23,0,0,0,.986-4.931,4.837,4.837,0,0,1,1.849-3.1,6.793,6.793,0,0,1,5.623-1.523c1.228.2,2.942.595,3.708,1.641.979,1.337,1.913,3.179,1.371,4.867a6.391,6.391,0,0,1-.7,1.753c-.042.059-.112.11-.148.165-.3.453.039,1.338.08,1.838.025.314.18,1.358-.263,1.485-.628.18-.358-.314-.628.18-.227.416-.436.844-.7,1.242s-.676.656-.825,1.108c-.179.554-.021,2.512-1.035,2.363-1.166-.18-2.824-2.6-4.213-1.707s-1.569,1.524-1.569,1.524Z" transform="translate(-155.272 -636.884)"/><path class="k" d="M306.28,1043.2v.28a.484.484,0,0,0,.484.484h25.209l-5.4-.844Z" transform="translate(-266.067 -906.162)"/><path class="l" d="M460.93,942.828l5.961-14.122,6.487-1.036-7.066,16Z" transform="translate(-400.412 -805.87)"/><path class="k" d="M473.185,933.562c-.188.394-5.335,12.836-5.335,12.836l4.191.236,6-13.894Z" transform="translate(-406.423 -810.275)"/><path class="l" d="M326.569,1043.12l-20.289.08,1.552.505a5.273,5.273,0,0,0,1.628.263h22.517Z" transform="translate(-266.067 -906.162)"/><path class="k" d="M389.159,1044.947H381.3l2.745-.277h6.332Z" transform="translate(-331.237 -907.509)"/><path class="k" d="M365.119,1044.947h-.549l2.714-.277h1.036Z" transform="translate(-316.703 -907.509)"/><path class="x" d="M279.468,1049.55h20.98c-.1,1.874-2.915,1.561-2.915,1.561h-49.5s-2.811.313-2.915-1.561Z" transform="translate(-212.937 -911.748)"/><path class="i" d="M47.582,1113.79s-.177,2.043.76,2.27,4.476-.637,4.346-2.27-.091-3.151-1.435-3.331-3.684,2.822-3.684,2.822" transform="translate(-41.323 -964.653)"/><path class="x" d="M146.066,1164.852v-.022s-.071,0-.2.009a.684.684,0,0,1-.2-.009v.022c-2.508.2-16.026,2.174-15.849,21.04h1.092c.471-.717.185-18.8,14.956-19.512,14.772.717,14.485,18.795,14.957,19.512h1.091C162.094,1167.027,148.576,1165.056,146.066,1164.852Z" transform="translate(-112.772 -1011.892)"/><path class="i" d="M55.567,1205.622v-.022s-.07,0-.2.009a.664.664,0,0,1-.2-.009v.022c-2.509.2-16.025,2.174-15.85,21.038h1.092c.471-.717.185-18.8,14.956-19.512,14.772.717,14.486,18.8,14.957,19.512h1.092C71.594,1207.8,58.076,1205.826,55.567,1205.622Z" transform="translate(-34.155 -1047.309)"/><path class="x" d="M32.395,1176s-1.268,2.407.973,3.047,28.1,2.076,29.556,1.807,3.126-2.945,3.126-2.957-33.13-1.9-33.13-1.9Z" transform="translate(-27.831 -1021.596)"/><path class="i" d="M0,851.257q.7,16.752,1.426,33.5a2.015,2.015,0,0,0,2.495,1.871c3.376-.827,6.7-2.067,8.7-4.813,2.363-3.239,2.178-7.635,1.619-11.6a59.967,59.967,0,0,0-4.6-16.646c-.863-1.884-1.948-3.808-3.76-4.815-2.27-1.256-4.257-.209-5.886,1.423" transform="translate(0 -736.834)"/><path class="i" d="M69.394,1107.366s-28.005-2.336-33.4-1.892,6.764-9.059,12.6-10.4,27.332-1.776,26.182.592S73.366,1106.325,69.394,1107.366Z" transform="translate(-30.097 -950.345)"/><path class="q" d="M319.114,1001.44l7.048,1.058c1.263.19,3.863,2.346,4.415,2.736s-1.012,1.313-1.944.729-1-1.067-2.728-.851-3.477.973-4.757.441-2.488-1.087-2.488-1.087l.394-2.626" transform="translate(-276.821 -869.955)"/><path class="q" d="M319.693,1018.33h7.128c1.278,0,4.169,1.748,4.774,2.051s-.807,1.444-1.816,1.01-1.142-.909-2.824-.437-3.294,1.479-4.639,1.142-2.626-.705-2.626-.705v-2.656" transform="translate(-277.716 -884.627)"/><path class="y" d="M328.071,1010.265a6.793,6.793,0,0,0-2.4-.8H318.66l.142-.945.059-.394,7.048,1.058A6.411,6.411,0,0,1,328.071,1010.265Z" transform="translate(-276.821 -875.767)"/><path class="q" d="M333,1295.987v2.289a24.792,24.792,0,0,0,3.414,1.813c.263.043.479-2.216.479-2.216l.383-2.663Z" transform="translate(-289.278 -1125.154)"/><path class="z" d="M324.766,1315.49a10.589,10.589,0,0,0-1.121,5.268c.26,2.677,1.64,1.9,3.02,2.072s1.209-.517,1.209-.517c.03.122.725.322.827.361a12.716,12.716,0,0,0,2.224.634,11.819,11.819,0,0,0,2.919.167,6.73,6.73,0,0,0,2.772-.487,1.472,1.472,0,0,0-.1-2.6c-1.987-1.209-4.946-.748-5.932-2.3a27.471,27.471,0,0,0-1.85-2.59S325.716,1316.009,324.766,1315.49Z" transform="translate(-281.123 -1142.771)"/><path class="q" d="M277.06,1326.057v2.375a26.259,26.259,0,0,0,3.545,1.883c.273.045.5-2.3.5-2.3l.394-2.765Z" transform="translate(-240.683 -1151.25)"/><path class="aa" d="M120.71,1075.891c0,3.138-1.023,15.052-1.2,15.321a4.81,4.81,0,0,1-1.878.121,14.313,14.313,0,0,1-2.785-.3c-.158-.051-.252-.505-.306-1.191-.008-.1-.014-.2-.02-.314-.142-2.592.175-7.666.079-8.181-.016-.079-.039-.052-.076.1-.357,1.523-1.291,11.912-1.829,13.078a1.2,1.2,0,0,1-.777.607,11.477,11.477,0,0,1-3.794.021c-1.255-.089-1.021-1.025-.932-2.279.008-.106.021-.248.035-.42.16-1.838.671-7.173-.014-10.241-.012-.05-.022-.1-.033-.144-.8-3.315-.185-8.694,0-9.813s-4.215-1.213-7.284-.407-15.756.36-16.826-.9c-.592-.695-.832-2.958-.93-4.838-.077-1.515-.064-3.414-.064-3.414s0,.635.54.366,14.523-4.213,17.841-4.662,11.654,1.256,14.881,1.795,4.482,2.061,4.752,3.676S120.71,1072.754,120.71,1075.891Z" transform="translate(-71.298 -919.378)"/><path class="t" d="M178.945,729.591s-.478-4.237,0-5.383a8.812,8.812,0,0,1,1.3-2.495c.886-1.284,1.774-2.958,4.435-3.02s2.728.6,3.751.6,4.639,1.182,5.184,2.6.339,3.566-.548,4.036-2.929-1.325-4.02-1.863-.821.2-.752.807a2.858,2.858,0,0,1-.886,2.152c-.478.2-1.169-.068-1.1.6s-.882,2.824-.882,3.632.826,2.563,1.432,2.224,1.838-1.465,2.728-1.344a3.82,3.82,0,0,1,1.144.263s-.131,1.53-.906,1.576c0,0-1.556-.656-1.969-.071a3.053,3.053,0,0,0,1.364.717c.681.089.319,4.976-2.638,3.414s-4.412-4.124-3.456-5.738,1.313-1.576,1.591-2.331.727-2.466.046-2.913-1.774-.941-2.363.4-1.229,3.183-2.5,2.689S178.945,729.591,178.945,729.591Z" transform="translate(-155.265 -624.328)"/><path class="z" d="M123.456,940.509c-.394-.809-.642-1.333-.656-1.369A2.1,2.1,0,0,1,123.456,940.509Z" transform="translate(-106.677 -815.835)"/><path class="u" d="M113.436,847c-.578-.185-3.722-1.2-4.976-1.809-1.385-.672-3.918-1.523-4.989-2.936s-1.749-.575-2.219-2.232-2.185-7.135-2.48-7.763l-.008-.017a12.327,12.327,0,0,0-1.221-1.5c-.293-.328-.587-.647-.818-.9-1.279-2.247-5.09-6.842-5.981-6.351a14.413,14.413,0,0,0-7.6,9.816c-1.344,6.993-3.939,25.624-2.332,26.3a33.255,33.255,0,0,0,3.735.9c5.252,1.081,13.97,1.85,14.465,1.652.672-.263,1.008-7.732,1.075-8.74v-.4c2.141.108,11.825.587,12.222.428.337-.131.012-2.9-.244-4.443a7.575,7.575,0,0,0-.2-.982C111.914,847.8,112.661,846.8,113.436,847Z" transform="translate(-69.761 -715.345)"/><path class="s" d="M161.95,803.25a26,26,0,0,0-2.219,2.69c.2,0,5.646,3.563,5.849,7.732l1.95-2.286S163.563,803.788,161.95,803.25Z" transform="translate(-138.748 -697.786)"/><path class="ab" d="M120.774,967.317c-.177,2.13-.437,4.251-.788,4.392-.495.2-9.4-.554-14.658-1.692a18.616,18.616,0,0,1,.471-3.171c.538-2.063-1.614-5.558-1.344-6.634s2.78.717,3.049-1.166c.211-1.485.563-6.868.01-9.476,1.468,2.976,5.022,9.813,6.981,10.372,2.51.717,6.1,2.869,6.544,2.869a.068.068,0,0,1,.028.008v.15c-.025.365-.085,1.583-.184,3Z" transform="translate(-90.72 -824.895)"/><path class="ab" d="M215.029,890.575c.47,1.662,1.142.826,2.219,2.232.957,1.256,6.974,2.682,8.4,3.32-3.064-.479-10.766-1.686-11.072-1.725-.509-.067-3.67-14.9-3.26-15.552.55.612.383,1.384.509,1.633" transform="translate(-183.541 -763.46)"/><path class="ac" d="M112.348,1146.638a11.477,11.477,0,0,1-3.794.021c-1.255-.089-1.021-1.025-.932-2.279.008-.106.021-.248.035-.42.16-1.838.671-7.173-.014-10.241-.012-.05-.022-.1-.033-.145-.8-3.315-.185-8.694,0-9.813s-4.215-1.213-7.284-.407-15.756.36-16.826-.9c-.592-.695-.832-2.958-.93-4.838.014.289.54.931.691,1.182a9.466,9.466,0,0,0,1.658,2.059c2.085,1.945,5.887,1.494,8.534,1.468,4.211-.042,8.413-.176,12.619-.176,2.495,0,4.473,1.43,4.943,1.43s-.47,1.01-.47,1.48.842.471.958.672-1.9.263-1.5,1.816a9.254,9.254,0,0,1,.4,5.177c-.471,2.757-1.211,10.4-.537,11.817C110.338,1145.539,112.154,1145.933,112.348,1146.638Z" transform="translate(-71.729 -970.881)"/><path class="ac" d="M332.065,1157.125a14.3,14.3,0,0,1-2.785-.3c-.158-.051-.252-.505-.306-1.191a.657.657,0,0,0-.02-.314c-.142-2.592.175-7.666.079-8.181.394-4.7,1.19-12.867,1.19-13.069,0,0,.672,6.118.739,8.876s-.4,9.682.807,13.043A5.214,5.214,0,0,1,332.065,1157.125Z" transform="translate(-285.731 -985.171)"/><path class="ac" d="M243.36,1081.743a2.77,2.77,0,0,0-1.161-2c-1.926-1.607-4.815-1.969-7.191-2.535-.436-.1-6.2-1.3-6.188-1.4.038-.456.071-.919.1-1.35,2.439.461,8.394,1.657,11.206,2.85A4.85,4.85,0,0,1,243.36,1081.743Z" transform="translate(-198.777 -933.388)"/><path class="z" d="M281.332,1353.555a1.746,1.746,0,0,1-.551.538,6.98,6.98,0,0,1-2.877.507,12.4,12.4,0,0,1-3.03-.173,13.172,13.172,0,0,1-2.31-.656c-.105-.042-.827-.249-.859-.377,0,0,.18.717-1.255.538s-2.869.628-3.138-2.152c-.024-.251-.034-.5-.033-.743a11.47,11.47,0,0,1,1.2-4.727c.986.537,4.124,0,4.124,0a28.29,28.29,0,0,1,1.921,2.689c1.024,1.614,4.1,1.135,6.159,2.39A1.561,1.561,0,0,1,281.332,1353.555Z" transform="translate(-232.187 -1169.545)"/><path class="ad" d="M281.332,1384.828a1.746,1.746,0,0,1-.551.538,6.978,6.978,0,0,1-2.877.507,12.4,12.4,0,0,1-3.03-.173,13.172,13.172,0,0,1-2.31-.656c-.105-.042-.827-.25-.859-.377,0,0,.18.717-1.255.538s-2.869.628-3.138-2.152c-.024-.251-.034-.5-.033-.743,1.259.482,7.118,2.694,8.994,2.776C278.068,1385.158,280.253,1385.269,281.332,1384.828Z" transform="translate(-232.187 -1200.818)"/><path class="ad" d="M337.138,1352.56a1.666,1.666,0,0,1-.525.519,6.7,6.7,0,0,1-2.769.487,11.863,11.863,0,0,1-2.923-.171,12.556,12.556,0,0,1-2.224-.633c-.1-.041-.8-.239-.826-.362,0,0,.172.689-1.209.517s-2.757.605-3.02-2.071a6.96,6.96,0,0,1-.033-.717c1.213.465,6.852,2.594,8.658,2.673C334,1352.881,336.1,1352.986,337.138,1352.56Z" transform="translate(-281.12 -1172.863)"/><path class="i" d="M1656.93,1264.29l-3.849-23.354a.133.133,0,1,0-.263.045l3.83,23.309Z" transform="translate(-1435.807 -1077.91)"/><path class="i" d="M1577.706,1264.258l3.842-23.31a.136.136,0,1,0-.269-.045l-3.848,23.354Z" transform="translate(-1370.32 -1077.878)"/><path class="x" d="M1614.263,1261.705l.106-23.724a.131.131,0,0,0-.131-.131h0a.131.131,0,0,0-.131.131l-.106,23.725Z" transform="translate(-1402.088 -1075.325)"/><path class="x" d="M1647.363,1265.693l.1-23.121a.131.131,0,0,0-.131-.131h0a.138.138,0,0,0-.131.131l-.1,23.123Z" transform="translate(-1430.842 -1079.313)"/><path class="x" d="M1566.676,1210.526c0,.548-.667,1.058-1.817,1.485a24.1,24.1,0,0,1-6.258,1.134c-.089.008-.181.014-.274.02l-.414.026-.273.014c-.742.037-1.51.055-2.3.055q-.907,0-1.779-.033a2.057,2.057,0,0,1-.272-.012c-.276-.01-.545-.025-.811-.043l-.272-.017a23.906,23.906,0,0,1-6.5-1.189c-1.078-.42-1.7-.919-1.7-1.444a.615.615,0,0,1,0-.073.744.744,0,0,1,.1-.3,5.6,5.6,0,0,1,2.757-.965,50.537,50.537,0,0,1,8.475-.616,48.23,48.23,0,0,1,8.928.7,4.746,4.746,0,0,1,2.3.88.766.766,0,0,1,.1.3A.382.382,0,0,0,1566.676,1210.526Z" transform="translate(-1341.289 -1049.89)"/><path class="i" d="M1566.72,1210.426v.053c-.057.327-.649.631-1.639.894a53.836,53.836,0,0,1-19.357.008c-1-.263-1.606-.574-1.661-.9a.378.378,0,0,1,0-.053.37.37,0,0,1,.105-.245,5.6,5.6,0,0,1,2.757-.965,50.537,50.537,0,0,1,8.475-.616,48.231,48.231,0,0,1,8.928.7,4.747,4.747,0,0,1,2.3.88A.368.368,0,0,1,1566.72,1210.426Z" transform="translate(-1341.333 -1049.916)"/><path class="i" d="M1606.567,1311.943a.111.111,0,0,1-.07-.025l-10.069-8.176a.11.11,0,0,1-.016-.156.113.113,0,0,1,.158-.017l10.068,8.176a.112.112,0,0,1-.071.2Z" transform="translate(-1386.787 -1132.394)"/><path class="i" d="M1586.488,1311.943a.108.108,0,0,1-.087-.041.111.111,0,0,1,.016-.158l10.069-8.176a.112.112,0,0,1,.14.173l-10.069,8.176A.105.105,0,0,1,1586.488,1311.943Z" transform="translate(-1378.091 -1132.395)"/><path class="ae" d="M1575.936,1211.373a53.839,53.839,0,0,1-19.356.008,2.853,2.853,0,0,1,1.191-2.165,50.524,50.524,0,0,1,8.475-.616,48.25,48.25,0,0,1,8.928.7A3.469,3.469,0,0,1,1575.936,1211.373Z" transform="translate(-1352.207 -1049.916)"/><path class="q" d="M1545.918,839.973a2.422,2.422,0,0,1-.547,1.432,17.116,17.116,0,0,0-1.753,2.392c-.322.964.525,2.837.525,2.837s-.394,1.926-1.514,2.495a1.573,1.573,0,0,1-.227.091c-1.266.379-4.389-.337-3.947-1.669a3.2,3.2,0,0,0,.131-1.255c-.084-1.01-.131-1.875-.131-1.875a2.819,2.819,0,0,1-2.835.213,7.488,7.488,0,0,1-1.606-2.246,5.467,5.467,0,0,1-.525-2.862,2.6,2.6,0,0,0,0-1.205,7.449,7.449,0,0,1,0-2.6,16.571,16.571,0,0,1,.414-1.669,7.562,7.562,0,0,1,.6-1.615,1.55,1.55,0,0,1,1.367-.828c1.958-.2,4.237-.746,6.089.18,1.737.773,2.514,3.655,3.324,4.094C1547.2,836.922,1545.838,838.688,1545.918,839.973Z" transform="translate(-1332.052 -722.127)"/><path class="af" d="M1603.736,913.734s-.394,1.926-1.514,2.495a1.577,1.577,0,0,1-.227.091c-.029-.064-.01-.147.067-.246.964-1.254.7-1.182.41-3.808-.281-2.584,2.363-3.66,2.495-3.756a17.145,17.145,0,0,0-1.753,2.391C1602.891,911.857,1603.736,913.734,1603.736,913.734Z" transform="translate(-1391.648 -789.226)"/><path class="ag" d="M1609.28,819.381a2.637,2.637,0,0,1,2.626-1.313c1.838.219,3.137,2.736,2.874,3.9a1.669,1.669,0,0,1-2.739,1.157,9.121,9.121,0,0,1-2.757-3.433Z" transform="translate(-1397.988 -710.64)"/><path class="ag" d="M1535.86,821.583s1.3-4.153,6.5-3.18,6.587,3.481,6.923,5.613a6.981,6.981,0,0,1-1.2,4.342s-.224-2.889-2.376-1.011c-1.112.968-2.334-1.692-2.5-2.736S1536.653,820.832,1535.86,821.583Z" transform="translate(-1334.208 -710.822)"/><path class="ah" d="M1530.575,835.5s-1.152-4.45,3.3-4.9,4.647,4.939,4.647,4.939l-2.92-.075-.336-1.758-.081,1.783-2.576.013-.263-.973-.075.935-.3-.411-.075.411Z" transform="translate(-1329.5 -721.526)"/><path class="q" d="M1438.366,911.7a.03.03,0,0,1,0,.007c-.021.068-.046.131-.072.206a4.416,4.416,0,0,0-.151.433,4.165,4.165,0,0,0-.087,1.868c.037.475-1.937.365-1.937.365l-.122-.511s-.322-.516-.758-1.074a7.568,7.568,0,0,0-.656-.75c-.788-.788-.953-1.95-1.444-2.907-.452-.88-1.425-1.872-.537-2.864s2.177.418,2.724,1.1c.143.176,1.121,1.955,1.339,1.671.366-.475.292-2.082.8-2.412s.987-.146.768.511a2.54,2.54,0,0,0-.255,1.755,5.646,5.646,0,0,1,.483,1.74h0A2.5,2.5,0,0,1,1438.366,911.7Z" transform="translate(-1244.193 -787.161)"/><path class="af" d="M1457.973,953.46a4.165,4.165,0,0,0-.087,1.868c.037.475-1.937.365-1.937.365l-.122-.511s-.322-.516-.758-1.074a2.009,2.009,0,0,0,1.765.28A1.736,1.736,0,0,0,1457.973,953.46Z" transform="translate(-1264.025 -828.275)"/><path class="q" d="M1318.129,1409.867a32.847,32.847,0,0,0-1.83,4.081c-.638,1.455-1.313,2.757-1.82,2.84-.949.159-1.838-1.1-2.5-1.6-1.364-1.022-3.03-1.26-4.509-2.057-1.007-.541-4.278-3.344-1.707-3.924a4.749,4.749,0,0,1,2.552.182,29.081,29.081,0,0,1,3.079,1.373c.482.219.982.508,1.5.214a10.992,10.992,0,0,0,1.087-2.179S1318.695,1409.366,1318.129,1409.867Z" transform="translate(-1133.481 -1223.83)"/><path class="ac" d="M1316.3,1415.982c-.638,1.455-1.313,2.757-1.82,2.84-.949.159-1.838-1.1-2.5-1.6-1.364-1.022-3.03-1.26-4.509-2.057-1.007-.541-4.278-3.344-1.707-3.924a4.749,4.749,0,0,1,2.552.182c-.255,2.165,1.891,2.426,4.464,3.808A5.322,5.322,0,0,0,1316.3,1415.982Z" transform="translate(-1133.481 -1225.865)"/><path class="q" d="M1508.591,1416.878c-.656.656-2.059.173-2.86.155-1.644-.034-3.084.712-4.69.919-1.05.131-4.892-.192-3.722-1.892a2.336,2.336,0,0,1,.18-.227,4.563,4.563,0,0,1,2.1-1.288,29.848,29.848,0,0,1,3.184-.656c.5-.1,1.05-.154,1.3-.676a10.859,10.859,0,0,0-.37-2.317s4.016-2.2,3.854-1.492a32.306,32.306,0,0,0,.856,4.224h0a.057.057,0,0,0,0,.014C1508.74,1415.136,1508.939,1416.529,1508.591,1416.878Z" transform="translate(-1300.536 -1224.231)"/><path class="ac" d="M1508.591,1445.813c-.656.656-2.059.173-2.86.155-1.644-.034-3.084.712-4.69.919-1.05.131-4.892-.192-3.722-1.892a2.336,2.336,0,0,1,.18-.227,4.564,4.564,0,0,1,2.1-1.288c1.015,1.838,2.844.84,5.646.478a5.159,5.159,0,0,0,3.177-1.388.057.057,0,0,0,0,.014C1508.74,1444.071,1508.939,1445.464,1508.591,1445.813Z" transform="translate(-1300.536 -1253.166)"/><path class="aa" d="M1400.539,1110c-1.937,3.428-7.484,3.066-10.819,3.636-.292.05-1.337.18-2.643.377-1.413.214-3.129.508-4.524.865a13.7,13.7,0,0,0-1.413.432c-.771.291-1.251.614-1.205.958.215,1.606,7.279,24.081,7.279,24.723,0,.343-2.063.473-3.993.341-1.695-.115-3.282-.432-3.282-.983,0-1.182-2.352-9.135-3.851-12.167-1.452-2.934-3.506-10.66-3.632-11.139a.012.012,0,0,1,0-.008v-.017h0l-10.165,22.583s-1.707-.368-3.351-.9c-1.557-.5-3.071-1.153-3.071-1.776,0-1.284,2.355-4.745,3.319-6.921s5.671-17.034,7.813-19.077,11.88-6.751,13.917-7.607,3.4-1.606,3.574-6.422l2.455-.151,2.846-.173,4.668-.286,2.542-.155a9.926,9.926,0,0,0,1.79,5.261C1400.464,1103.5,1401.993,1107.42,1400.539,1110Z" transform="translate(-1177.849 -952.212)"/><path class="ac" d="M1576.127,1107.146l-1.917.576a5.543,5.543,0,0,0,2.138-1.3c.617-.666-.167-4.044-.919-6.785l2.846-.173v.057c.087,1.224.079,3.184.054,4.716A3.1,3.1,0,0,1,1576.127,1107.146Z" transform="translate(-1367.522 -955.105)"/><path class="ac" d="M1607.022,1110c-1.937,3.428-7.484,3.066-10.819,3.635-.292.05-1.337.18-2.643.377a38.748,38.748,0,0,0,8.052-4.058c5.995-3.852-.856-12.522-.856-13.38,0,0,.063-.109.168-.286l2.542-.155a9.926,9.926,0,0,0,1.79,5.261C1606.947,1103.5,1608.475,1107.42,1607.022,1110Z" transform="translate(-1384.332 -952.212)"/><path class="ac" d="M1472.649,1213.28c-.012.059-.06.285-.139.649A3.61,3.61,0,0,1,1472.649,1213.28Z" transform="translate(-1279.175 -1053.981)"/><path class="ac" d="M1392.015,1223.115,1381.85,1245.7s-1.707-.368-3.351-.9c-.263-.571.015-1.175.763-2.4,1.766-2.889,5.218-3.1,7.466-9.376a139.676,139.676,0,0,0,4.031-14.764A7.1,7.1,0,0,0,1392.015,1223.115Z" transform="translate(-1197.423 -1058.307)"/><path class="ac" d="M1482.156,1255.3h0a.014.014,0,0,1,0-.008Z" transform="translate(-1287.554 -1090.475)"/><path class="ac" d="M1522.036,1264.867c0,.617-3.578.353-3.977.341.725-.106,1.083-1.716,1.255-2.27a10.1,10.1,0,0,0,.511-3.96,24.725,24.725,0,0,0-1-3.993c-1.134-4.15-2.495-8.241-3.907-12.306-.021-.062-.411-1.071-.381-1.09,0,0-1.069.642-.534-.214s.108-.91-1.182-.962-2.626-.374-1.019-.7,2.3.427,1.821,0-1.5-1.444.263-.75a3.974,3.974,0,0,0,2.064.218c-.771.292-1.251.615-1.205.958C1514.972,1241.75,1522.036,1264.224,1522.036,1264.867Z" transform="translate(-1312.671 -1076.091)"/><path class="ai" d="M1486.774,955.9c-.427,3.479-.263,11.827-1.444,12.362s-17.766.263-18.087,0c-.277-.231-.075-1.625-.014-2a.154.154,0,0,1,.1-.121l3.926-1.36s-.012-.017-.035-.046c-.284-.361-2.212-2.835-2.212-3.381,0,0-3.96,7.682-6.85,7.213s-4.548-17.914-4.548-17.914,2.674-.911,3-.263,2.728,9.741,2.728,9.741,2.014-4.213,3.531-6.592a6.074,6.074,0,0,1,1.182-1.489c1.284-.91,4.636-2.992,4.636-2.992h0a1.89,1.89,0,0,0,.247.177h0l.087.051c.776.452,2.8,1.214,5.3-.989,0,0,1.218.306,2.626.7,1.313.365,2.782.8,3.609,1.144h0a3.377,3.377,0,0,1,.5.24C1486.079,951.03,1487.2,952.421,1486.774,955.9Z" transform="translate(-1266.232 -823.792)"/><path class="aj" d="M1504.74,988.17c-.123.559-.332,1.305-.574,2.363-.525,2.277-2.354,6.9-2.354,5.94a3.02,3.02,0,0,0-.6-1.707S1503.224,990.549,1504.74,988.17Z" transform="translate(-1304.107 -858.427)"/><path class="aj" d="M1561.54,1027.321s8.627-1.071,9.965-1.285c0,0,.214-4.8.75-5.746a11.793,11.793,0,0,1-3.738,5.157C1566.863,1026.685,1564.586,1027.036,1561.54,1027.321Z" transform="translate(-1356.516 -886.33)"/><path class="aj" d="M1546.641,1051.121c-.283-.361-2.211-2.835-2.211-3.381,0,0,1.364,2.035,3.23,2.2C1549.167,1050.065,1548.127,1050.894,1546.641,1051.121Z" transform="translate(-1341.653 -910.176)"/><path class="aj" d="M1550.51,968.112c-.427,3.479-.262,11.827-1.444,12.362s-17.766.263-18.086,0c0,0,14.675.215,16.225-1.23s2.626-5.514,2.568-8.026.525-6.155-1.476-8.857a3.371,3.371,0,0,1,.5.24C1549.816,963.244,1550.94,964.635,1550.51,968.112Z" transform="translate(-1329.969 -836.006)"/><path class="aj" d="M1582.293,948.975c-.966.843-3.807,2-5.646,1.519-1.994-.525-2.363-1.229-2.378-1.287h0a.672.672,0,0,0,.087.051c.776.452,2.8,1.214,5.3-.989C1579.662,948.274,1580.881,948.58,1582.293,948.975Z" transform="translate(-1367.575 -823.766)"/><path class="q" d="M1477.531,1085.6c-.368.1-.889.228-1.426.356a4.853,4.853,0,0,1-2.521-.505c-.3-.108-.6-.21-.91-.293a1.838,1.838,0,0,0-1.637.091c-.131.066-.272.141-.452.215-.635.263-1.485-.28-1.444-.579a.161.161,0,0,1,.106-.131c.177-.084.624-.328,1.153-.591a7.222,7.222,0,0,1,2.376-.842c.488,0,1.838.076,3.061.15.54.03,1.05.063,1.444.087-.029.173-.091.555-.119.94-.033.46-.024.919.131,1.05A.713.713,0,0,0,1477.531,1085.6Z" transform="translate(-1276.247 -941.084)"/><path class="af" d="M1477.531,1093.417c-.368.1-.889.229-1.426.356a4.853,4.853,0,0,1-2.521-.505c-.3-.108-.6-.21-.91-.293a1.837,1.837,0,0,0-1.637.091c-.131.066-.272.141-.452.215-.635.263-1.485-.28-1.444-.579.184.193.485.364,1.194.118,1-.345,1.381-.706,2.592-.244s3.1.676,3.982-.093a.975.975,0,0,1,.255-.163c-.033.46-.024.919.131,1.05A.711.711,0,0,0,1477.531,1093.417Z" transform="translate(-1276.247 -948.903)"/><path class="i" d="M1478.89,942.867a4.72,4.72,0,0,0,.1-.857A2.5,2.5,0,0,1,1478.89,942.867Z" transform="translate(-1284.717 -818.328)"/><path class="ah" d="M1614.418,827.546h0a1.422,1.422,0,0,1-.788.1,5.932,5.932,0,0,0-3.62-4.265,2.832,2.832,0,0,1,.478-.536C1612.211,823.7,1614.373,825.233,1614.418,827.546Z" transform="translate(-1398.622 -714.813)"/><path class="af" d="M1575.028,905.233c-.508.546-1.95,2.244-2.9,3.239-.084-1.01-.131-1.875-.131-1.875s2.864-1.313,3.05-2.408a6.983,6.983,0,0,0,.162-1.339S1575.722,904.483,1575.028,905.233Z" transform="translate(-1365.603 -784.309)"/><path class="s" d="M1524.306,878.642a1.746,1.746,0,1,1,1.746-1.746A1.746,1.746,0,0,1,1524.306,878.642Zm0-3.341a1.6,1.6,0,1,0,1.594,1.6A1.6,1.6,0,0,0,1524.306,875.3Z" transform="translate(-1322.654 -760.246)"/><path class="s" d="M1556.743,878.045a1.853,1.853,0,1,1,1.853-1.853A1.853,1.853,0,0,1,1556.743,878.045Zm0-3.545a1.692,1.692,0,1,0,1.691,1.693A1.692,1.692,0,0,0,1556.743,874.5Z" transform="translate(-1350.739 -759.543)"/><path class="x" d="M1204.205,1102H1178.68c.106,1.926,3,1.6,3,1.6h52.847s2.888.322,3-1.6Z" transform="translate(-1023.924 -957.312)"/><path class="q" d="M1021.981,530.259a6.251,6.251,0,0,0-3.865-3.718c-1.078-.383-2.638-.822-3.72-.315-1.381.646-2.95,1.719-3.26,3.323a5.925,5.925,0,0,0-.214,1.723c.008.066.042.138.047.2.039.5-.624,1.061-.878,1.444-.16.243-.747,1.016-.443,1.313.427.423.428-.095.427.423,0,.437-.021.874.012,1.313s.263.825.175,1.259c-.1.525-1.092,2.036-.206,2.363,1.02.372,3.431-.849,4.156.49A3.227,3.227,0,0,1,1014.8,542l.525-.337a5.584,5.584,0,0,0,2.006,1.866c.431,0,3.461-1.367,3.431-2.329a24.419,24.419,0,0,1,.47-3.78,15.384,15.384,0,0,1,.609-3.269,4.1,4.1,0,0,1,.253-.571A4.433,4.433,0,0,0,1021.981,530.259Z" transform="translate(-877.011 -456.935)"/><path class="q" d="M832.255,554.6v.054c-.046,1.649,1.127,2.757,1.481,1.78.112-.307.2-.625.285-.9.176-.6.31-1.019.525-.713a1.855,1.855,0,0,1,.039,1.011h0a11.368,11.368,0,0,0-.156,3.138c.255,1.263,3.067,5.13,3.717,6.011l.131.181-3.524,4.933s-.21-1.067-.525-2.48c-.555-2.5-1.435-6.094-2.046-6.74-.956-1.01-2.495-2.979-2.547-5.059s.467-2.652,1.472-3.39c.8-.584,1.077.123,1.133,1.263" transform="translate(-720.705 -479.711)"/><path class="ac" d="M979.6,1287.73s2.42,4.19,2.42,4.955-3.716,2.626-4.372,2.513-.592-1.391-1.313-.873c-.754.541-.964,1.639-4.534,2.076-1.13.139-2.626-.411-2.823-1.379-.083-.4.1-.607.689-1.116.932-.81,2.2-.788,3.282-1.444.656-.394,1.895-1.338,1.691-2.257C974.421,1289.224,978.942,1288.166,979.6,1287.73Z" transform="translate(-841.737 -1118.656)"/><path class="ac" d="M1041.008,1290.945a45.727,45.727,0,0,1,.874,4.7c-.109.655-4.279.692-4.279.365s-.035-.474-.91-.474-3.555,1.241-5.085.894-4.6-.9-2.95-1.77,4.043-.873,4.808-1.639a11.315,11.315,0,0,0,1.576-2.513Z" transform="translate(-893.19 -1121.071)"/><path class="aa" d="M971.69,899.209c-.874,4.081-1.723,1.02-.861,10.2s-1.325,9.763-1.032,14.426,1.453,7.869,1.019,11.658.092,5.683-1.05,5.975c-1.023.263-4.9,1.582-5.984.046a1.533,1.533,0,0,1-.253-.629c-.131-.755-.28-1.876-.433-3.143-.345-2.889-.721-6.553-1.025-8.374-.436-2.626-1.748-10.778-1.748-13.111v-10.2s-3.5,9.472-4.225,12.532a4.712,4.712,0,0,0-.117,1.09v.248a1.249,1.249,0,0,0,.01.2h0v.089c0,.072.012.144.018.218h0c.009.087.02.175.032.263s.024.176.037.263.037.219.056.332q.018.092.035.189a40.885,40.885,0,0,0,1.233,4.352c.041.131.083.263.131.394.03.093.059.185.088.277.052.168.106.336.159.5.041.131.08.263.121.394a.166.166,0,0,0,.01.037c.034.108.066.217.1.324a.206.206,0,0,1,.009.03c.058.2.115.394.171.584a.234.234,0,0,1,.009.033q.091.323.176.643l.075.29a.285.285,0,0,1,0,.029c.022.087.043.173.064.263s.041.173.06.263.038.172.057.263q.084.394.147.767c.013.068.024.131.034.2.014.1.029.194.042.291.582,4.372.582,3.788,1.456,5.537s1.167,3.939.437,4.081l-.1.024-.054.016q-.084.024-.181.059c-.068.024-.14.05-.215.079l-.151.06-.131.051-.148.062-.114.047-.038.017c-.081.033-.163.068-.247.1l-.232.1c-.164.068-.33.131-.494.2-.054.022-.109.042-.163.063a3.941,3.941,0,0,1-1.377.337c-.874-.051-2.186,1.552-2.916-.634s-3.622-8.474-4.352-12.253-2.626-6.7-3.2-8.3.727-11.073,1.165-13.99a53.477,53.477,0,0,1,3.939-11.8c1.313-2.482,1.749-7.11,1.749-7.11H969.8S972.563,895.13,971.69,899.209Z" transform="translate(-822.212 -771.557)"/><path class="ac" d="M1003.025,1050.722l-.1.024-.054.016q-.084.024-.181.059c-.067.022-.139.05-.215.079l-.151.06-.131.051-.148.062-.152.064c-.081.033-.163.068-.247.1l-.232.1c-.164.068-.33.131-.494.2-.054.022-.109.042-.163.063a8.965,8.965,0,0,0,.674-2.046c.45-2.768-1.032-2.626-2.344-6.411s-1.313-4.808-2.186-10.635-3.5-2.768,0-9.18,2.332-8.009,4.53-8.744,1.5,1.547,1.5,1.547-.131.306-.345.825v-1.2s-3.5,9.472-4.225,12.532a4.708,4.708,0,0,0-.117,1.09v.248a1.247,1.247,0,0,0,.01.2h0v.089c0,.072.012.145.018.218h0c.009.087.02.173.032.263s.024.176.037.263.037.219.056.332l.036.189a40.9,40.9,0,0,0,1.233,4.353c.041.131.083.263.131.394.03.093.059.185.088.277.052.168.106.336.159.5.041.131.081.263.121.394a.17.17,0,0,0,.01.037c.034.108.066.217.1.324a.2.2,0,0,1,.009.03c.058.2.116.394.171.584a.238.238,0,0,1,.009.033q.091.323.176.643l.075.29a.286.286,0,0,1,0,.029c.022.087.043.173.064.263s.041.173.06.263.038.172.057.262q.084.394.147.767c.013.068.024.131.034.2.014.1.029.194.042.292.582,4.372.582,3.788,1.456,5.537S1003.755,1050.577,1003.025,1050.722Z" transform="translate(-864.476 -881.247)"/><path class="ak" d="M1051.91,916.223c0,2.333,1.313,10.492,1.749,13.111.3,1.821.679,5.479,1.024,8.374.154,1.267.3,2.388.433,3.143a1.527,1.527,0,0,0,.253.629c1.089,1.536,4.962.217,5.985-.046,1.14-.293.61-2.186,1.05-5.975s-.729-7-1.019-11.658,1.893-5.252,1.032-14.426-.013-6.121.861-10.2-1.893-11.045-1.893-11.045h-4.816c.085,3.5,2.153,13.049-4.031,17.164-.357.238-.435.8-.629,1.3Z" transform="translate(-913.798 -771.522)"/><path class="aa" d="M1037.74,1202a101.7,101.7,0,0,0,1.207,12.052,7.213,7.213,0,0,1,1.091-.394c.73-.146.437-2.332-.437-4.081s-.874-1.165-1.456-5.537A18.352,18.352,0,0,0,1037.74,1202Z" transform="translate(-901.489 -1044.182)"/><path class="u" d="M862.338,639.773c.1.888,1.607,3.842,3.005,6.227.206.348.407.685.6,1,1.531,2.485,11.912-.9,12.9.227.546.626.99,6.361,1.239,11.727.2,4.31.131,8.482.029,9.486-.218,2.258.807.691,2.01.775a20.155,20.155,0,0,0,3.716,0c.765-.143,2.841-.2,4.044-.24.608-.025,1.325-.184,2.013-.256a2.788,2.788,0,0,1,1.812.256c.983.632,2.952-.068,3.716-1.085s.437-3.05.437-4.4a1.632,1.632,0,0,1,.092-.55c.291-.809,1.281-1.354,3.08-1.889.427-.131.9-.253,1.418-.382,3.169-.788,1.531-2.6,1.421-5.984a122.916,122.916,0,0,0-1.421-12.648c-.437-2.372-7.322-4.741-8.634-5.193s-.764-2.258-.764-2.258c-.431.316-2.008.277-3.475.184-1.14-.076-2.215-.184-2.646-.184-.983,0-.327,1.13-1.53,2.258s-2.077,0-4.262,0-11.039,3.5-11.914,3.387-2.185-3.952-2.185-3.952S862.229,638.756,862.338,639.773Z" transform="translate(-749.115 -551.262)"/><path class="u" d="M1059.707,655.889c3.5,2.965,6.667,2.854,4.808,6.243-1.6,2.913-3.762,4.775-2.319,6.6a2.807,2.807,0,0,1,1.812.256c.983.632,2.951-.068,3.716-1.085s.437-3.049.437-4.4a1.644,1.644,0,0,1,.092-.551c.291-.809,1.281-1.352,3.08-1.888.427-.131.9-.253,1.418-.383,3.169-.788,1.531-2.6,1.421-5.984a122.8,122.8,0,0,0-1.421-12.646c-.437-2.371-7.322-4.741-8.634-5.194s-.764-2.258-.764-2.258c-.431.318-2.008.278-3.475.184a10.648,10.648,0,0,1,2.015,9.435C1060.581,649.563,1056.209,652.927,1059.707,655.889Z" transform="translate(-919.418 -551.271)"/><path class="ab" d="M1043.013,811.05s2.824,1.639,3.319,3.607-2.774,3.169-2.671,4.808,1.094-2.4,1.037-4.2S1042.807,811.814,1043.013,811.05Z" transform="translate(-906.056 -704.562)"/><path class="ab" d="M885.24,716.434c.206.348.407.685.6,1,1.531,2.485,11.912-.9,12.9.227.546.626.99,6.361,1.239,11.727.45-2.4.867-3.93,1.289-7.055.546-4.044-.009-6.881-2.906-6.662s-7.049,1.8-10.437,1.583A4.349,4.349,0,0,1,885.24,716.434Z" transform="translate(-769.011 -621.696)"/><path class="t" d="M1020.175,531.14a.575.575,0,0,0,.336-.335c.422-1.125,2.172-5.9,2.1-7.279-.079-1.566-1.645-1.253-2.193-2.349s-.394-1.958-2.271-2.193-6.1-.423-7.439,2.745c-.719,1.707,1.22,1.226,1.142,2.088s.7,1.075.309,1.313a4.253,4.253,0,0,0-.919,2.608c0,.939.394,2.726-.936,2.961s-.6-.231-.912-.466c-.263-.2-.846,2.5-.788,2.8.33,1.519,2.107,1.15,3.171.741,2.038-.788,1.211-1.691.656-3.353-.156-.469-.821-3.8.168-4.251,1.348-.617,1.741-.022,1.691.9a14.71,14.71,0,0,1-.236,1.511,1.98,1.98,0,0,0,.143,1.6C1015.193,531.242,1016.819,532.4,1020.175,531.14Z" transform="translate(-876.174 -450.743)"/><path class="u" d="M803.763,547.667l4.2,1.532a3.952,3.952,0,0,0,0,.9c-.014-.064-.435-.2-.491-.231l-1.162-.55c-.708-.335-1.419-.663-2.127-1-.225-.108-.695-.214-.75-.5C803.381,547.574,803.554,547.589,803.763,547.667Z" transform="translate(-697.938 -475.717)"/><path class="u" d="M852.657,564.525s-.085,1.431-.427,1.247l-.341-.181h0l-.566-.3-1.765-.931c.008-.322.008-.63-.008-.912h0Z" transform="translate(-738.008 -489.471)"/><line class="q" x2="0.008" y2="0.913" transform="translate(112.724 73.977)"/></svg>