<svg xmlns="http://www.w3.org/2000/svg" width="923.99" height="39.814" viewBox="0 0 923.99 39.814"><defs><style>.a,.b{fill:#a9b1c6;}.b{stroke:#000;stroke-linejoin:round;}.b,.c{stroke-linecap:round;}.c{fill:none;stroke:#a9b1c6;stroke-width:2px;}</style></defs><g transform="translate(1 0)"><g transform="translate(134.5 9)"><path class="a" d="M10.467-109.757a11.589,11.589,0,0,0-8.2,8.022,14.112,14.112,0,0,0,0,5.461,10.933,10.933,0,0,0,16.269,6.629,14.153,14.153,0,0,0,4.493-4.8l1.292-2.034.506,1.318a11,11,0,0,0,16.587,5.179,11.946,11.946,0,0,1,1.292-.829,3.908,3.908,0,0,1,.094,1.224v1.224H46.15l.056-6.082c.056-5.763.075-6.12.486-7.1a8.285,8.285,0,0,1,2.715-3.653,6.473,6.473,0,0,1,4.343-1.28,7.619,7.619,0,0,1,4.662,1.337c1.891,1.318,2.658,2.919,2.92,6.045a11.732,11.732,0,0,0,3.482,7.834,10.494,10.494,0,0,0,8.368,3.22,10.963,10.963,0,0,0,6.74-2.938,65.888,65.888,0,0,0,4.662-6.5c4.025-6.026,5.186-7.419,6.927-8.286a7.168,7.168,0,0,1,8.631,1.77A6.311,6.311,0,0,1,102.033-99,6.326,6.326,0,0,1,100.123-94a7.481,7.481,0,0,1-6.908,2.429,9,9,0,0,1-4.437-2.184,10.557,10.557,0,0,0-1.292-1.017,22.249,22.249,0,0,0-1.816,2.731,12.372,12.372,0,0,0,2.715,2.279,11.382,11.382,0,0,0,13.161-.753A10.636,10.636,0,0,0,105.515-99a10.146,10.146,0,0,0-3.052-7.551,10.719,10.719,0,0,0-15.669-.056,22.469,22.469,0,0,0-2.34,3.088l-1.273,2.015-.505-1.337a11.031,11.031,0,0,0-12.955-6.817,10.841,10.841,0,0,0-5.934,3.785l-.73.942-.711-.96c-3.707-5.1-11.87-5.5-16.475-.829-2.078,2.109-2.846,4.011-3.22,8.041a7.211,7.211,0,0,1-.767,3.051,7.536,7.536,0,0,1-8.069,4.03c-.674-.151-1.2-.339-1.179-.433.019-.113,2.265-3.559,5-7.664l4.98-7.476-.9-.64a10.961,10.961,0,0,0-14.153.885,59.49,59.49,0,0,0-4.924,6.8c-2.078,3.107-4.1,5.97-4.493,6.346A7.191,7.191,0,0,1,7.378-94,6.327,6.327,0,0,1,5.468-99a6.312,6.312,0,0,1,1.891-4.99c3.033-3.3,7.713-3.39,11.383-.226a9.017,9.017,0,0,0,1.236.979,8.622,8.622,0,0,0,.992-1.337l.9-1.337-.637-.659A13.819,13.819,0,0,0,16.72-109.4,13.264,13.264,0,0,0,10.467-109.757Zm25.91,3.333a3.886,3.886,0,0,1,1.179.3c0,.207-7.919,12.108-8.05,12.108-.3,0-1.329-1.789-1.629-2.806a8.085,8.085,0,0,1-.206-2.561,7.407,7.407,0,0,1,5.953-6.986A4.712,4.712,0,0,1,36.377-106.424Zm38.585.358a7.38,7.38,0,0,1,4.306,4.105A5.3,5.3,0,0,1,79.773-99a5.376,5.376,0,0,1-.6,3.145,7.571,7.571,0,0,1-8.031,4.312,7.536,7.536,0,0,1-4.138-12.711A7.385,7.385,0,0,1,74.962-106.066Z" transform="translate(-2 110)"/></g><g transform="translate(292.5 1)"><g transform="translate(0 0)"><path class="a" d="M15.085,9.893H17.36c3.05,0,5.491-1.655,5.491-4.849V5c0-2.818-1.963-4.77-5.208-4.77H12.095v13.8h2.991Zm0-6.917H17.4c1.5,0,2.428.729,2.428,2.089V5.1a2.118,2.118,0,0,1-2.37,2.089h-2.37ZM31.61,14.268a7.081,7.081,0,0,0,7.246-7.133V7.1A7.016,7.016,0,0,0,31.649,0,7.081,7.081,0,0,0,24.4,7.135v.039A7.014,7.014,0,0,0,31.61,14.268ZM27.537,7.094a4.1,4.1,0,0,1,4.08-4.3,4.163,4.163,0,0,1,4.119,4.336v.039a4.1,4.1,0,0,1-4.08,4.3,4.164,4.164,0,0,1-4.119-4.336Zm22.009,6.938h3.5L49.723,9.1a4.281,4.281,0,0,0,2.915-4.278V4.786c0-2.839-1.924-4.554-5.13-4.554H41.284v13.8h2.993V9.619h2.35ZM44.284,2.973h2.975c1.458,0,2.35.669,2.35,1.971v.039c0,1.161-.835,1.952-2.288,1.952H44.277V2.976ZM61.14,14.032v-11H65.2V.234H54.079v2.8h4.059v11h2.991Zm16.627-2.7H70.377V8.435h6.407v-2.7H70.377v-2.8h7.285V.234H67.405v13.8H77.761v-2.7ZM89.194,9.1a4.282,4.282,0,0,0,2.913-4.278V4.786c0-2.839-1.922-4.554-5.13-4.554H80.756v13.8h2.991V9.619H86.1l2.915,4.41h3.508Zm-.117-4.12c0,1.161-.833,1.952-2.288,1.952H83.746V2.976h2.975c1.455,0,2.35.669,2.35,1.971v.039ZM9.132,25.552l-6.372-8.5H0V30.851H2.952V22.086l6.587,8.769h2.544V17.061H9.132ZM21.7,16.822a7.081,7.081,0,0,0-7.246,7.135V24a7.018,7.018,0,0,0,7.207,7.1,7.089,7.089,0,0,0,7.251-7.133v-.032a7.016,7.016,0,0,0-7.207-7.1ZM25.782,24a4.1,4.1,0,0,1-4.08,4.3,4.164,4.164,0,0,1-4.119-4.336v-.037a4.1,4.1,0,0,1,4.08-4.3,4.164,4.164,0,0,1,4.119,4.336V24Zm10.354,2.785-3.565-9.728h-3.3l5.491,13.895h2.643L42.9,17.061h-3.21Zm11.633-1.518h6.407V22.56H47.769v-2.8h7.285v-2.7H44.794V30.856H55.15v-2.7H47.766v-2.9Zm13.369-8.2H58.145V30.867h9.381V28.105H61.135V17.061Zm11.307,0h-3V30.867h9.381V28.105H72.443V17.061Zm8.313,13.795h2.991V17.061H80.756V30.856Z" transform="translate(0 0)"/><path class="a" d="M249,83.617,256.379,73h7.03l-7.377,10.617Z" transform="translate(-154.585 -45.32)"/><path class="a" d="M249,44l7.379,10.617h7.03L256.032,44Z" transform="translate(-154.585 -27.316)"/></g></g><g transform="translate(455.5 5)"><g transform="translate(0 0)"><path class="a" d="M0,14.408A14.409,14.409,0,1,1,14.409,28.817,14.409,14.409,0,0,1,0,14.408"/><path class="a" d="M16.958,30.867a2.274,2.274,0,0,1-.813,1.552,2.035,2.035,0,0,1-.185.139,1.5,1.5,0,0,0,.132-.494A1.531,1.531,0,0,0,14.725,30.4H14.7a1.012,1.012,0,0,1,.183-2.015,1.917,1.917,0,0,1,1.55.813,2.275,2.275,0,0,1,.522,1.671Zm-1.391,1.149a1.008,1.008,0,0,1-1.092.924,1.917,1.917,0,0,1-1.549-.812,2.288,2.288,0,0,1,.291-3.221c.06-.05.122-.1.185-.14a1.532,1.532,0,0,0,1.234,2.16h.022a1,1,0,0,1,.909,1.089Zm2.286-4.922a.057.057,0,0,0-.082-.009l-.083.069c-1.005.84-3.108-.357-5.043,1.121-.046.035-.092.07-.137.108a3.153,3.153,0,0,0,4.038,4.844c.045-.039.089-.076.131-.117,1.8-1.64,1-3.925,2.007-4.764l.083-.069a.059.059,0,0,0,.007-.082Zm14.742-7.438-1.626-1.961.655-.544a.445.445,0,1,0-.568-.684s-2.041,1.7-2.33,1.934a.848.848,0,0,1-1.231.014c-.695-.861,1.047-1.478.323-2.362-1.98-2.415-7.406,0-9.4.608a13.17,13.17,0,0,1-7.263.2c-.135-.035-.185.061-.135.111.381.381,4.035,1.482,7.72.424.363-.1,1.29-.385,1.407-.419a.19.19,0,0,1,.247.112c.031.095-.007.176-.131.221,0,0-1.006.328-1.366.439a13.423,13.423,0,0,1-6.036.455c-.167-.026-.321-.054-.46-.082-.091-.016-.145.065-.08.118.717.5,4.373,1,7.321.033.359-.118,1.276-.431,1.39-.469a.19.19,0,0,1,.252.1c.035.093,0,.176-.119.228,0,0-.988.381-1.342.51a13.585,13.585,0,0,1-4.4.835c-.162,0-.317,0-.47,0-.091,0-.112.117-.033.138a11.627,11.627,0,0,0,5.742-.538c.352-.134,1.251-.5,1.365-.54a.189.189,0,0,1,.257.09c.041.091.01.175-.107.233,0,0-.966.431-1.313.579a13.8,13.8,0,0,1-2,.676c-.157.04-.311.077-.463.11a.07.07,0,0,0,0,.137,9.755,9.755,0,0,0,3.693-.788c.348-.147.923-.4,1.035-.452a.191.191,0,0,1,.26.082c.045.088.019.175-.1.238,0,0-.941.483-1.281.647-.159.077-.848.383-.848.383-.124.048-.089.16,0,.168a7.074,7.074,0,0,0,2.706-.784c.339-.166.45-.229.56-.283a.19.19,0,0,1,.264.066c.048.086.028.173-.083.244,0,0-1.172.671-1.292.738a.086.086,0,0,0,0,.163,9.078,9.078,0,0,0,2.09-.686c.331-.181.315-.181.422-.239a.19.19,0,0,1,.265.057c.054.082.038.172-.069.247,0,0-.319.209-.644.418L25,20.831a.086.086,0,0,0-.036.111s0,0,0,0,0,.007.007.011a.449.449,0,0,1-.067.622l-2.123,1.762a.089.089,0,0,0-.011.126l.454.547a.087.087,0,0,0,.125.011L26.87,21.1v0l.63-.523a.045.045,0,0,1,.063.006l.091.111h0L29.16,22.5a.087.087,0,0,0,.126.012l.541-.45a.089.089,0,0,0,.024-.1l-1.056-1.273a.045.045,0,0,1,0-.063l.63-.522a.044.044,0,0,1,.063.006l.16.193,0,0,.88,1.061a.087.087,0,0,0,.125.01l.542-.447a.09.09,0,0,0,.012-.126l-.873-1.053h0l-.169-.2a.044.044,0,0,1,.007-.063l.63-.521a.042.042,0,0,1,.062.005l1.042,1.256a.089.089,0,0,0,.125.011l.542-.45a.089.089,0,0,0,.011-.125ZM18.355,26.671a.058.058,0,0,0-.082-.009l-.164.137a.06.06,0,0,0-.008.082l.908,1.1a.06.06,0,0,0,.082.008l.164-.136a.059.059,0,0,0,.008-.083ZM21.974,23.9a.059.059,0,0,0-.081-.008l-.164.137a.059.059,0,0,0-.007.082l.681.821a.059.059,0,0,0,.082.008l.164-.137a.059.059,0,0,0,.007-.082Zm-.843.862a.046.046,0,0,0-.063-.007l-2.377,1.74a.046.046,0,0,0-.007.064l.75.9a.044.044,0,0,0,.063.006l2.151-2.015a.045.045,0,0,0,.006-.063Zm.451-.375a.054.054,0,0,0-.073,0l-.164.137a.051.051,0,0,0-.015.071l.521.63a.054.054,0,0,0,.073,0l.164-.137a.053.053,0,0,0,.016-.072Zm.942-.783a.052.052,0,0,0-.073,0l-.165.136a.054.054,0,0,0-.016.072l.522.63a.053.053,0,0,0,.073,0l.165-.137a.052.052,0,0,0,.017-.071Z" transform="translate(-6.829 -9.312)"/><path class="a" d="M96.6,21.519H95.231v7.146h2.287V23.618a2.657,2.657,0,0,1,1.514-.414,3.609,3.609,0,0,1,.7.057V21.418a1.9,1.9,0,0,0-.643-.1,3.259,3.259,0,0,0-2.2.714Zm1.588-6.4A3.994,3.994,0,0,0,100,14.762V12.819a3.885,3.885,0,0,1-1.586.328c-.943,0-1.587-.443-1.587-1.8s.644-1.8,1.587-1.8A3.85,3.85,0,0,1,100,9.874V7.931a3.966,3.966,0,0,0-1.813-.359c-2.645,0-3.616,1.345-3.616,3.775S95.546,15.12,98.191,15.12Zm-9.222,2.767L86,28.665h2.429l.494-2.2h2.721l.5,2.2h2.431L91.6,17.887Zm.4,6.761.916-4.059.914,4.059Zm33.115-9.529a3.132,3.132,0,0,0,2.1-.743l.315.543h1.37V10.274c0-1.6-.484-2.7-3.057-2.7a7.287,7.287,0,0,0-2.572.473V9.959a7.194,7.194,0,0,1,2.572-.543c.614,0,.843.171.843.5v.457l-1.3.13c-1.284.128-2.7.413-2.7,2.344A2.18,2.18,0,0,0,122.487,15.12Zm.615-3.374.956-.13V13.2a1.468,1.468,0,0,1-1.027.343.784.784,0,0,1-.83-.843C122.2,12.148,122.457,11.833,123.1,11.746Zm17.892-4.688A1.359,1.359,0,1,0,139.635,5.7,1.341,1.341,0,0,0,140.993,7.058Zm-22.28,7.975a3.836,3.836,0,0,0,.657-.059V13.134c-.457,0-.587-.159-.587-.429V4.2h-2.27v8.82A1.949,1.949,0,0,0,118.713,15.034Zm65.606,10.654-.958-4.175h-1.885l-.958,4.175-.584-4.175H177.7l1.715,7.261h2.044l.956-4.516.958,4.516h2.043l1.714-7.261H184.9ZM139.849,7.771v5.248a1.951,1.951,0,0,0,2.2,2.016,3.854,3.854,0,0,0,.657-.059V13.134c-.457,0-.585-.159-.585-.429V7.771h-2.274Zm-39.9,15.648h1.158v2.915c0,1.689.759,2.531,2.759,2.531a5.573,5.573,0,0,0,1.172-.143V26.937a3.344,3.344,0,0,1-.7.083c-.728,0-.946-.312-.946-.872v-2.73h1.775v-1.9H103.39V19.5l-2.284.615v1.472l-1.158.316Zm71.924-5.534L168.9,28.66h2.43l.5-2.2h2.716l.5,2.2h2.429L174.5,17.885Zm.4,6.76.915-4.061.912,4.061ZM93.772,11.5c0-2.287-1.3-2.77-3.673-3.1-1.112-.154-1.529-.4-1.529-1.17,0-.685.658-1.059,1.844-1.059a7.44,7.44,0,0,1,2.856.573V4.527A7.063,7.063,0,0,0,90.243,4c-2.829,0-4.016,1.284-4.016,3.23,0,2.1,1.044,2.9,3.759,3.261,1.086.142,1.442.414,1.442,1.23,0,.727-.471,1.229-2.084,1.229a6.62,6.62,0,0,1-3.116-.831v2.346a7.472,7.472,0,0,0,3.344.657C92.1,15.12,93.772,14.163,93.772,11.5Zm9.661-1.7a2.5,2.5,0,0,1,1.274-.372c.613,0,.8.356.8.886v4.6h2.287V9.974c0-1.371-.558-2.4-2.5-2.4a3.875,3.875,0,0,0-1.859.455V4.2H101.15V14.92h2.284Zm8.649,5.317c2.642,0,3.358-1.545,3.358-3.772s-.716-3.775-3.358-3.775-3.359,1.544-3.359,3.775S109.438,15.12,112.082,15.12Zm0-5.719c.784,0,1.07.516,1.07,1.947s-.286,1.941-1.07,1.941-1.073-.513-1.073-1.941S111.294,9.4,112.082,9.4Zm98.436,14.741c-.474-.043-.716-.128-.716-.5s.356-.5,1-.5a6.181,6.181,0,0,1,2.3.457V21.686a5.757,5.757,0,0,0-2.388-.371c-2.2,0-3.144.971-3.144,2.429,0,1.487.629,2.088,2.887,2.286.473.044.715.13.715.5s-.329.5-1.058.5a6.972,6.972,0,0,1-2.544-.543V28.4a6.477,6.477,0,0,0,2.6.457c2.416,0,3.229-1.061,3.229-2.431C213.4,24.945,212.776,24.342,210.518,24.143ZM148.853,12.819a3.9,3.9,0,0,1-1.586.328c-.943,0-1.586-.443-1.586-1.8s.643-1.8,1.586-1.8a3.863,3.863,0,0,1,1.586.328V7.931a3.964,3.964,0,0,0-1.815-.359c-2.643,0-3.616,1.345-3.616,3.775s.972,3.772,3.616,3.772a3.992,3.992,0,0,0,1.815-.358ZM145.012,19.5l-2.287.615v1.472l-1.159.316v1.514h1.159v2.915c0,1.689.754,2.531,2.757,2.531a5.545,5.545,0,0,0,1.171-.143V26.937a3.347,3.347,0,0,1-.7.083c-.73,0-.943-.312-.943-.872v-2.73h1.771v-1.9h-1.771Zm-4.459,6.949V21.519h-2.274v5.245a1.95,1.95,0,0,0,2.2,2.015,3.964,3.964,0,0,0,.659-.057V26.878C140.681,26.878,140.552,26.721,140.552,26.451Zm8.373-5.647a1.359,1.359,0,1,0-1.355-1.358A1.34,1.34,0,0,0,148.925,20.8Zm-9.5,0a1.359,1.359,0,1,0-1.357-1.358A1.34,1.34,0,0,0,139.423,20.8Zm10.635,5.647V21.519h-2.273v5.245a1.948,1.948,0,0,0,2.2,2.015,3.9,3.9,0,0,0,.657-.057V26.878C150.184,26.878,150.057,26.721,150.057,26.451Zm14.59,1.213-2.758-.356c-.2-.029-.287-.116-.287-.258a.433.433,0,0,1,.1-.271,6.181,6.181,0,0,0,.728.027c2.215,0,3.217-.942,3.217-2.745a4.651,4.651,0,0,0-.074-.788l.86-.228V21.518H164.1a5.021,5.021,0,0,0-1.67-.2c-2.214,0-3.216.945-3.216,2.745a2.435,2.435,0,0,0,1.155,2.316,1.7,1.7,0,0,0-.755,1.226,1.246,1.246,0,0,0,.657,1.159,1.8,1.8,0,0,0-1.487,1.731c0,1.387,1.585,1.944,3.386,1.944,2.187,0,4.4-.743,4.4-2.674C166.576,28.607,166.147,27.867,164.648,27.664ZM162.433,23a.929.929,0,0,1,1.044,1.058,1.043,1.043,0,1,1-2.087,0A.927.927,0,0,1,162.433,23Zm-.016,7.72c-1.128,0-1.514-.329-1.514-.843a.831.831,0,0,1,.543-.731l2.473.315c.285.044.4.185.4.415C164.318,30.353,163.5,30.724,162.417,30.724Zm-6.631-9.406a4.882,4.882,0,0,0-2.486.714l-.289-.512h-1.371v7.146h2.288V23.547a2.5,2.5,0,0,1,1.271-.372c.617,0,.8.36.8.887v4.6h2.286V23.719C158.288,22.346,157.731,21.317,155.787,21.317Zm34.849,0a7.34,7.34,0,0,0-2.571.472V23.7a7.178,7.178,0,0,1,2.571-.54c.62,0,.845.169.845.5v.459l-1.3.129c-1.287.129-2.7.414-2.7,2.342a2.182,2.182,0,0,0,2.43,2.275,3.133,3.133,0,0,0,2.1-.744l.315.543H193.7V24.015C193.7,22.414,193.211,21.314,190.636,21.314Zm.845,5.633a1.467,1.467,0,0,1-1.028.341.785.785,0,0,1-.83-.842c0-.559.258-.873.9-.959l.958-.129Zm12.706-5.176a3.372,3.372,0,0,0-1.788-.457c-1.856,0-2.771,1.143-2.771,3.774s.915,3.773,2.771,3.773a3.3,3.3,0,0,0,2.315-.773l.388.572h1.372V17.939h-2.288Zm0,4.931a2.007,2.007,0,0,1-1.016.3c-1.057,0-1.285-.685-1.285-1.914s.228-1.917,1.285-1.917a2.007,2.007,0,0,1,1.016.3Zm-7.619-4.675-.286-.515h-1.372V28.66h2.29V23.615a2.636,2.636,0,0,1,1.511-.414,3.467,3.467,0,0,1,.7.057V21.414a1.889,1.889,0,0,0-.644-.1A3.259,3.259,0,0,0,196.567,22.028ZM117.24,29.064l.845-1.959a7.392,7.392,0,0,1-1.646-.644,8.378,8.378,0,0,0,1.416-4.943h-2.314a6.719,6.719,0,0,1-.945,3.729,11.737,11.737,0,0,1-1.872-1.9c1.429-.731,2.215-1.5,2.215-2.9,0-1.529-.614-2.7-2.788-2.7a2.773,2.773,0,0,0-2.944,2.93,5.118,5.118,0,0,0,.4,1.929,3.28,3.28,0,0,0-1.67,3.158c0,1.972,1.4,3.1,3.915,3.1a5.424,5.424,0,0,0,3.043-.9A16.641,16.641,0,0,0,117.24,29.064Zm-5.056-9.178c.456,0,.6.188.6.589,0,.571-.43.871-1.058,1.156a2.922,2.922,0,0,1-.2-.986C111.524,20.13,111.695,19.887,112.184,19.887Zm-.273,6.834c-.93,0-1.66-.388-1.66-1.3a1.338,1.338,0,0,1,.429-.985,12.44,12.44,0,0,0,2.173,2.159A3.408,3.408,0,0,1,111.911,26.721Zm22.667-4.69-.286-.512h-1.371v7.146h2.285V23.619a2.667,2.667,0,0,1,1.515-.414,3.591,3.591,0,0,1,.7.057V21.418a1.878,1.878,0,0,0-.643-.1A3.275,3.275,0,0,0,134.578,22.031Zm4.143-8.842a3.032,3.032,0,0,1-.7.086c-.728,0-.943-.315-.943-.871V9.674h1.771v-1.9h-1.771V5.757l-2.288.616V7.844l-1.156.315V9.674h1.156v2.917c0,1.686.758,2.53,2.761,2.53a5.322,5.322,0,0,0,1.171-.145ZM130.246,10.4c-.471-.043-.714-.13-.714-.5,0-.356.357-.5,1-.5a6.147,6.147,0,0,1,2.3.46V7.945a5.747,5.747,0,0,0-2.387-.371c-2.2,0-3.144.972-3.144,2.429,0,1.487.63,2.088,2.889,2.288.47.043.712.127.712.5s-.326.5-1.056.5a6.926,6.926,0,0,1-2.545-.543v1.917a6.506,6.506,0,0,0,2.6.456c2.415,0,3.231-1.058,3.231-2.428C133.134,11.2,132.5,10.6,130.246,10.4Zm-1.071,15.015-1.187-7.475h-3L123.8,25.419l-.87-7.475h-2.446l1.658,10.778h2.972l1.375-8.045,1.368,8.045h2.974l1.657-10.778h-2.443Z" transform="translate(-53.391 -2.483)"/></g></g><g transform="translate(670.5 1)"><g transform="translate(0 0)"><path class="a" d="M178.064,35l-.064.19C178.083,35.06,178.087,35,178.064,35Z" transform="translate(-110.507 -21.729)"/><path class="a" d="M168.19,45c-.129-.006-.125.072-.19.129A.546.546,0,0,0,168.19,45Z" transform="translate(-104.298 -27.937)"/><path class="a" d="M177,32l.021.026v-.019Z" transform="translate(-109.886 -19.866)"/><path class="a" d="M173,31.006l.013.013V31Z" transform="translate(-107.403 -19.246)"/><path class="a" d="M174,28c0,.013.008.025.013.038a.106.106,0,0,0,.028.063.5.5,0,0,0-.034-.082A.082.082,0,0,0,174,28Z" transform="translate(-108.023 -17.383)"/><path class="a" d="M178.021,34l-.015,0c0,.025-.006.049-.006.07C178.009,34.048,178.013,34.025,178.021,34Z" transform="translate(-110.507 -21.108)"/><path class="a" d="M173.019,33l-.019.108.01,0Z" transform="translate(-107.403 -20.487)"/><path class="a" d="M148.062,33a1.262,1.262,0,0,0-.063.358C148.019,33.25,148.055,33.079,148.062,33Z" transform="translate(-91.882 -20.487)"/><path class="a" d="M182,34c.034.3.147.843.18,1.138A7.676,7.676,0,0,0,182,34Z" transform="translate(-112.99 -21.108)"/><path class="a" d="M148.014,34.146,148.009,34C148,34.158,147.993,34.249,148.014,34.146Z" transform="translate(-91.882 -21.108)"/><path class="a" d="M172.078,35a.311.311,0,0,1-.078.19C172.095,35.179,172.1,35.034,172.078,35Z" transform="translate(-106.782 -21.729)"/><path class="a" d="M173,32.008l.038.072C173.024,32.042,173.03,31.978,173,32.008Z" transform="translate(-107.403 -19.866)"/><path class="a" d="M157,28l0,.032.011-.013Z" transform="translate(-97.469 -17.383)"/><path class="a" d="M155,50.758c.042-.159.1-.4.19-.758A6.014,6.014,0,0,0,155,50.758Z" transform="translate(-96.228 -31.041)"/><path class="a" d="M153,37l.057.089h.009Z" transform="translate(-94.986 -22.97)"/><path class="a" d="M160.135,6a.974.974,0,0,0,0,.185,1.36,1.36,0,0,1-.1.113c-.011.026-.022.053-.034.081C160.283,6.137,160.177,6.028,160.135,6Z" transform="translate(-99.332 -3.725)"/><path class="a" d="M157,28.019l.047.057C157.032,27.987,157.017,27.989,157,28.019Z" transform="translate(-97.469 -17.383)"/><path class="a" d="M153,35.006h0l.006,0,.011.01L153.011,35Z" transform="translate(-94.986 -21.729)"/><path class="a" d="M157,30l.042.18C157.04,30.038,157.025,30,157,30Z" transform="translate(-97.469 -18.625)"/><path class="a" d="M153,36.014l.072.053C153.042,36.036,153.011,35.972,153,36.014Z" transform="translate(-94.986 -22.35)"/><path class="a" d="M154.112,44.048c-.009.03.052.01.009.034,0,.015-.016-.012-.009-.034,0-.005,0-.012.005-.016s0,0,0-.005l-.041.005.005-.008c-.016,0-.046-.046-.068-.008l0-.014c-.008,0-.008.007-.013.011.052.06.1.119.149.177a.739.739,0,0,1,.04-.063c-.02-.027-.04-.055-.061-.079C154.122,44.044,154.116,44.042,154.112,44.048Z" transform="translate(-95.607 -27.316)"/><path class="a" d="M168.046,13.034l-.046.339C168.028,13.181,168.114,12.9,168.046,13.034Z" transform="translate(-104.298 -8.071)"/><path class="a" d="M168.008,14l-.008.049C168.017,14.065,168.03,14.078,168.008,14Z" transform="translate(-104.298 -8.692)"/><path class="a" d="M168.184,14.178h-.008A2.359,2.359,0,0,1,168,14l0,0C168.2,14.226,168.192,14.2,168.184,14.178Z" transform="translate(-104.298 -8.692)"/><path class="a" d="M155.057,44.038c-.04-.015-.015-.009-.017-.021a.069.069,0,0,0-.015-.017l-.025.038a.655.655,0,0,1,.049.053.3.3,0,0,1,.025-.036.2.2,0,0,1-.017-.021Z" transform="translate(-96.228 -27.316)"/><path class="a" d="M157.086,38c-.02-.017-.138.087-.059.178C157.118,38.233,157.065,38.053,157.086,38Z" transform="translate(-97.469 -23.591)"/><path class="a" d="M186,99c.14.155.268.219.232.177C186.209,99.205,186.285,99.07,186,99Z" transform="translate(-115.473 -61.462)"/><path class="a" d="M171,46c-.006,0,0,.009,0,.017s0-.013,0-.017Z" transform="translate(-106.161 -28.558)"/><path class="a" d="M170.032,7.006A.162.162,0,0,1,170,7c0,.006.006.017.008.021C170.038,7.006,169.964,7.017,170.032,7.006Z" transform="translate(-105.54 -4.346)"/><path class="a" d="M171.011,46H171v.017h.005C171.006,46,171.006,46,171.011,46Z" transform="translate(-106.161 -28.558)"/><path class="a" d="M154,38a.341.341,0,0,1,.093.19C154.156,38.135,154.049,38.015,154,38Z" transform="translate(-95.607 -23.591)"/><path class="a" d="M172,17c.13.069.244.127.357.183l.022.006C172.319,17.152,172.107,17.051,172,17Z" transform="translate(-106.782 -10.554)"/><path class="a" d="M168,15l.095.066L168,15Z" transform="translate(-104.298 -9.312)"/><path class="a" d="M184,90c.075.176.116.262.067.114A.387.387,0,0,1,184,90Z" transform="translate(-114.232 -55.874)"/><path class="a" d="M164.175,1c-.009.009-.018,0-.029.011a1.13,1.13,0,0,0-.146.137C164.189,1.039,164.237.982,164.175,1Z" transform="translate(-101.815 -0.621)"/><path class="a" d="M185.109,97.357a.5.5,0,0,0,.27.4c-.244-.224-.24-.515-.357-.724C184.966,96.921,185.024,97.106,185.109,97.357Z" transform="translate(-114.852 -60.22)"/><path class="a" d="M154.049,83c-.008.025-.023.044-.03.068s-.011.038-.019.06C154.015,83.083,154.032,83.042,154.049,83Z" transform="translate(-95.607 -51.528)"/><path class="a" d="M152,95a4.271,4.271,0,0,0,.125.758A1.081,1.081,0,0,0,152,95Z" transform="translate(-94.365 -58.978)"/><path class="a" d="M168,3l.027.051.085.085Z" transform="translate(-104.298 -1.862)"/><path class="a" d="M154,83.138c.066-.225.136-.448.21-.669l.013-.039c.014-.039.027-.077.04-.115a.015.015,0,0,0,0-.009c0-.012.006-.024.01-.035a.344.344,0,0,1,.024-.059l.045-.127c.01-.029.02-.056.03-.084A5.152,5.152,0,0,0,154,83.109Z" transform="translate(-95.607 -50.908)"/><path class="a" d="M152.053,97a.3.3,0,0,0-.053.034c.008.045.009.1.015.144Z" transform="translate(-94.365 -60.22)"/><path class="a" d="M186.012,99.008l.008,0A.032.032,0,0,0,186,99,.02.02,0,0,1,186.012,99.008Z" transform="translate(-115.473 -61.462)"/><path class="a" d="M148.1,98a.474.474,0,0,1-.061.038.6.6,0,0,1-.036.074A.578.578,0,0,0,148.1,98Z" transform="translate(-91.882 -60.841)"/><path class="a" d="M148.083,98a.449.449,0,0,1-.083.174C148.152,98.072,148.214,98.007,148.083,98Z" transform="translate(-91.882 -60.841)"/><path class="a" d="M160,67.19c.008-.018.019-.034.027-.051.019-.048.043-.092.064-.139Z" transform="translate(-99.332 -41.595)"/><path class="a" d="M169.067,7.19c.069-.021.108-.036.131-.042A.983.983,0,0,1,169,7C169.017,7.056,169.039,7.118,169.067,7.19Z" transform="translate(-104.919 -4.346)"/><path class="a" d="M169.178,4.014a1.449,1.449,0,0,0-.126-.907c-.2-.509.257.97.051.8.156.109-.268.369.054.606C169.044,4.245,169.2,4.232,169.178,4.014Z" transform="translate(-104.919 -1.862)"/><path class="a" d="M147,99.02s0,.008,0,.012a1.252,1.252,0,0,0,.107.22.842.842,0,0,1-.07-.251C147.034,99.008,147.021,99.016,147,99.02Z" transform="translate(-91.261 -61.462)"/><path class="a" d="M162,51.06l.19.228A1.51,1.51,0,0,0,162,51Z" transform="translate(-100.573 -31.662)"/><path class="a" d="M1,18.446H2.033V12.965h1V12H0v.965H1Z" transform="translate(0 -7.45)"/><path class="a" d="M11.114,15.589H12.3v2.857h1.113V12H12.3v2.626H11.114V12H10v6.446h1.114Z" transform="translate(-6.208 -7.45)"/><path class="a" d="M22.088,15.589h1.4v-.963h-1.4V12.965h1.823V12H21v6.446h3.033v-.964H22.088Z" transform="translate(-13.037 -7.45)"/><path class="a" d="M8.386,43.834c0,1.345-.523,2.006-1.646,2.006s-1.646-.661-1.646-2.006V30H2V43.707c0,3.148,1.8,4.873,4.74,4.873s4.74-1.725,4.74-4.873V30H8.386Z" transform="translate(-1.242 -18.625)"/><path class="a" d="M39.685,40.412h-.049L35.869,30H33V48.2h2.794V36.831h.049L39.784,48.2h2.695V30H39.685Z" transform="translate(-20.487 -18.625)"/><path class="a" d="M67.59,30H63V48.2h4.59c3.193,0,4.889-1.765,4.889-5.5V35.5C72.479,31.765,70.784,30,67.59,30Zm1.8,13.084c0,1.915-.574,2.545-2.221,2.545H66.093V32.572h1.073c1.647,0,2.221.63,2.221,2.545Z" transform="translate(-39.112 -18.625)"/><path class="a" d="M97.125,40.134h4.033V37.411H97.125V32.723h5.243V30H94V48.2h8.721V45.478h-5.6Z" transform="translate(-58.357 -18.625)"/><path class="a" d="M128.563,39.958c1.07-.479,2.216-1.664,2.216-4.588,0-3.882-1.809-5.37-5.348-5.37H121V48.2h3.158V40.739a15.5,15.5,0,0,0,1.63-.076l2.241,7.537h3.209Zm-3.285-1.79h-1.121v-5.6h1.121c1.707,0,2.343.63,2.343,2.8S126.985,38.168,125.279,38.168Z" transform="translate(-75.12 -18.625)"/><path class="a" d="M254.087,84.59h1.4v-.964h-1.4V81.965h1.824V81H253v6.446h3.033v-.964h-1.946Z" transform="translate(-157.068 -50.287)"/><path class="a" d="M265.655,81h-1.112l-.628,2.045H263.9L263.2,81h-1.114l1.2,3.072L262,87.446h1.111L263.9,85.1h.019l.766,2.347h1.111l-1.277-3.374Z" transform="translate(-162.656 -50.287)"/><path class="a" d="M275.509,81H274v6.446h1.051V84.8h.458c1.3,0,1.9-.526,1.9-1.9S276.809,81,275.509,81Zm-.049,2.893h-.408V81.911h.408c.687,0,.9.224.9.991S276.147,83.893,275.459,83.893Z" transform="translate(-170.106 -50.287)"/><path class="a" d="M286.086,84.59h1.4v-.964h-1.4V81.965h1.824V81H285v6.446h3.033v-.964h-1.947Z" transform="translate(-176.935 -50.287)"/><path class="a" d="M298.26,82.9c0-1.374-.6-1.9-1.782-1.9H295v6.446h1.053V84.8a5.128,5.128,0,0,0,.542-.025l.748,2.668h1.07l-.891-2.919C297.877,84.356,298.26,83.937,298.26,82.9Zm-1.834.991h-.373V81.911h.373c.569,0,.781.224.781.991S296.994,83.893,296.426,83.893Z" transform="translate(-183.143 -50.287)"/><path class="a" d="M305,81.965h1v5.481h1.035V81.965h1V81H305Z" transform="translate(-189.351 -50.287)"/><path class="a" d="M195.649,41.6h-.05L193.485,30h-2.567l-2.038,11.6h-.05L186.917,30H184l3.447,18.2h2.616l2.114-12.024h.05L194.491,48.2h2.618L200.3,30h-2.919Z" transform="translate(-114.232 -18.625)"/><path class="a" d="M239.721,45.478h-5.6V40.134h4.033V37.412h-4.033V32.723h5.242V30H231V48.2h8.721Z" transform="translate(-143.41 -18.625)"/><path class="a" d="M259.361,30,256,48.2h3.033l.556-4.034h3.439l.556,4.034h3.033L263.254,30Zm.683,11.445,1.239-7.815h.052l1.238,7.815Z" transform="translate(-158.931 -18.625)"/><path class="a" d="M290.159,40.738a15.55,15.55,0,0,0,1.63-.074L294.03,48.2h3.208l-2.673-8.243c1.069-.479,2.215-1.663,2.215-4.588,0-3.882-1.807-5.37-5.349-5.37H287V48.2h3.159Zm0-8.168h1.121c1.705,0,2.343.631,2.343,2.8s-.637,2.8-2.343,2.8h-1.121Z" transform="translate(-178.176 -18.625)"/><path class="a" d="M154.188,31l-.015.006c-.045.03-.111.108-.117.047a.137.137,0,0,0-.05.056c-.015.03,0,.053.01.08l.022-.022c.017-.019.036-.04.057-.062s.06-.067.094-.105Z" transform="translate(-95.607 -19.246)"/><path class="a" d="M155.016,31.19c.032-.036.064-.071.1-.11-.025-.017-.044-.068-.064-.08-.095.072-.019.123-.032.187Z" transform="translate(-96.228 -19.246)"/><path class="a" d="M155.087,31.011,155.074,31c-.015.044-.042.1-.07.163a.011.011,0,0,1,0,.009h0C155.028,31.119,155.057,31.068,155.087,31.011Z" transform="translate(-96.228 -19.246)"/><path class="a" d="M173,40.006v.006s0,0,0,0V40S173,40,173,40.006Z" transform="translate(-107.403 -24.833)"/><path class="a" d="M173.091,41.054c-.008,0-.008,0-.011,0v.019c-.017.03,0-.083-.08-.069a.239.239,0,0,0,.117.185s0,0,0,0c-.008-.045-.02-.088-.025-.133C173.1,41.054,173.091,41.054,173.091,41.054Z" transform="translate(-107.403 -25.454)"/><path class="a" d="M153.085,35c-.007.005-.016.006-.022.012a.308.308,0,0,0-.043.023l-.02.013.109.084.08.058c-.019-.031-.038-.065-.056-.1S153.1,35.031,153.085,35Z" transform="translate(-94.986 -21.729)"/><path class="a" d="M148.058,94.494c-.017.091-.037.177-.058.265.072-.265.137-.521.19-.758A2.83,2.83,0,0,0,148.058,94.494Z" transform="translate(-91.882 -58.357)"/><path class="a" d="M160.182,6h0a1.524,1.524,0,0,1-.178.371,2.328,2.328,0,0,0,.19-.141A.817.817,0,0,1,160.182,6Z" transform="translate(-99.332 -3.725)"/><path class="a" d="M154.084,38.047A.151.151,0,0,1,154,38c.03.091.148.136.19.19Z" transform="translate(-95.607 -23.591)"/><path class="a" d="M155.028,38a.07.07,0,0,1-.028.074.383.383,0,0,0,.157.116Z" transform="translate(-96.228 -23.591)"/><path class="a" d="M169.038,11a.951.951,0,0,1-.038.125c.012-.038.023-.082.038-.123Z" transform="translate(-104.919 -6.829)"/><path class="a" d="M170,8.379c.028-.059.051-.116.073-.171a.577.577,0,0,0,.117-.2s-.009,0-.009-.006c-.034.027-.085.078-.152.141A.865.865,0,0,0,170,8.379Z" transform="translate(-105.54 -4.967)"/><path class="a" d="M185.209,94.566A2.058,2.058,0,0,0,185,94c.06.173.165.476.245.758C185.232,94.694,185.218,94.632,185.209,94.566Z" transform="translate(-114.852 -58.357)"/><path class="a" d="M157.027,39.14l0-.02c.02-.028-.019.081.068.069A.193.193,0,0,0,157,39c0,.041,0,.085,0,.13C157.013,39.133,157.017,39.138,157.027,39.14Z" transform="translate(-97.469 -24.212)"/><path class="a" d="M171.19,66.379c-.044-.1-.113-.236-.19-.379C171.065,66.123,171.126,66.25,171.19,66.379Z" transform="translate(-106.161 -40.974)"/><path class="a" d="M176.7,31.922c-.042-.1-.17-.164-.206-.268l.014-.009.021-.011c0-.005-.006-.005-.007-.009a.09.09,0,0,0-.015-.019l-.006-.007c-.05-.046-.065.024-.145-.079.032.018.032,0,.022-.022a.574.574,0,0,0-.031-.063l-.007,0a.126.126,0,0,1-.025-.014.467.467,0,0,1-.1-.084.561.561,0,0,1-.093-.137c.016.015.031.033.049.052a.18.18,0,0,0,.066.052c-.028-.034-.058-.091-.091-.132a.145.145,0,0,0-.055-.051v.008A.641.641,0,0,1,176,31c.065.118.131.231.2.326l.042.057a.078.078,0,0,1,.03.04c.012.015.025.034.037.049l.025.03c.059.067.206.237.229.262a.634.634,0,0,1,.09.125.335.335,0,0,1,.043.2.067.067,0,0,1,.01-.026.154.154,0,0,1,0,.073c.02-.006.04-.048.052-.085,0-.007,0-.016,0-.024l-.041-.007A.169.169,0,0,0,176.7,31.922Z" transform="translate(-109.265 -19.246)"/><path class="a" d="M174,28c.039.043.034.065.052.1a.1.1,0,0,0-.029-.006c.013.049.025.1.041.147s.038.121.058.183.049.137.074.21l.046.128c.013,0,.023-.017.02-.042a.529.529,0,0,0-.024-.124c-.034-.043-.08-.019-.072-.118.015.021.028.075.041.055a.556.556,0,0,1-.054-.115c-.013-.046-.023-.09-.034-.135A.44.44,0,0,0,174,28Z" transform="translate(-108.023 -17.383)"/><path class="a" d="M155.091,39.05l.034.027c-.039.067-.153-.173-.118-.031a1.668,1.668,0,0,1,.134.145l-.03.008c.089.076.2.04.269.18-.008-.014-.008-.023,0-.029-.02-.023-.039-.044-.06-.07-.055-.068-.113-.144-.171-.224C155.125,39.052,155.106,39.052,155.091,39.05Z" transform="translate(-96.228 -24.212)"/><path class="a" d="M170.113,4.379a.656.656,0,0,0,.019-.125A2.673,2.673,0,0,0,170,4,1.271,1.271,0,0,1,170.113,4.379Z" transform="translate(-105.54 -2.483)"/><path class="a" d="M170.071,7a.314.314,0,0,0-.071.009c.019.025.034.044.057.068V7.066Z" transform="translate(-105.54 -4.346)"/><path class="a" d="M147.123,35.114A.464.464,0,0,1,147.09,35c-.064.114-.123.237-.07.258C147.062,35.206,147.09,35.161,147.123,35.114Z" transform="translate(-91.261 -21.729)"/><path class="a" d="M148,35.017v.013c0-.009,0-.019.006-.03C148,35,148,35.012,148,35.017Z" transform="translate(-91.882 -21.729)"/><path class="a" d="M177.08,35l-.08.138,0,.009C177.116,35.08,177.089,35.042,177.08,35Z" transform="translate(-109.886 -21.729)"/><path class="a" d="M155.19,82a.27.27,0,0,0-.107.053c-.029.046-.055.089-.083.136A1.162,1.162,0,0,1,155.19,82Z" transform="translate(-96.228 -50.908)"/><path class="a" d="M157.1,31.189a.069.069,0,0,0,.049-.034.127.127,0,0,0-.025-.076A.4.4,0,0,0,157,31c.019.063.038.126.055.188C157.061,31.183,157.082,31.192,157.1,31.189Z" transform="translate(-97.469 -19.246)"/><path class="a" d="M156.047,27c-.017.04-.032.08-.047.118a.146.146,0,0,0,.011.053C156.025,27.114,156.038,27.057,156.047,27Z" transform="translate(-96.849 -16.762)"/><path class="a" d="M152.692,82.161c0,.01-.005.02-.009.03a.014.014,0,0,1,0,.008c-.013.033-.025.065-.038.1l-.012.034c0-.009.007-.016.009-.025-.005.015-.011.03-.016.046,0-.008,0-.015.006-.022-.07.191-.137.384-.2.579l.012.075A10.027,10.027,0,0,0,152,85.033a25.94,25.94,0,0,1,.683-2.838,1.166,1.166,0,0,1,.076-.2l-.043.11A.289.289,0,0,0,152.692,82.161Z" transform="translate(-94.365 -50.908)"/><path class="a" d="M157.019,31.136c.017-.008.025-.038.009-.115-.009-.006-.017-.017-.028-.021C157.008,31.047,157.013,31.095,157.019,31.136Z" transform="translate(-97.469 -19.246)"/><path class="a" d="M149.308,91c-.09.331-.343.679-.3,1.028a.331.331,0,0,0,.02.079c.023-.17.038-.318.043-.444a1.984,1.984,0,0,1-.013.474C149.141,91.728,149.231,91.327,149.308,91Z" transform="translate(-92.503 -56.495)"/><path class="a" d="M147.19,96.333c.024-.112.049-.223.073-.333-.019.1-.041.192-.067.289a1.452,1.452,0,0,1-.2.47A.545.545,0,0,0,147.19,96.333Z" transform="translate(-91.261 -59.599)"/><path class="a" d="M182.1,31.4c-.021-.069-.051-.194-.1-.4.077.395.145.813.19,1.138C182.16,31.893,182.134,31.651,182.1,31.4Z" transform="translate(-112.99 -19.246)"/><path class="a" d="M146.2,98c-.159.064-.221.089-.189.273a.249.249,0,0,0,.049.106c-.006-.031-.012-.063-.016-.095C146,98.163,146.08,98.081,146.2,98Z" transform="translate(-90.64 -60.841)"/><path class="a" d="M170.037,7.093c.037.075.09.169.161.287,0,0,0,0,0-.006a.526.526,0,0,0-.074-.34A.136.136,0,0,0,170.052,7l-.008.037s-.008-.006-.013-.012l0,.018L170,7.017c.008.02.022.044.034.069l.013,0C170.019,7.091,170.049,7.088,170.037,7.093Z" transform="translate(-105.54 -4.346)"/><path class="a" d="M182,36.138a.29.29,0,0,0,.15-.181c.112-.311-.045-.618-.106-.957.015.124.025.223.025.28A.747.747,0,0,1,182,36.138Z" transform="translate(-112.99 -21.729)"/><path class="a" d="M177.08,58.19a.144.144,0,0,1-.006-.028c-.021-.053-.047-.106-.074-.162C177.028,58.064,177.053,58.125,177.08,58.19Z" transform="translate(-109.886 -36.008)"/><path class="a" d="M174.138,50.792c-.03-.115-.06-.239-.092-.379-.13-.552-.254-.647-.5-1.53a9.715,9.715,0,0,1-.411-1.6c-.007-.041-.012-.078-.016-.114-.011-.072-.023-.122-.03-.17a.326.326,0,0,1-.086.031,0,0,0,0,1,0,0,7.771,7.771,0,0,0,.276,1.267l-.054-.081C173.535,49.281,173.814,49.652,174.138,50.792Z" transform="translate(-107.403 -29.179)"/><path class="a" d="M148,95.379c.052-.116.118-.246.19-.379A.883.883,0,0,0,148,95.379Z" transform="translate(-91.882 -58.978)"/><path class="a" d="M161,10a.567.567,0,0,1,.042.144,1.38,1.38,0,0,1,.148.006A.634.634,0,0,0,161,10Z" transform="translate(-99.953 -6.208)"/><path class="a" d="M159.05,63.537c-.012.043-.022.079-.032.118.013-.042.024-.08.039-.129.115-.358.236-.71.376-1.054a8.2,8.2,0,0,1,.491-1.008,3.246,3.246,0,0,0,.215-.463c-.088.166-.273.546-.527,1.034A7.822,7.822,0,0,0,159.05,63.537Z" transform="translate(-98.711 -37.87)"/><path class="a" d="M162.891.007a3.268,3.268,0,0,0-.808.234A.275.275,0,0,0,162,.314a2.432,2.432,0,0,1,1.138-.3A.66.66,0,0,0,162.891.007Z" transform="translate(-100.573 0)"/><path class="a" d="M160.093,7.1c0-.037-.011-.069-.017-.1a.319.319,0,0,1-.074.156l0,0a.158.158,0,0,1,.006.031C160.032,7.16,160.066,7.134,160.093,7.1Z" transform="translate(-99.332 -4.346)"/><path class="a" d="M149.165,90a1.194,1.194,0,0,1-.165.379l.138-.208C149.148,90.112,149.156,90.056,149.165,90Z" transform="translate(-92.503 -55.874)"/><path class="a" d="M157.642,69.245A7.553,7.553,0,0,1,157,70.517c.114-.168.237-.336.345-.506a2.423,2.423,0,0,0,.2-.382c.056-.135.095-.238.126-.325s.059-.174.085-.255h0C157.725,69.132,157.823,68.783,157.642,69.245Z" transform="translate(-97.469 -42.837)"/><path class="a" d="M157,74.379a.08.08,0,0,1,.005-.016,2.171,2.171,0,0,1,.13-.279A.883.883,0,0,1,157.19,74a1.271,1.271,0,0,0-.163.283A.348.348,0,0,0,157,74.379Z" transform="translate(-97.469 -45.941)"/><path class="a" d="M169.185,3.758c0-.043.006-.089,0-.134A1.341,1.341,0,0,0,169,3a1.487,1.487,0,0,1,.182.724C169.184,3.737,169.184,3.746,169.185,3.758Z" transform="translate(-104.919 -1.862)"/><path class="a" d="M156.019,77a2.454,2.454,0,0,0,.019.757v0a2.184,2.184,0,0,0,.027-.452c-.006-.112-.023-.193-.032-.265A.263.263,0,0,0,156.019,77Z" transform="translate(-96.849 -47.803)"/><path class="a" d="M152.008,42.032a6.074,6.074,0,0,1,.465.483,2.926,2.926,0,0,1,.285.243C152.4,42.368,151.932,41.869,152.008,42.032Z" transform="translate(-94.365 -26.075)"/><path class="a" d="M148.064,28.134c-.025.052-.04.108-.064.159.046-.1.089-.2.136-.294C148.114,28.045,148.085,28.089,148.064,28.134Z" transform="translate(-91.882 -17.383)"/><path class="a" d="M148.08,32c-.023.066-.057.13-.08.2l.011.033C148.028,32.161,148.055,32.08,148.08,32Z" transform="translate(-91.882 -19.866)"/><path class="a" d="M148,30.138c.055-.383.117-.764.19-1.138C148.11,29.42,148.041,29.818,148,30.138Z" transform="translate(-91.882 -18.004)"/><path class="a" d="M172.872,66.147c-.088-.214-.178-.423-.248-.641a1.475,1.475,0,0,1,.029.174c-.167-.392-.222-.708-.467-1.2.235-.6-.363-1.014-.47-2.1a20.533,20.533,0,0,0-.744-4.6,7.293,7.293,0,0,1-1.211-4.494,15.654,15.654,0,0,0-1.285-4.47c-.122-.6-.565-1.141-.475-1.82a1.387,1.387,0,0,0-.255.052c-.072.052-.045.082-.166.141-.041,0-.033-.034-.195.049-.006.016.055-.006.105-.016a6.894,6.894,0,0,0-1,.6c.14-.136-.082.017-.08-.012l-.281.237c.071-.072.262-.232.4-.373-.027.008-.034,0-.035-.016a3.329,3.329,0,0,0-.824.787c-.027.049-.056.1-.084.143.017-.029.03-.059.046-.089a3.081,3.081,0,0,0-.336.645c-.143.364-.168.652-.3.759.014.016.03.028.045.047.287.41.5.927,1.03,1.845-.082-.143-.175-.3-.27-.463l.262.487c.125.237.279.46.413.7a4.008,4.008,0,0,1,.366.685c.05.11.109.253.19.457.064.159.121.333.179.513.008.026.016.052.025.078.163.491.3.991.479,1.475.059.184.041.189-.019.061.06.167.121.327.19.476.062.132.134.257.206.379.027.034.047.057.061.062a4.783,4.783,0,0,1,.352.711,1.667,1.667,0,0,1,.108.441,4.938,4.938,0,0,0,.324,1.4.678.678,0,0,0,.033.079c.038.081.081.168.133.267.091.139.2.269.3.422a6.251,6.251,0,0,1,.62,1.081l.2.485h0a.117.117,0,0,0,.008.017,12.583,12.583,0,0,1,.46,1.252,2.3,2.3,0,0,1,.086.46c.016.2-.043.2-.023.6.011.229.155.44.179.668a2.679,2.679,0,0,1-.044.552c-.033.3-.1.3.114.5.036.034,0,.1-.007.152a.211.211,0,0,1,.019.076v0a.4.4,0,0,1,.065.189,1.071,1.071,0,0,0-.019.408c.086.437.137.43.575.507a7.03,7.03,0,0,0,.739.127,1.905,1.905,0,0,0,.916-.333c.02-.01.03-.016.028-.059,0-.135.053-.214-.05-.307C173.083,66.217,173.006,66.48,172.872,66.147Zm.1.27h0l0,0c-.132-.071-.272-.184-.269-.335-.084-.21-.142-.365-.086-.269.117.174.113.417.355.6a.011.011,0,0,1,.007,0c.263.03.193.088.214.076C173.222,66.51,173.1,66.483,172.975,66.416Z" transform="translate(-102.436 -29.179)"/><path class="a" d="M148,32.758a.859.859,0,0,1,.124-.1A5.82,5.82,0,0,1,148.19,32C148.119,32.253,148.053,32.507,148,32.758Z" transform="translate(-91.882 -19.866)"/><path class="a" d="M164.068,1c-.025,0-.042.011-.068.011.027-.009.047,0,.07-.011C164.066,1,164.074,1,164.068,1Z" transform="translate(-101.815 -0.621)"/><path class="a" d="M149.247,24.163c.325-.8.428-.891.512-1.163-.129.274-.3.526-.422.8A4.737,4.737,0,0,0,149,24.9C149.1,24.49,149.37,23.691,149.247,24.163Z" transform="translate(-92.503 -14.279)"/><path class="a" d="M152.379,19a1.492,1.492,0,0,0-.146.213,2.075,2.075,0,0,0-.108.229c-.042.109-.084.213-.125.316a2.253,2.253,0,0,0,.182-.385A3.133,3.133,0,0,1,152.379,19Z" transform="translate(-94.365 -11.796)"/><path class="a" d="M150.038,85.758c0-.284-.015-.515-.023-.758,0,.022-.008.046-.009.068A4.437,4.437,0,0,0,150.038,85.758Z" transform="translate(-93.123 -52.77)"/><path class="a" d="M161.105,10.2c-.055-.059.009-.128-.035-.2-.026.019-.1.044-.059.054a.032.032,0,0,0-.007.008,1.28,1.28,0,0,1,.022.158c.006.044.013.1.021.157a.284.284,0,0,0,.008.036v.014h0c0,.02,0,.036.006.057,0,.043.012.107.019.185s.013.152.02.238a1.855,1.855,0,0,1,.04.506c0,.036,0,.072.008.1C161.276,11.085,161.063,10.518,161.105,10.2Z" transform="translate(-99.953 -6.208)"/><path class="a" d="M161.006,14a.067.067,0,0,1-.006.023s0-.009.006-.009Z" transform="translate(-99.953 -8.692)"/><path class="a" d="M157.9,14a.541.541,0,0,1-.1.118.55.55,0,0,1-.124.091,1.612,1.612,0,0,1-.178.1l-.022.011-.1.058c-.106.066-.22.134-.342.205a5.154,5.154,0,0,1-.64.334h0c-.091.057-.423.21-.382.222a8.272,8.272,0,0,0,1.674-.885A.582.582,0,0,0,157.9,14Z" transform="translate(-96.848 -8.692)"/><path class="a" d="M161,14.19a.753.753,0,0,0,.148-.19A1.049,1.049,0,0,1,161,14.19Z" transform="translate(-99.953 -8.692)"/><path class="a" d="M183.027,80.19c-.009-.072-.019-.135-.027-.19.005.049.009.1.017.161A.086.086,0,0,0,183.027,80.19Z" transform="translate(-113.611 -49.666)"/><path class="a" d="M154.379,47c0,.007,0,.012,0,.019-.068.358-.149.7-.251,1.049a3.092,3.092,0,0,0-.124.7,1.352,1.352,0,0,0,.061-.224,5.668,5.668,0,0,1,.136-.63c-.062.3-.105.5-.136.63s-.029.248-.035.347A14.218,14.218,0,0,0,154.379,47Z" transform="translate(-95.607 -29.179)"/><path class="a" d="M183.283,88.89a1.715,1.715,0,0,1-.166-.421c0-.011-.009-.022-.011-.034-.05-.207-.115-.482-.1-.43a4.6,4.6,0,0,0,.34,1.123,1.31,1.31,0,0,1,.009.387.9.9,0,0,0,.029-.178,1.254,1.254,0,0,0-.025-.26A.637.637,0,0,0,183.283,88.89Zm-.149-.343a.289.289,0,0,0,.02.06C183.168,88.685,183.156,88.64,183.133,88.547Z" transform="translate(-113.611 -54.632)"/><path class="a" d="M152.129,48.878a.074.074,0,0,1-.011-.013s0,0,0,0a3.462,3.462,0,0,0-1.087-1.134A10.514,10.514,0,0,0,149.547,47c-.02.658-.4,1.247-.4,1.825a10.91,10.91,0,0,1-.469,1.8,12.212,12.212,0,0,0-.148,3.107c-.121-.467.111.98-.031,1.575,0-.018,0-.038,0-.057a15.694,15.694,0,0,1-.965,2.929,28.389,28.389,0,0,0-.289,3.541c0-.462-.033-.451-.04.137a2.1,2.1,0,0,0,.065.443l-.044.573c.144-.406-.127,1.13-.3,1.366a1.737,1.737,0,0,1-.149.907,4.662,4.662,0,0,1-.356,1.145.179.179,0,0,0,.023-.014.175.175,0,0,0,.031-.065c.049,0,.025.027-.031.065a.206.206,0,0,1-.036.042.16.16,0,0,0,.014-.028,1.274,1.274,0,0,0-.38.325l0,.01a.033.033,0,0,0,0-.008.229.229,0,0,0,0,.257c.008.026.01.027.011.016a.135.135,0,0,1,0,.019.671.671,0,0,0,.209.117,2.661,2.661,0,0,0,1.393-.076,1,1,0,0,0,.207-.072.729.729,0,0,0,.152-.453c-.023-.051-.141-.523.129-.6a.6.6,0,0,0,.085-.055.025.025,0,0,1,0,.008.119.119,0,0,1,.02-.013l-.014.067c0-.017,0-.037-.006-.054a.489.489,0,0,0-.182.634.8.8,0,0,1-.017.26c-.009.023-.015.065-.031.117a.373.373,0,0,0,.083-.121.63.63,0,0,0,.033-.32c-.011-.105-.044-.211.031-.291.193-.21.146-.168.167-.606.016-.343-.186-.552-.1-.911a2.3,2.3,0,0,0,.062-.435c.008-.172-.052-.349-.033-.521a9.549,9.549,0,0,0-.067,1.456,1.768,1.768,0,0,1,.047.61c-.023-.2-.041-.4-.047-.61a1.413,1.413,0,0,1-.063-.207,9.62,9.62,0,0,1,.652-3.55l0-.026a4.06,4.06,0,0,1,.427-1c.024-.055.046-.108.071-.161.054.035.337-.536.341-.552a3.234,3.234,0,0,1-.437.819c.066-.087.156-.2.23-.3a1.191,1.191,0,0,0,.088-.144,2.482,2.482,0,0,0,.248-.85h0c-.013.072-.033.166-.063.295a2.987,2.987,0,0,0,0-1.144l.014-.048a2.544,2.544,0,0,1,.138-.681,13.359,13.359,0,0,0,1.085-2.678c0,.01-.007.019-.01.03l.034-.111c-.008.027-.017.053-.024.081a16.922,16.922,0,0,1,.817-2.019l.241-.43c.108-.293.215-.6.307-.9-.085.293-.166.567-.206.721.087-.248.164-.5.265-.748a1.291,1.291,0,0,0,.154-.706,1.412,1.412,0,0,0-.066.452c-.023-.465.154-1.063.41-1.193A11.873,11.873,0,0,1,152.129,48.878ZM146.04,66.647s0-.008,0-.011a.024.024,0,0,0,.013-.018,1.712,1.712,0,0,0,.026.229C146.06,66.771,146.048,66.7,146.04,66.647Zm5.975-17.809v-.055a1.4,1.4,0,0,1,.156.262Z" transform="translate(-90.64 -29.179)"/><path class="a" d="M152.307,54.332a12.742,12.742,0,0,0-.217,1.706c-.058.776.014,1.507.036,2.526a5.008,5.008,0,0,1-.006.608c-.042.4-.08.661-.119.9a5.707,5.707,0,0,0,.16-1.354c-.02-.4-.045-.434-.052-.937a15.655,15.655,0,0,1,.261-3.658l0,.017a1.088,1.088,0,0,0,.013-.135C152.358,54.1,152.335,54.21,152.307,54.332Z" transform="translate(-94.365 -33.524)"/><path class="a" d="M150.175,82.969a2.184,2.184,0,0,0-.06-.969c-.022.262-.054.521-.085.784a4.223,4.223,0,0,0,.019,1.112,7.2,7.2,0,0,1,.059-1.137C150.13,82.83,150.063,83.687,150.175,82.969Z" transform="translate(-93.124 -50.908)"/><path class="a" d="M151.051,71.307l.06-.165c.036-.15.031-.159.014-.128-.03.108-.061.213-.094.325a1.457,1.457,0,0,1-.148.32c-.05.083-.1.168-.144.252.031-.024.125-.165-.2.432,0-.026,0-.043,0-.062A5.657,5.657,0,0,0,150,74.033a7.362,7.362,0,0,1,.655-1.807A9.2,9.2,0,0,0,151.051,71.307Z" transform="translate(-93.124 -44.078)"/><path class="a" d="M153.053,65.165c-.021-.052-.034-.11-.053-.165C153.021,65.143,153.036,65.237,153.053,65.165Z" transform="translate(-94.986 -40.354)"/><path class="a" d="M153.159,34.162a.7.7,0,0,1-.017-.117.026.026,0,0,0-.027.016l0,.005.02.074c-.056-.015-.018-.087-.053-.14-.035.021-.025.076-.009.133-.055.013-.02-.1-.045-.118-.006,0-.011,0-.023,0-.022.132,0,.183.039.19h0l0,0,0,.007c.044.015.094.012.135.064C153.177,34.234,153.168,34.2,153.159,34.162Z" transform="translate(-94.986 -21.108)"/><path class="a" d="M155.048,28.324c.024-.049.047-.1.069-.149s.052-.115.074-.173c0,0,0,0-.014,0a.294.294,0,0,1-.071.16c-.06.082-.129.157-.1.219l.025-.068C155.035,28.317,155.041,28.321,155.048,28.324Z" transform="translate(-96.228 -17.383)"/><path class="a" d="M156.03,27a.4.4,0,0,0-.03.057l.011.04C156.017,27.063,156.023,27.032,156.03,27Z" transform="translate(-96.849 -16.762)"/><path class="a" d="M155.1,29.556c.011-.028.021-.059.032-.089a.02.02,0,0,0,0-.005.153.153,0,0,0,.008-.02c.005-.017.011-.032.018-.052s.006-.014.008-.022v0a.233.233,0,0,0,.008-.028c.023-.07.045-.144.064-.226-.016,0-.034.008-.062.079.007-.012,0-.018.005-.028s0,0,0,0a.59.59,0,0,1,.012-.071.552.552,0,0,1-.024-.087.034.034,0,0,1,0-.009.7.7,0,0,0-.016.108c0,.015,0,.032-.006.047,0,.046-.008.09-.012.134a1.006,1.006,0,0,1-.022.116l0,0a.437.437,0,0,1-.036.1l.042-.017c-.018.005-.028.024-.037.049-.025.071-.028.191-.081.2.013-.009.018,0,.022.023C155.048,29.7,155.074,29.63,155.1,29.556Z" transform="translate(-96.228 -18.004)"/><path class="a" d="M154,32.167,154.1,32a.138.138,0,0,0-.095.063A.385.385,0,0,0,154,32.167Z" transform="translate(-95.607 -19.866)"/><path class="a" d="M156.006,26.113s0,0,0,0,.031.02.046.032a.309.309,0,0,0,.091.043l-.069-.1-.022-.027a.074.074,0,0,1,.03.007c.05.021.11.07.105,0a.38.38,0,0,0-.086-.044A.477.477,0,0,0,156,26a.532.532,0,0,1,.006.105Z" transform="translate(-96.849 -16.141)"/><path class="a" d="M156.023,31.157l.011.011c0-.011,0-.011,0-.019a.14.14,0,0,0,.008-.044A.1.1,0,0,0,156,31c.006.049.013.1.021.15C156.021,31.154,156.023,31.156,156.023,31.157Z" transform="translate(-96.849 -19.246)"/><path class="a" d="M157.036,32.017l-.02.009A.088.088,0,0,1,157,32a.615.615,0,0,0,.025.074c.011.03.023.059.032.089l.028.086c.006.016.009.03.015.045a.072.072,0,0,0,.021-.03.135.135,0,0,0,.021-.055c0-.008,0-.013,0-.023C157.04,32.148,157.133,31.986,157.036,32.017Z" transform="translate(-97.469 -19.866)"/><path class="a" d="M153.227,32s0,0,0,0c-.05.072-.074.165-.166.212,0,.052-.093.132-.047.164,0-.03.019-.033.037-.039l0,0c.007-.008.012-.017.018-.025s0-.005,0-.01,0,0,0,0v.007l0,0,.053-.07a.5.5,0,0,1,.055-.069s0,0,0-.005l.063-.078c.009-.011.018-.023.027-.033-.015-.011-.023-.033-.044-.044C153.233,32,153.232,32,153.227,32Z" transform="translate(-94.986 -19.866)"/><path class="a" d="M173.038,28.18c.007-.1.011-.159.015-.18h0a.16.16,0,0,0-.049.1.175.175,0,0,0,.03.063A.052.052,0,0,0,173.038,28.18Z" transform="translate(-107.403 -17.383)"/><path class="a" d="M174.062,27.19a.083.083,0,0,1,0-.03.177.177,0,0,1,.011-.128V27.02c-.006.006-.019,0-.027,0a.037.037,0,0,1-.019-.016c-.055.1-.03.138.013.176A.091.091,0,0,1,174.062,27.19Z" transform="translate(-108.023 -16.762)"/><path class="a" d="M172.046,36.434a.129.129,0,0,0,.021.032s0,.01.009.012a.259.259,0,0,1,.049.28c.009-.023.018-.032.029-.035.013-.2.022-.384.036-.555a.379.379,0,0,1-.048-.037l.015.062c-.067.025-.065-.071-.063-.137s0-.091-.056,0a1.551,1.551,0,0,1,.01.191v.033c0,.019,0,.035,0,.057l-.023-.006L172,36.325a.127.127,0,0,0,.008.035A.346.346,0,0,0,172.046,36.434Z" transform="translate(-106.782 -22.35)"/><path class="a" d="M174.063,28.19v-.006a.06.06,0,0,0,0-.02.091.091,0,0,0,0-.019.042.042,0,0,1-.011-.026c0-.005-.007-.01-.005-.016a.039.039,0,0,1,0,.008.227.227,0,0,1,.014.034.159.159,0,0,0,.022.016.423.423,0,0,1,.113.084,1.719,1.719,0,0,0-.161-.2s0-.006-.006-.009S174.01,28.01,174,28c.021.07.04.13.052.166A.2.2,0,0,0,174.063,28.19Z" transform="translate(-108.023 -17.383)"/><path class="a" d="M174.006,27.064a.3.3,0,0,0,.036.021.1.1,0,0,0,0-.085.1.1,0,0,0-.044.036A.048.048,0,0,0,174.006,27.064Z" transform="translate(-108.023 -16.762)"/><path class="a" d="M173.059,28.37s0,.007,0,.009a.114.114,0,0,0,.008-.026,1.042,1.042,0,0,0,.042-.128c.01-.021.013-.04.021-.059.013-.052.03-.1.044-.141l-.035-.007A.563.563,0,0,0,173.01,28c.012.056.059.118.047.175,0,.005,0,.009,0,.013V28.2a.244.244,0,0,1-.051.051l-.006,0c.01.007.01.014.013.02A.505.505,0,0,1,173.059,28.37Z" transform="translate(-107.403 -17.383)"/><path class="a" d="M174.073,26.009a.157.157,0,0,0-.043,0A.187.187,0,0,1,174,26c0,.006,0,.006,0,.009a.059.059,0,0,1,.025,0c.014.006.033.006.049.011h.008a.109.109,0,0,1,.041.006c.012.006.014.017.025.021l.042-.015a.255.255,0,0,0-.111-.027Z" transform="translate(-108.023 -16.141)"/><path class="a" d="M173.19,31.008s0-.006-.008-.008a.085.085,0,0,0-.038.02s0,0,0,.008c-.016.021,0,.049.008.083-.041,0-.049-.009-.054-.024s0-.065-.044-.067c-.008,0-.01,0-.024,0a.071.071,0,0,0-.008.118v0a.136.136,0,0,0,.026.021.062.062,0,0,0,.018.013l.012,0v.008c.021.007.051.013.077.021C173.164,31.134,173.177,31.073,173.19,31.008Z" transform="translate(-107.403 -19.246)"/><path class="a" d="M174.006,26.021a.206.206,0,0,1,.036,0,.05.05,0,0,0-.03-.021A.024.024,0,0,0,174,26,.031.031,0,0,1,174.006,26.021Z" transform="translate(-108.023 -16.141)"/><path class="a" d="M175.05,31.093c.04.016.07.085.136.1l-.039-.063-.037-.062c.026,0,.092.085.078-.009a.1.1,0,0,0-.124-.047A.1.1,0,0,1,175,31h0c0,.007.007.013.01.019A.685.685,0,0,0,175.05,31.093Z" transform="translate(-108.644 -19.246)"/><path class="a" d="M177.072,35c-.025.042-.046.08-.072.121.021,0,.045-.019.078-.089A.068.068,0,0,0,177.072,35Z" transform="translate(-109.886 -21.729)"/><path class="a" d="M175,30.01c.017.028.036.055.055.083.016-.011.028-.024.057.034a.2.2,0,0,0-.032,0c.021.032.04.066.062.1a.445.445,0,0,1,.041.061.028.028,0,0,1,.006-.016.328.328,0,0,0-.007-.1.2.2,0,0,0,0-.02c-.006-.02-.009-.041-.016-.06l-.129-.066.006-.021A.025.025,0,0,0,175,30.01Z" transform="translate(-108.644 -18.625)"/><path class="a" d="M176.161,36.026a.23.23,0,0,0,.014-.026c-.065.1-.123.187-.175.262a.373.373,0,0,0,.093-.073C176.085,36.127,176.255,36.007,176.161,36.026Z" transform="translate(-109.265 -22.35)"/><path class="a" d="M177.107,35.176c.114-.08.08-.123.07-.176-.062.061-.121.117-.177.17C177.02,35.167,177.01,35.211,177.107,35.176Z" transform="translate(-109.886 -21.729)"/><path class="a" d="M155.038,45.047l.006-.008L155,45Z" transform="translate(-96.228 -27.937)"/><path class="a" d="M155,44c-.01.03.006.068.013.047C155.079,44.013,154.99,44.042,155,44Z" transform="translate(-96.228 -27.316)"/><path class="a" d="M150.521,16.2a.364.364,0,0,0-.012.05c-.082-.092-.166-.185-.247-.273-.056-.041-.115-.082-.179-.123l.176.237c-.227-.343-1.5-1.4-1.761-1.808a1.185,1.185,0,0,1-.126-.124c.085.1.17.192.243.28a8.969,8.969,0,0,0,1.093,1.09c.238.2.409.426.629.652.065.067.121.135.174.2l.018.023c-.006,0-.009,0,0,.01a.01.01,0,0,1,.007,0c.071.091.141.177.216.262l-.019,0,.025,0a.028.028,0,0,0,.009.009c-.009.009-.014.021-.028.013l.022.028-.009.007-.006,0s0,0,0,0,.011.01.02.015.021.011.017.018l0,0a.051.051,0,0,1-.015.011.074.074,0,0,1,.039.022.079.079,0,0,0,.025.018l0,0h0c-.038,0-.009.048-.038.034,0,.011.009.011.018.011h0c.008,0,.018,0,.023,0s-.019.027-.035.028h0s-.007.006-.011.006h.023l0,0,.024,0c0,.023-.022.025-.013.039h0l.02-.018,0,.019c.006-.012.016-.009.027,0l-.005,0,.015,0c-.022.006.006.014-.011.026.009.009.009.01.032.017l.007-.017c.034,0-.015.024,0,.04l.011-.019c.009.048.056.014.069.04,0,0,0,0,0,0s0,0,0,0-.022.021-.019.016l.023.005a.067.067,0,0,0,.062,0c0,.033-.006.043.011.065.017,0,.02,0,.03-.015.006.009.019.011.028.014s.013,0,.009.015c.009-.017.012.006.025-.006v.01l0-.01,0-.012c.012.055.049-.016.062.033l-.006,0,.013,0a.108.108,0,0,1-.011.026l.046.016,0-.018c.01,0,.022-.02.03,0-.024.024,0,.013.007.028,0,0,.009,0,.011-.011s.012.011.013.021c0-.013.014-.028.022-.025s0,.015,0,.017c.016-.006.035.012.044,0a.025.025,0,0,1-.007.028c.036-.011.013.008.05,0l0,.011.014-.011.009.031v-.018c.012,0,.02-.006.03,0l-.009.016c.031,0,.027.04.061.021,0,0,0,.008-.008.01.034-.021.012.04.047.009,0,0,0,.013,0,.019l.016-.008-.007.025.019-.035v.026l.008-.009c0,.05.03.018.041.058l0-.032c.058-.055.1.057.164.035l0,.025.029-.027c.009.021-.011.021-.009.034.028-.011.015-.035.046-.04.014.018-.007.018-.016.027.03-.009.074-.019.093,0,0,0,0-.007,0-.009.019-.01.046,0,.068,0,0,.011-.006.013-.013.015s.02.011.026,0l-.009.022c.017,0,.05-.016.054.009,0-.009,0-.028.013-.028.01.038.04-.018.065,0,0,.008-.019.012-.014.013s.023-.01.032-.022v.016l.054-.028c.013.037.053-.014.053.014.022,0-.02-.013,0-.023.011.015.022-.013.026.013l0,0,.018,0-.006.026a.058.058,0,0,0,.017-.055c.018.011.036-.006.048.014l0,.007c.038-.021.093.043.113-.009,0,0,0,.008,0,.009l.027-.009V17.4l.033-.045,0,.013a.367.367,0,0,0,.1-.064l0,.009c.026-.04.042-.012.062-.043v.006l.022-.018,0,.014c0-.035.071-.012.046-.021a.124.124,0,0,0,0-.057c.023-.02.017.008.039,0s0-.035.033-.047l.009.01c.007-.012,0-.023.017-.038v.008c0-.038.049-.006.026-.053,0,0,0,0,0,0,.016-.006.025-.028.046-.012.008-.029.016-.054.024-.08a.141.141,0,0,0,.009-.027c.027.013.019,0,.022-.006a.019.019,0,0,1,.014-.01L153,16.927c0-.006.009-.01.012-.016a.218.218,0,0,1,.031-.033,10.072,10.072,0,0,0,1.915.123,1.651,1.651,0,0,0,.57-.111,6.388,6.388,0,0,0,.673-.126s0,.006,0,.009l-.011,0c.014.013-.018.035-.01.05.023.006.013.023.047,0,.017.016-.021.018-.022.028s0,0,.007.008a.03.03,0,0,1,.009.036s0,.007,0,.009c.025-.007.031.007.034.023s.006.041.031.032l-.006.04c.011-.009.037-.021.053-.007a.054.054,0,0,1-.013.032.082.082,0,0,0-.013.015l.044-.018v0c.034.123.177.2.281.273.06.011.133,0,.2.009l-.008.006.066.013-.047-.021a.12.12,0,0,1,.039-.014.431.431,0,0,0,.124.009h.029v-.006h.006s0,0,0,.006.005,0,.009-.006l.011,0v0h0l.022,0h-.02a.147.147,0,0,1,.03-.026c-.02.05.014,0,.006.03l.008-.02c0,.013.02.024.014.04l.028-.021-.005.023c.029.011.11.008.149.053a.365.365,0,0,0,.063-.018l.1-.016.15-.033c.007-.021.03-.031.044-.038l.028.017c.014-.015.016-.051.036-.043a.013.013,0,0,1,0,.007c.012-.011.034,0,.036-.031a.031.031,0,0,1,.041.024c-.009-.024,0-.022.017-.016a.1.1,0,0,1,.017.008.5.5,0,0,1,.083-.017l.029,0h0l.051,0,.021,0h.009a.017.017,0,0,0,.01,0h0l.022,0,.014,0,.028-.006.019,0,.036-.01h0a.494.494,0,0,0,.05-.016h0a.41.41,0,0,0,.071-.031l.038-.022c.022-.016.048-.033.072-.049l.024-.019a.452.452,0,0,0,.053-.049.26.26,0,0,0,.028-.026,1.208,1.208,0,0,0,.125-.15c.017-.028.034-.056.048-.084.344-.248.543-.373.013-.029a.474.474,0,0,0,.031-.086,13.93,13.93,0,0,0,1.16-.948,7.215,7.215,0,0,0,1.15-1.648c.549-.3.013-1.228.054-2.071a10.335,10.335,0,0,0-1.021-2.691,3.81,3.81,0,0,0-1.129-2.135,2.128,2.128,0,0,1,.716.727c.588,1.363-.334-.668.053.255.636,1.961-.026-.17.658,1.595a4.54,4.54,0,0,0,.3.73c.186.313.456,1.06.447.96-.225-.693-.66-1.5-.945-2.294a3.388,3.388,0,0,0-.851-1.8c.347.363-.712-.586-1.654-.758l.137.026c-.127-.045-.255-.092-.4-.147.12.04.358.122.425.152l-.024,0a4.307,4.307,0,0,1,1.6.714,2.117,2.117,0,0,0-.9-.611c-.18-.07-.379-.135-.6-.213.416.193-.6-.108-1.218-.461l.068.044-.122-.076c-.034-.019-.066-.04-.1-.061-.307-.192-.514-.326-.719-.461l0,0h0l-.036-.025h0l.036.026v0a1.245,1.245,0,0,1-.1-.192,6,6,0,0,1,.163-1.149,1.717,1.717,0,0,0,.082-.207c.046.016-.04-.226.187-.275a.471.471,0,0,1,.024-.111c.018.009.018.009.079.1l.01,0,.071.006a.2.2,0,0,0,.084-.224l.027-.081c.1-.307-.05-.551.039-.652-.008,0-.013,0-.02-.007l-.121.027a1.327,1.327,0,0,1-.062-.121c-.3-.216.094-.453-.05-.552.19.152-.233-1.2-.047-.732a1.3,1.3,0,0,1,.116.827c.022.2-.124.21-.019.458a.951.951,0,0,0,.183.094.091.091,0,0,0,.023-.009.036.036,0,0,1,0-.008c-.49-.084-.017-.576-.133-.829a1.346,1.346,0,0,0-.295-.8c.085.112.226.152.315.441-.022-.079-.05-.169-.08-.268a2.351,2.351,0,0,0-.165-.25c-.061-.078-.132-.15-.2-.245a.858.858,0,0,0-.132-.131,3.056,3.056,0,0,0-.717-.5c-.052-.009-.151-.032.093.089a3.537,3.537,0,0,1,.607.421C155.59.447,155.109,0,154.707,0a2.22,2.22,0,0,1,.878.467c-.182-.118-.869-.534-.706-.368a3.345,3.345,0,0,1,1.1.82L155.97.9l.042.051-.033-.032c.043.089-.32-.326-.471-.395a1.294,1.294,0,0,0-1.218-.39c.058-.009.013.013-.162.055a1.246,1.246,0,0,1,.135-.051c-.6.046-.725.419-1.15.842-.345.27-.2.667-.3,1.24v0c.037.032.13.155-.119.428.011-.031.021-.062.03-.092-.111.141-.091.032-.183.245a1.043,1.043,0,0,0,.137.492c.046.228.179.216.179.22a.665.665,0,0,1,.1-.012c-.036.088-.1.117-.208.057-.16-.087-.225-.43-.268-.629-.021-.228.1-.305.206-.423h-.012c-.129.115-.363.108-.175.7-.02-.067-.039-.125-.055-.168,0,.023.009.05.016.074a3.988,3.988,0,0,0,.145.387c.026.026.05.057.078.087a.382.382,0,0,0,.15.063.433.433,0,0,1,.084-.062h0a.1.1,0,0,1,.07-.016.4.4,0,0,0,.024-.043.314.314,0,0,0-.055-.026c.427-.045.15.376.273.482a5.77,5.77,0,0,1,.053,1.276,4.623,4.623,0,0,1-1.611,1.086,3.806,3.806,0,0,0,.652-.373c-1.114.721-1.569.334-2.471,1.606.179-.324-.022-.038-.2.246.089.233-1,1.774-1.156,2.84-.057.237-.032-.1-.138.479-.119.732.006.075-.006.258-.066.3-.127.7-.165,1.013,0,.072-.017.228-.024.326l0,.059c-.008.042-.006,0,0-.059a2.611,2.611,0,0,1,.024-.326c0-.065,0-.065-.03.126a.592.592,0,0,0-.062.078,2.281,2.281,0,0,1-.092.492c.156.862,1.606,2.086,2.527,3.057C150.525,16.18,150.523,16.187,150.521,16.2Zm10.692-2.645c-.022-.246-.1-.7-.119-.947A8.056,8.056,0,0,1,161.213,13.551Zm-3.579-1.508-.014-.027C157.63,12,157.628,12.029,157.633,12.043Zm-.154.915c.01.018.006.092-.03.1A.191.191,0,0,0,157.48,12.958Zm-.069,1.7c0-.015,0-.029,0-.043,0-.088,0-.176,0-.264v-.047c0-.045,0-.092,0-.136,0-.1.008-.194.013-.292,0-.04,0-.082.006-.125,0-.024,0-.05,0-.074q.012-.181.027-.36a.179.179,0,0,0,.013-.049.418.418,0,0,1,.021-.115c.009-.042.016-.089.024-.143,0-.027,0-.057.009-.087.009-.09.016-.189.02-.3l0-.052.008-.2.019.03.039.06.019.03c-.014.071-.022.051-.029.024s-.014-.043-.026-.028a.12.12,0,0,0-.008.02c-.037.162.038.058.06.115a.136.136,0,0,1,.007.062c-.018,0-.026.014-.03.034,0,0,0,0,0,.008v.006h0a.084.084,0,0,0,0,.022.009.009,0,0,1,0,.006c.009.021.014.051.022.075.008-.1.014-.185.022-.267.006-.048.01-.093.014-.137-.016.011-.03,0-.042-.017a.216.216,0,0,1-.012-.159c0-.006,0-.013.005-.018l.02.018.007-.04,0,.042h0a.165.165,0,0,0,.036.129c.008-.063.018-.124.027-.179a.033.033,0,0,1,0-.011s0-.01,0-.014a.266.266,0,0,0-.007-.026.276.276,0,0,0-.016-.036l0,.035c0-.009,0-.013-.006-.02a.231.231,0,0,0-.035-.079s0,0,0-.007l0,0,.008,0a.192.192,0,0,0,0-.042.348.348,0,0,1-.01-.168l.022-.006c-.008-.047.006-.12-.022-.149.034.024.029-.133.072-.074a.236.236,0,0,0,0,.025c0,.016,0,.033,0,.052a.138.138,0,0,0,.018.065s0,.011.01.011v-.035l0-.1v-.053l0,0a.021.021,0,0,1-.014,0s-.007,0-.009-.006l-.013-.015c-.007,0-.012,0-.009-.016l-.013-.024.01-.156c0,.017,0,.023.011.016a1.351,1.351,0,0,1,.014-.326c.014.06.056.056.051-.028l-.042-.057c.042-.136-.034-.334.036-.4-.023.085.029.057.029.116-.02-.173.027-.165-.009-.336.006.017.016.016.029,0a.085.085,0,0,0,.016-.025.148.148,0,0,0,.009-.018c-.007,0-.011-.016-.014-.028l0,0a1.426,1.426,0,0,1-.019-.276c0-.007.012-.007.02-.007s.033.007.042-.032c.006-.072-.016-.01-.033-.032l.034-.074.009-.019c-.007,0-.011,0,0,0v0s0,0,0,0h.049c0-.06.009-.115.013-.162,0-.031.007-.058.009-.08s0-.014,0-.019a.025.025,0,0,1,0-.006,1.425,1.425,0,0,0,.049.27.065.065,0,0,1,.017,0h.027c.067,0,.07.007.061.011s-.014,0-.022.006l.006.006h0c.086.058.038.252.1.369a.159.159,0,0,0,.04.051c-.011,0-.025-.014-.041-.035s-.043-.058-.064-.055c0,0-.007,0-.008,0l.012.014c.022.035.033.106.055.119.007,0,.014,0,.025,0,.009.054.107.148.077.136.1.126.105.164.1.187a.124.124,0,0,0-.011.051.039.039,0,0,1,0,.007h.006a.039.039,0,0,1,.035.02.268.268,0,0,1,.041.083,1.182,1.182,0,0,0,.042.116.264.264,0,0,0,.023.043c-.082-.018.029.089.038.141l-.048-.044c.053.106.109.219.162.333a0,0,0,0,1,0,0c.011.023.019.044.031.067s.022.047.031.071c.023.048.046.1.063.142-.03-.032-.05-.021-.029.031,0,0,0,0,0,0,.025.02.044,0,.07.006l-.006.063h0c.032-.053.054.085.1.092.025.036.014.131.069.191L159,12.056c-.027.007.017.051.027.086.013,0,.01-.015.008-.028l-.008-.01.008,0v.007a1.532,1.532,0,0,0,.1.119c.03.031.058.065.088.1.011.011.022.023.031.033a1.074,1.074,0,0,1,.087.106.693.693,0,0,1,.146.357h.006a.213.213,0,0,1-.008.026.517.517,0,0,1,0,.121c.009,0,.007.028-.025.088l.025-.088c-.016,0-.072.055-.085.045.036-.05.017-.078.017-.11a.3.3,0,0,1-.036.1c0,.05-.031.136,0,.15l-.014,0-.041.082c0-.024,0-.019,0-.031a.081.081,0,0,0-.019.033c-.048.076-.033.175-.123.218l0-.012a.522.522,0,0,0-.1.187l-.071.013-.046.139a.222.222,0,0,0,.014-.131l-.077.118.03-.031c0,.117-.05.132-.1.181a.307.307,0,0,0-.04.047.327.327,0,0,0-.046.083c0-.016.009-.033.013-.053-.023.035-.047.073-.072.114a.085.085,0,0,1-.04.061c-.017.031-.036.059-.056.09-.008.014-.018.028-.025.041a.145.145,0,0,0,.025-.034.154.154,0,0,1,.017-.024l-.014.033-.048.126a.022.022,0,0,1-.034-.012c-.012.022-.026.045-.04.069a.032.032,0,0,0,.011.026l-.07.073a.1.1,0,0,0,.015-.026c-.013.023-.027.043-.041.066-.049.087-.092.177-.135.267,0,0,0,0,0,0a.016.016,0,0,1-.009,0c-.008.018-.016.035-.025.053l0,0a.08.08,0,0,0-.008.012c-.058.124-.114.246-.179.365a.562.562,0,0,0-.032.055l-.017.024-.027.051a.057.057,0,0,0-.007.01c-.031.05-.067.1-.1.15a.022.022,0,0,1,.007-.028c-.038.01-.013-.008-.05,0l.006-.011-.015.011-.008-.03v.017c-.011,0-.02.006-.029,0l0-.01,0-.009h-.007c-.024,0-.022-.035-.052-.02,0,0,0-.008.006-.01-.035.022-.012-.04-.048-.009,0-.006,0-.014.006-.019l-.016.008.008-.025-.022.035v-.028l-.007.011c0-.05-.03-.02-.039-.058l0,.031-.016.012c-.007-.043-.011-.089-.016-.133v0c-.01.021-.005.082-.014.113,0,0,0,0,0,.006s-.014-.014-.024-.022a.087.087,0,0,1-.015-.014c-.056-.055-.065-.129-.091-.287,0-.043,0-.085,0-.127v-.013c0-.1-.01-.2-.011-.3ZM155.9,16.728a.661.661,0,0,1-.161.048C155.8,16.755,155.8,16.726,155.9,16.728ZM155.681,5.2l.017-.308c.026-.121-.006.133-.017.308.008.029,0,.024,0,.018Zm0,.033c.006.021.025.064.066.161h0c0,.018.006.043-.07-.159Zm-4.993,11.211-.083-.092s0-.006.007-.006l0,.007c.013-.02.03,0,.038,0l0,0,.023,0,0,0s0,.006,0,.009.006,0,.01,0,.022.027.034.041C150.7,16.421,150.69,16.432,150.685,16.441Zm.03-.043a.245.245,0,0,0-.019-.02l.009-.014.006.006s-.009,0,.006.008h0l.006.008Zm1.086-2.106c-.008.021.012.094-.022.072C151.747,14.328,151.792,14.286,151.8,14.293Zm-1.783-.8c0-.016.016.008.027.02Zm.223.363,0,0-.02-.023.038.007.09.021h.006c.069.121-.074-.038-.038.051.073.135.068.028.115.042a.073.073,0,0,1,.027.02l.014.014a.058.058,0,0,1,.009.009s0,.006,0,.01,0,.038.021.064c.038.016.088.073.112.048a.222.222,0,0,1-.037-.037.017.017,0,0,0-.006-.007.416.416,0,0,1-.028-.047c-.014-.024-.026-.051-.038-.077-.037-.08-.075-.154-.159-.154a.024.024,0,0,1-.026.023s-.009,0-.014,0a.174.174,0,0,1-.122-.111l.025,0-.022-.033.025.033h0a.181.181,0,0,0,.2.055h0l-.009-.015-.029-.052c-.019-.028-.036-.051-.052-.073,0,.04-.025.036-.061.016l-.076-.051c-.012-.009-.024-.016-.036-.024l.022.033a.265.265,0,0,0-.107-.072l.009-.013c-.024-.055-.068-.084-.1-.133a.233.233,0,0,1-.021-.056v0l.015-.016a.175.175,0,0,1-.033-.062c-.023-.009-.025-.032-.027-.055a.052.052,0,0,0-.022-.021c.007,0,.01,0,.012-.012a.076.076,0,0,0,0-.016c0-.039-.017-.105.024-.073.02.034.05.151.086.14l-.056-.158-.009-.022,0,0h0c-.025.02-.063-.034-.072-.063a1.018,1.018,0,0,1,.014-.229c-.01.018,0,.034.006.023a.962.962,0,0,1,.135-.3c-.012.058.03.071.058,0l-.016-.067c.011-.014.021-.028.03-.043l0,0c.038-.066.063-.147.094-.209a.2.2,0,0,1,.049-.069.1.1,0,0,1,.028-.017.144.144,0,0,0-.022.033.046.046,0,0,0,0,.016c0,.022.017.033,0,.067.057-.16.1-.133.147-.3-.009.036.03.02.059,0-.02-.03.014-.111.046-.188,0,0,0-.006,0-.01.012-.031.023-.06.031-.085,0,0,0,0,0,0,.017,0,.031.015.05,0a.08.08,0,0,0,.014-.014c.024-.063-.013-.013-.024-.04l.066-.068c0,.008.006.01.018,0-.075-.1.135-.287.122-.448.029.013-.022.14.03.14-.013-.046.083-.16.015-.159.034-.132.057-.3.132-.352v0s.007-.008.012-.01c-.046-.018-.017-.1.009-.179,0-.01.006-.021.009-.031a.321.321,0,0,0,.014-.081c.011.012.019.015.024.012s.013-.014.015-.031a.413.413,0,0,1,.021-.111l.011.06.053-.238.007-.031.013-.057a.006.006,0,0,1,0,0c.073-.044-.058-.073.034-.118a.344.344,0,0,1,.055-.019c0-.013,0-.026.007-.038s.009-.045.012-.065c.013-.064.022-.114.029-.135a.5.5,0,0,1,.05.131.564.564,0,0,1,.014.066.075.075,0,0,0,0,.012l.052-.011.011,0v.006l.017.054.041.131c-.011-.018-.021-.024-.029-.026s-.018.011-.008.048a.033.033,0,0,0,.006.011c.013.018.035.013.053.028l-.038.064c.059-.04.007.118.033.142,0,.047-.078.111-.071.189l0-.011c-.027-.011-.015.049-.029.08.01.01.017,0,.023-.014v-.012l0,.007c.006-.011.012-.012.018.021l-.018-.021,0,.005c.008.083.01.167.011.252v.036c0,.082,0,.163,0,.242,0,.023,0,.045,0,.067s0,.045,0,.068.008.057.012.084.007.055.012.082,0,.032.006.049c.009,0,.015.014.016.067l-.016-.067c-.006,0-.016.013-.024.029a.224.224,0,0,1-.025.032l0,.006h0a.07.07,0,0,0,0-.049c-.015-.032-.05-.045-.026-.093l.026.07c.016-.013.019-.068.034-.1a.021.021,0,0,1,0-.006v0h-.01l-.041,0a.185.185,0,0,0,0-.033s0,0,0,0c.009-.128-.08-.252-.039-.39l.041,0c.007-.133-.077-.04-.063-.2.019.064.046-.031.055-.071a.262.262,0,0,1-.038-.116.462.462,0,0,1,.014-.224.546.546,0,0,0,.013.145s0,.007,0,.011c0-.07.05-.183.007-.243l0,0,0,0s0-.006,0-.011a.516.516,0,0,1-.013-.08.049.049,0,0,1,0-.013.116.116,0,0,0,0-.013.106.106,0,0,0-.007-.024.036.036,0,0,0,0-.013c0,.039,0,.079-.006.121-.006.087-.014.183-.02.287,0,.038,0,.075-.006.116,0,.007,0,.014,0,.021,0,.065,0,.133,0,.206s0,.143.01.218c.012.156.031.323.054.492,0,0,0,0,0-.009l.008.011c.02.026.039.065.059.087s.019.017.03.013l-.014.006.018.084c-.01-.02-.015-.011-.019-.022a.138.138,0,0,0,0,.052.215.215,0,0,0,.018.054c.025.055.057.1.025.165l-.005-.009a.456.456,0,0,0,.045.2l-.045.05,0,0,.014.034.041.1a.213.213,0,0,0-.064-.1l-.009-.009a.011.011,0,0,1,0,.006c0,.006,0,.011,0,.018.006.035.009.067.014.1h0l0-.031a.219.219,0,0,1,.024.033l.008.011c.053.1-.038.138.018.3l0-.011c-.005-.012-.011-.023-.017-.035h0c0,.02,0,.04.006.059s0,.043.006.064a.078.078,0,0,1,.009.079c0,.023,0,.045.006.067s.007.053.012.079h0a.262.262,0,0,0,0-.073l.038.116,0,0,.011.036a.022.022,0,0,1-.035.009c0,.027.008.054.012.078a.037.037,0,0,0,.023.011l-.006.094c0,.024.007.049.011.074a.022.022,0,0,1,0,.009.047.047,0,0,1,0,.01c.006.048.014.1.022.146,0,.014,0,.028.006.043s0,.031.006.047c0,0,0,0,0,0s0,0,0,.006,0,0,0,0,0,.022,0,.034,0,.043.007.065c.006.006.006.018,0,.033.009.078.015.158.017.238a2.248,2.248,0,0,1-.027.429,1.1,1.1,0,0,0-.008.176c0,.01,0,.019,0,.03.014-.011.015-.082.031-.11.089.075.082.127.1.312a2.767,2.767,0,0,1-.014.456c.086.244-.44.378-.512.154a4.814,4.814,0,0,1-.54-.717,2.248,2.248,0,0,0-.361-.566Zm.281.437c.019.007.059.065.035.092A.183.183,0,0,0,150.521,14.293Z" transform="translate(-91.882)"/><path class="a" d="M156.032,46.017c-.027.019-.027,0-.03-.017l0,0Z" transform="translate(-96.849 -28.558)"/><path class="a" d="M156.032,46.009s-.006,0-.01-.009-.006.028-.023.027Z" transform="translate(-96.849 -28.558)"/><path class="a" d="M154.14,44l-.015.006-.125.038c.106-.025.064.04.129-.034Z" transform="translate(-95.607 -27.316)"/><path class="a" d="M171.005,46.017H171c.005,0,.005,0,.005,0v0c.006,0,.006,0,.006-.006s-.006-.017,0-.017S171.005,46,171.005,46.017Z" transform="translate(-106.161 -28.558)"/><path class="b" d="M171.006,46H171" transform="translate(-106.161 -28.558)"/><path class="a" d="M174.029,40.115c.009.019.013.038.036.046,0-.011.008-.011.011-.015.015-.027.038-.027.072-.017-.035-.019-.055-.066-.087-.095l0-.013,0,.008c-.015-.013-.028-.032-.057-.027A.333.333,0,0,0,174.029,40.115Z" transform="translate(-108.023 -24.833)"/></g></g><g transform="translate(844.5 0)"><path class="a" d="M1.287,38.528H77.2V1.286H1.287Zm77.2,1.286H0V0H78.489Z"/><path class="a" d="M33.781,84.654l-.454-1.943s-.006-.007-.009-.007-.032.113-.448,1.95h-.222L32,82h.3l.451,2.042c0,.007,0,.011.007.011a.053.053,0,0,0,.006-.011c-.006,0,.406-1.94.435-2.042h.238c0,.017.121.523.232,1.034l.222,1.009c0,.007,0,.011.006.011a.056.056,0,0,0,.006-.011L34.353,82h.3l-.641,2.654h-.232" transform="translate(-19.866 -50.908)"/><path class="a" d="M43.327,84.342a1.015,1.015,0,1,0-1.015-1.015A1.016,1.016,0,0,0,43.327,84.342Zm0-2.342A1.327,1.327,0,1,1,42,83.327,1.325,1.325,0,0,1,43.327,82Z" transform="translate(-26.075 -50.908)"/><path class="a" d="M51.289,83.3c0,.018.01.025.029.025h.292a.457.457,0,0,0,.467-.5.465.465,0,0,0-.467-.5h-.292c-.019,0-.029.011-.029.032Zm.887,1.359-.544-1a.036.036,0,0,0-.035-.021h-.289c-.013,0-.019.008-.019.021v1H51V82h.614a.756.756,0,0,1,.75.824.806.806,0,0,1-.41.733.028.028,0,0,0-.01.025l.572,1.073Z" transform="translate(-31.662 -50.908)"/><path class="a" d="M60.516,84.654H59V82h.369v2.314c0,.014.008.021.025.021h1.123v.319" transform="translate(-36.629 -50.908)"/><path class="a" d="M64.362,82.318c-.015,0-.023,0-.023.014v1.982c0,.014.007.021.023.021h.506a1.01,1.01,0,1,0-.008-2.017ZM64,84.654V82h.868a1.329,1.329,0,1,1,0,2.654Z" transform="translate(-39.733 -50.908)"/><path class="a" d="M77.358,83.271c0,.018.012.024.035.024h.272a.483.483,0,0,0,.5-.5.464.464,0,0,0-.5-.478h-.272q-.035,0-.035.032ZM77,84.654V82h.658a.805.805,0,0,1,.859.8.819.819,0,0,1-.859.814h-.276c-.016,0-.024.007-.024.021v1.023H77Z" transform="translate(-47.803 -50.908)"/><path class="a" d="M85.327,84.342a1.015,1.015,0,1,0-1.015-1.015A1.016,1.016,0,0,0,85.327,84.342Zm0-2.342A1.327,1.327,0,1,1,84,83.327,1.325,1.325,0,0,1,85.327,82Z" transform="translate(-52.149 -50.908)"/><path class="a" d="M95.517,84.654H94V82h.369v2.314c0,.014.008.021.025.021h1.123v.319" transform="translate(-58.357 -50.908)"/><path class="a" d="M100,84.654V82h.379v2.654H100" transform="translate(-62.082 -50.908)"/><path class="a" d="M105.517,82.318h-.595a.025.025,0,0,0-.025.028v2.308h-.286V82.347c0-.017-.006-.028-.022-.028H104V82h1.517v.318" transform="translate(-64.566 -50.908)"/><path class="a" d="M111,84.654V82h.379v2.654H111" transform="translate(-68.911 -50.908)"/><path class="a" d="M115,83.33A1.375,1.375,0,0,1,116.4,82a1.352,1.352,0,0,1,.872.281l-.2.257a1.1,1.1,0,0,0-.683-.226,1.04,1.04,0,0,0-1.066,1.019,1.1,1.1,0,0,0,1.074,1.011,1.087,1.087,0,0,0,.675-.225l.194.26a1.354,1.354,0,0,1-.869.277A1.377,1.377,0,0,1,115,83.33" transform="translate(-71.395 -50.908)"/><path class="a" d="M124.337,84.138a.42.42,0,0,0,.4.207.455.455,0,0,0,.457-.423c0-.263-.273-.388-.483-.482-.4-.166-.712-.3-.712-.734a.748.748,0,0,1,.764-.707.778.778,0,0,1,.659.35l-.3.142a.417.417,0,0,0-.356-.184.427.427,0,0,0-.431.381.328.328,0,0,0,.2.333c.131.066.423.184.581.267a.686.686,0,0,1,.4.638.766.766,0,0,1-.787.728.694.694,0,0,1-.719-.464l.326-.052" transform="translate(-76.982 -50.908)"/><path class="a" d="M135.289,83.3c0,.018.009.025.028.025h.293a.457.457,0,0,0,.468-.5.465.465,0,0,0-.468-.5h-.293q-.028,0-.028.032Zm.887,1.359-.544-1a.037.037,0,0,0-.035-.021h-.29c-.013,0-.019.008-.019.021v1H135V82h.614a.756.756,0,0,1,.751.824.807.807,0,0,1-.41.733.029.029,0,0,0-.009.025l.572,1.073Z" transform="translate(-83.811 -50.908)"/><path class="a" d="M144.517,84.654H143V82h1.517v.319H143.4c-.017,0-.025,0-.025.014v.814c0,.011.008.014.025.014h1.121v.319H143.4c-.017,0-.025.008-.025.018v.817c0,.014.008.021.025.021h1.121v.319" transform="translate(-88.778 -50.908)"/><path class="a" d="M148.01,84.654,147,82h.366l.762,2.077c0,.008,0,.011.008.011s.008,0,.008-.011L148.913,82h.362l-1.014,2.654h-.251" transform="translate(-91.261 -50.908)"/><path class="a" d="M156,84.654V82h.379v2.654H156" transform="translate(-96.849 -50.908)"/><path class="a" d="M160.517,84.654H159V82h1.517v.319H159.4c-.016,0-.025,0-.025.014v.814c0,.011.009.014.025.014h1.121v.319H159.4c-.016,0-.025.008-.025.018v.817c0,.014.009.021.025.021h1.121v.319" transform="translate(-98.711 -50.908)"/><path class="a" d="M167.781,84.654l-.454-1.943s-.006-.007-.009-.007-.032.113-.448,1.95h-.222L166,82h.3l.451,2.042c0,.007,0,.011.006.011a.054.054,0,0,0,.007-.011c-.007,0,.406-1.94.435-2.042h.238c0,.017.121.523.232,1.034l.222,1.009c0,.007,0,.011.006.011a.045.045,0,0,0,.006-.011L168.353,82h.3l-.641,2.654h-.232" transform="translate(-103.057 -50.908)"/><path class="a" d="M17,23.052h4.36l3.831,12.457L29.339,23h3.487l4.148,12.509,3.831-12.457h4.254L38.745,41.58H35.2L31.03,29.544,26.855,41.58H23.315L17,23.052" transform="translate(-10.554 -14.279)"/><path class="a" d="M107.367,32.369c2.056,0,3.257-1.221,3.257-2.814V29.5c0-1.832-1.281-2.814-3.337-2.814h-3.176v5.68h3.256ZM100,23h7.634c4.458,0,7.154,2.628,7.154,6.423v.053c0,4.3-3.364,6.529-7.554,6.529h-3.123V41.58H100Z" transform="translate(-62.082 -14.279)"/><path class="a" d="M155.16,32.024c1.974,0,3.106-1.062,3.106-2.628v-.053c0-1.752-1.211-2.654-3.185-2.654h-4.027v5.335h4.107ZM147,23h8.423a7.306,7.306,0,0,1,5.37,1.885,5.861,5.861,0,0,1,1.579,4.247v.053a5.767,5.767,0,0,1-3.948,5.76l4.5,6.636h-4.738l-3.948-5.946h-3.185V41.58H147V23Z" transform="translate(-91.261 -14.279)"/><path class="a" d="M186.722,24.677H186.6v-.2h.125c.065,0,.1,0,.117,0a.1.1,0,0,1,.06.031.1.1,0,0,1,.021.065.1.1,0,0,1-.016.06.082.082,0,0,1-.044.033A.6.6,0,0,1,186.722,24.677Zm.246.174a.37.37,0,0,0-.086-.066.25.25,0,0,0,.157-.073.211.211,0,0,0,.052-.147.225.225,0,0,0-.035-.124.18.18,0,0,0-.092-.076.572.572,0,0,0-.185-.021h-.336v.792h.16V24.8h.032a.259.259,0,0,1,.081.009.122.122,0,0,1,.048.033,1.075,1.075,0,0,1,.084.116l.116.173h.191l-.1-.155A.856.856,0,0,0,186.968,24.851Zm-.209.543a.636.636,0,1,1,.635-.636A.636.636,0,0,1,186.758,25.394Zm0-1.394a.758.758,0,1,0,.758.758A.759.759,0,0,0,186.758,24Z" transform="translate(-115.473 -14.9)"/><path class="a" d="M174.541,82.507h-.088v-.151h.094a.868.868,0,0,1,.088,0,.078.078,0,0,1,.046.023.075.075,0,0,1,.015.049.079.079,0,0,1-.012.045.061.061,0,0,1-.033.025A.429.429,0,0,1,174.541,82.507Zm.185.13a.3.3,0,0,0-.064-.05.188.188,0,0,0,.118-.055.161.161,0,0,0,.039-.111.169.169,0,0,0-.026-.093.134.134,0,0,0-.069-.057.432.432,0,0,0-.138-.016h-.253v.594h.12V82.6h.024a.2.2,0,0,1,.061.007.105.105,0,0,1,.036.025.9.9,0,0,1,.063.087l.086.129h.143l-.072-.116A.636.636,0,0,0,174.725,82.638Zm-.157.407a.477.477,0,1,1,.477-.477A.477.477,0,0,1,174.569,83.045Zm0-1.045a.569.569,0,1,0,.569.569A.569.569,0,0,0,174.569,82Z" transform="translate(-108.023 -50.908)"/></g><line class="c" x1="83" transform="translate(0 19.5)"/></g></svg>