<svg xmlns="http://www.w3.org/2000/svg" width="1310" height="911.5" viewBox="0 0 1310 911.5"><defs><style>.a{fill:#8480ae;}.b{fill:#f4f7fc;}.c{fill:none;}.d,.e{stroke:none;}.e{fill:#fdd76e;}</style></defs><path class="a" d="M1271,763a2,2,0,1,1,2,2A2,2,0,0,1,1271,763Zm0-16a2,2,0,1,1,2,2A2,2,0,0,1,1271,747Zm0-16a2,2,0,1,1,2,2A2,2,0,0,1,1271,731Zm0-16a2,2,0,1,1,2,2A2,2,0,0,1,1271,715Zm0-16a2,2,0,1,1,2,2A2,2,0,0,1,1271,699Zm0-16a2,2,0,1,1,2,2A2,2,0,0,1,1271,683Z"/><path class="a" d="M1287,867a2,2,0,1,1,2,2A2,2,0,0,1,1287,867Zm-16,0a2,2,0,1,1,2,2A2,2,0,0,1,1271,867Zm16-16a2,2,0,1,1,2,2A2,2,0,0,1,1287,851Zm-16,0a2,2,0,1,1,2,2A2,2,0,0,1,1271,851Zm16-16a2,2,0,1,1,2,2A2,2,0,0,1,1287,835Zm-16,0a2,2,0,1,1,2,2A2,2,0,0,1,1271,835Zm16-16a2,2,0,1,1,2,2A2,2,0,0,1,1287,819Zm-16,0a2,2,0,1,1,2,2A2,2,0,0,1,1271,819Zm16-16a2,2,0,1,1,2,2A2,2,0,0,1,1287,803Zm-16,0a2,2,0,1,1,2,2A2,2,0,0,1,1271,803Zm16-16a2,2,0,1,1,2,2A2,2,0,0,1,1287,787Zm-16,0a2,2,0,1,1,2,2A2,2,0,0,1,1271,787Z"/><path class="a" d="M1287,763a2,2,0,1,1,2,2A2,2,0,0,1,1287,763Zm0-16a2,2,0,1,1,2,2A2,2,0,0,1,1287,747Zm0-16a2,2,0,1,1,2,2A2,2,0,0,1,1287,731Zm0-16a2,2,0,1,1,2,2A2,2,0,0,1,1287,715Zm0-16a2,2,0,1,1,2,2A2,2,0,0,1,1287,699Zm0-16a2,2,0,1,1,2,2A2,2,0,0,1,1287,683Z"/><path class="a" d="M1255,771a2,2,0,1,1,2,2A2,2,0,0,1,1255,771Zm-16,0a2,2,0,1,1,2,2A2,2,0,0,1,1239,771Zm16-16a2,2,0,1,1,2,2A2,2,0,0,1,1255,755Zm-16,0a2,2,0,1,1,2,2A2,2,0,0,1,1239,755Zm16-16a2,2,0,1,1,2,2A2,2,0,0,1,1255,739Zm-16,0a2,2,0,1,1,2,2A2,2,0,0,1,1239,739Zm16-16a2,2,0,1,1,2,2A2,2,0,0,1,1255,723Zm-16,0a2,2,0,1,1,2,2A2,2,0,0,1,1239,723Zm16-16a2,2,0,1,1,2,2A2,2,0,0,1,1255,707Zm-16,0a2,2,0,1,1,2,2A2,2,0,0,1,1239,707Zm16-16a2,2,0,1,1,2,2A2,2,0,0,1,1255,691Zm-16,0a2,2,0,1,1,2,2A2,2,0,0,1,1239,691Z"/><path class="a" d="M1255,867a2,2,0,1,1,2,2A2,2,0,0,1,1255,867Zm-16,0a2,2,0,1,1,2,2A2,2,0,0,1,1239,867Zm16-16a2,2,0,1,1,2,2A2,2,0,0,1,1255,851Zm-16,0a2,2,0,1,1,2,2A2,2,0,0,1,1239,851Zm16-16a2,2,0,1,1,2,2A2,2,0,0,1,1255,835Zm-16,0a2,2,0,1,1,2,2A2,2,0,0,1,1239,835Zm16-16a2,2,0,1,1,2,2A2,2,0,0,1,1255,819Zm-16,0a2,2,0,1,1,2,2A2,2,0,0,1,1239,819Zm16-16a2,2,0,1,1,2,2A2,2,0,0,1,1255,803Zm-16,0a2,2,0,1,1,2,2A2,2,0,0,1,1239,803Zm16-16a2,2,0,1,1,2,2A2,2,0,0,1,1255,787Zm-16,0a2,2,0,1,1,2,2A2,2,0,0,1,1239,787Z"/><path class="b" d="M0,0H1085V911.5L0,804Z"/><g class="c" transform="translate(892 300)"><path class="d" d="M0,0H418V536L0,484.129Z"/><path class="e" d="M 5 5 L 5 479.7111206054688 L 413 530.3411865234375 L 413 5 L 5 5 M 0 0 L 418 0 L 418 536 L 0 484.1289978027344 L 0 0 Z"/></g></svg>