<svg xmlns="http://www.w3.org/2000/svg" xmlns:xlink="http://www.w3.org/1999/xlink" width="343.918" height="250.978" viewBox="0 0 343.918 250.978"><defs><style>.a,.aa,.h,.m{fill:none;}.b{fill:#eeeff2;}.c{clip-path:url(#a);}.d{fill:#f4f5f9;}.e{fill:#8ab8ee;}.f{fill:#4689d7;}.g{fill:#fff;}.h{stroke:#e8e9f9;stroke-linecap:round;stroke-linejoin:round;stroke-width:0.9px;}.i,.j{fill:#09cb7f;}.i{opacity:0.1;}.k{fill:#cdd1d8;}.l{fill:#3d415b;}.aa,.m{stroke:#3d415b;stroke-miterlimit:10;}.m{stroke-width:2.5px;}.n{fill:#e3bc9a;}.o{fill:#fcd6cb;}.p{fill:#7c6ef2;}.q{fill:#3b317e;}.r{fill:#2f0b6c;}.s{fill:#135af7;}.t{fill:#300c6c;}.u{fill:#41378b;}.v{fill:#a9c9fa;}.w{fill:#82a7e7;}.x{fill:#ecf2f5;}.y{fill:#0db976;}.z{fill:#3d3485;}.aa{stroke-width:2px;}</style><clipPath id="a"><path class="a" d="M220.363,94.581C174.3,66.751,152.564-18.755,81.48,32.338S39.842,188.421,107.948,213.807,263.737,224.851,288.4,177.751C330.6,97.092,251.265,113.251,220.363,94.581Z" transform="translate(-40.471 -16.381)"/></clipPath></defs><g transform="translate(0.45)"><path class="b" d="M220.363,94.581C174.3,66.751,152.564-18.755,81.48,32.338S39.842,188.421,107.948,213.807,263.737,224.851,288.4,177.751C330.6,97.092,251.265,113.251,220.363,94.581Z" transform="translate(12.974 5.494)"/><g class="c" transform="translate(50.586 21.875)"><path class="d" d="M35.28,178.4s39.274-39.381,104.87-20.686,104.162,2.671,96.083-96.363c0,0,92.143,12.86,80.378,78.375C302.269,219.263,117.087,249.6,35.28,178.4Z" transform="translate(-39.353 -1.298)"/></g><path class="e" d="M123.273,29.343V67.749a6,6,0,0,1-6,6h-81.9a6,6,0,0,1-6-6V29.343a5.983,5.983,0,0,1,6-5.983h81.9a5.983,5.983,0,0,1,6,5.983Z" transform="translate(9.253 7.835)"/><path class="f" d="M123.273,29.343v3.325H29.38V29.343a5.983,5.983,0,0,1,6-5.983h81.9a5.983,5.983,0,0,1,6,5.983Z" transform="translate(9.253 7.835)"/><circle class="g" cx="1.255" cy="1.255" r="1.255" transform="translate(42.666 35.041)"/><path class="g" d="M38.681,27.5a1.255,1.255,0,1,1-.363-.9,1.255,1.255,0,0,1,.363.9Z" transform="translate(11.531 8.798)"/><path class="g" d="M42.451,27.5a1.255,1.255,0,1,1-.363-.9A1.255,1.255,0,0,1,42.451,27.5Z" transform="translate(12.795 8.798)"/><rect class="g" width="21.086" height="17.481" rx="0.83" transform="translate(50.278 46.072)"/><path class="g" d="M107.743,54.391H38.435A1.335,1.335,0,0,1,37.1,53.055h0a1.335,1.335,0,0,1,1.335-1.335h69.308a1.335,1.335,0,0,1,1.335,1.335h0A1.335,1.335,0,0,1,107.743,54.391Z" transform="translate(11.843 17.348)"/><path class="g" d="M100.9,46.9H58.835A1.335,1.335,0,0,1,57.5,45.565h0a1.335,1.335,0,0,1,1.335-1.335H100.9a1.335,1.335,0,0,1,1.335,1.335h0A1.335,1.335,0,0,1,100.9,46.9Z" transform="translate(18.685 14.835)"/><path class="g" d="M84.876,39.861H58.835A1.335,1.335,0,0,1,57.5,38.525h0a1.335,1.335,0,0,1,1.335-1.335H84.876a1.335,1.335,0,0,1,1.335,1.335h0A1.335,1.335,0,0,1,84.876,39.861Z" transform="translate(18.685 12.474)"/><path class="h" d="M.45,85.314a33.678,33.678,0,0,1,2.471-2.6c1.683-1.4,3.606-4.073,9.815-2.137a14.06,14.06,0,0,1,1.416.548,4.554,4.554,0,0,0,4.006-1.135c2.751-2.19,3.833-3.846,7.6-3.886,4.394,0,5.075,5.408,8.493,6.811,2.163.881,7.892,1.776,9.081,2.163Z" transform="translate(-0.45 25.525)"/><path class="i" d="M174.82,28.682a67.869,67.869,0,0,1,4.861-5.048c3.312-2.858,7.118-7.906,19.3-4.18a25.813,25.813,0,0,1,2.791,1.028c1.068.454,4.394.467,7.8-2.23,5.422-4.3,7.532-7.545,14.943-7.652,8.627-.107,9.989,10.683,16.693,13.354,4.273,1.749,15.517,3.5,17.854,4.273Z" transform="translate(58.036 3.555)"/><path class="g" d="M126.181,48.646l-.614-1.776-.628,1.776a6.17,6.17,0,0,1-3.459,3.525h0a6.2,6.2,0,0,1,3.459,3.512l.628,1.789.614-1.789a6.276,6.276,0,0,1,3.459-3.512h0a6.25,6.25,0,0,1-3.459-3.525Z" transform="translate(40.145 15.721)"/><path class="g" d="M84.044,124.949l-.614-1.789-.561,1.789a6.236,6.236,0,0,1-3.459,3.512h0a6.209,6.209,0,0,1,3.459,3.525l.628,1.776.614-1.776a6.21,6.21,0,0,1,3.459-3.525h0A6.236,6.236,0,0,1,84.044,124.949Z" transform="translate(26.034 41.309)"/><path class="g" d="M209.892,116.755l-.414-1.175-.414,1.175a4.1,4.1,0,0,1-2.284,2.324h0a4.006,4.006,0,0,1,2.284,2.324l.414,1.175.414-1.175a4.006,4.006,0,0,1,2.27-2.324h0a4.073,4.073,0,0,1-2.27-2.324Z" transform="translate(68.756 38.767)"/><path class="g" d="M63.308,72.465l-.414-1.175-.4,1.175a4.14,4.14,0,0,1-2.284,2.324h0a4.1,4.1,0,0,1,2.284,2.324l.4,1.175.414-1.175a4.1,4.1,0,0,1,2.284-2.324h0A4.14,4.14,0,0,1,63.308,72.465Z" transform="translate(19.594 23.912)"/><path class="j" d="M173.04,0H134.059A3.859,3.859,0,0,0,130.2,3.846V24.905a3.846,3.846,0,0,0,3.859,3.833h2.1V38.38l9.628-9.642H173.04a3.833,3.833,0,0,0,3.846-3.833V3.846A3.846,3.846,0,0,0,173.04,0Z" transform="translate(43.07)"/><path class="g" d="M137.515,15.45h9.2a1.335,1.335,0,0,1,1.335,1.335h0a1.335,1.335,0,0,1-1.335,1.335h-9.2a1.335,1.335,0,0,1-1.335-1.335h0a1.335,1.335,0,0,1,1.335-1.335Z" transform="translate(45.075 5.182)"/><path class="g" d="M137.515,10.63h16.946a1.335,1.335,0,0,1,1.335,1.335h0a1.335,1.335,0,0,1-1.335,1.335H137.515a1.335,1.335,0,0,1-1.335-1.335h0A1.335,1.335,0,0,1,137.515,10.63Z" transform="translate(45.075 3.565)"/><path class="g" d="M137.515,6h29.139a1.335,1.335,0,0,1,1.335,1.335h0a1.335,1.335,0,0,1-1.335,1.335H137.515a1.335,1.335,0,0,1-1.335-1.335h0A1.335,1.335,0,0,1,137.515,6Z" transform="translate(45.075 2.012)"/><path class="k" d="M144.18,156.3h45.164A17.774,17.774,0,0,0,207,140.475l6.5-67.745H168.364L167.443,112Z" transform="translate(47.759 24.395)"/><path class="l" d="M144.358,155.817c11.591-.467,23.2-.668,34.721-.855l8.694-.067H189.9a13.968,13.968,0,0,0,1.963-.2,14.6,14.6,0,0,0,3.752-1.1,16.225,16.225,0,0,0,9.508-11.685c.24-1.2.347-2.671.494-4.153l.427-4.327.841-8.653c.548-5.769,1.189-11.538,1.789-17.294,1.215-11.538,2.484-23.063,3.886-34.574a1.033,1.033,0,0,1,2.057.2c-.815,11.578-1.763,23.129-2.778,34.721-.494,5.782-.975,11.565-1.536,17.36l-.815,8.653-.4,4.34c-.147,1.442-.227,2.831-.521,4.474a19.323,19.323,0,0,1-11.618,14.182,18.215,18.215,0,0,1-4.581,1.255,15.712,15.712,0,0,1-2.377.2h-10.91c-11.591-.187-23.2-.387-34.721-.855a.708.708,0,0,1-.694-.761.721.721,0,0,1,.694-.868Z" transform="translate(47.581 24.143)"/><line class="m" y2="47.848" transform="translate(217.752 181.963)"/><rect class="l" width="145.493" height="2.257" transform="translate(226.272 139.404) rotate(180)"/><path class="n" d="M159.13,178.85l1.549,5.542-7.518,2.284-2.35-6.837Z" transform="translate(49.983 59.989)"/><path class="n" d="M123.05,175.85V180.3h6.664l.734-4.447Z" transform="translate(40.672 58.982)"/><path class="o" d="M172.53,81.717l-10.042,24.812-.227.548a3.779,3.779,0,0,1-3.539,2.364l-28.618-.2a2.1,2.1,0,0,1-.294-4.18l28.324-4.073-3.753,2.911,6.771-25.907a6.009,6.009,0,1,1,11.631,2.965A6.154,6.154,0,0,1,172.53,81.717Z" transform="translate(42.312 24.542)"/><path class="o" d="M135.447,96.73l-9.775-.2a4.647,4.647,0,0,0-4.38,4.874h14.3Z" transform="translate(40.08 32.377)"/><path class="p" d="M149.48,86.37l15.651,3.819,2.577-13.955a6.771,6.771,0,0,0-5.769-7.866h0a6.891,6.891,0,0,0-7.452,4.38Z" transform="translate(49.536 22.907)"/><path class="q" d="M175.448,102.14l-48.222,24.478a12.633,12.633,0,0,0-6.891,12.019l3.632,61.963h7.4l9.989-66.3,37.538-26.361Z" transform="translate(39.754 34.259)"/><path class="r" d="M158.575,38.97s13.354-4.554,20.445,8.133a11.71,11.71,0,0,0,1.4,2.1c1.429,1.683,4.407,4.794,7.692,5.809,13.047,4.006,21.367,28.658-4.661,30.861-32.491,2.671-41.718-3.672-37.071-16.613,3.312-9.241.361-15.8.361-15.8Z" transform="translate(48.12 12.804)"/><path class="s" d="M166.658,63.56l-6.931,3.085A11.284,11.284,0,0,0,153.05,77.1c.107,9.108,2.177,31.716,9.869,40.37h23.45c3.619-16.025,1.536-40.637,1.536-40.637a11.591,11.591,0,0,0-10.2-12.019Z" transform="translate(50.734 21.319)"/><path class="o" d="M165.447,74.131h0a4.487,4.487,0,0,1-4.968-3.9l-1.91-14.89,8.921-1.042,1.9,14.8a4.5,4.5,0,0,1-3.939,5.035Z" transform="translate(52.585 18.213)"/><path class="o" d="M.067,0H22.128V13.087a10.857,10.857,0,0,1-10.91,10.87h-.361A10.857,10.857,0,0,1,0,13.1V0Z" transform="matrix(0.992, -0.129, 0.129, 0.992, 196.383, 62.369)"/><path class="t" d="M172.95,54.531l-1.87,3.873s-2.484,2.15-3.138-3.285c-.6-4.594-3.926-3.793-3.926-3.793S152.625,59.953,145.922,54c-5.342-4.674,3.258-13.221,13.034-15.277l12.82,5.609Z" transform="translate(47.793 12.987)"/><path class="o" d="M163.386,54.583a3.619,3.619,0,1,0,3.165-4.006,3.619,3.619,0,0,0-3.165,4.006Z" transform="translate(54.193 16.955)"/><path class="g" d="M165.59,54.7a.672.672,0,1,0,1.335-.16.654.654,0,0,0-.788-.534A.668.668,0,0,0,165.59,54.7Z" transform="translate(54.94 18.108)"/><path class="g" d="M151.74,59.035l6.143-1.335s.294,2.671-3.071,3.152a2.5,2.5,0,0,1-3.071-1.816Z" transform="translate(50.295 19.353)"/><path class="u" d="M194.571,103.93h-23.5l-37.512,22.7a10.283,10.283,0,0,0-4.086,12.94l28.791,65.435,8.32-.975L151.1,140.881c12.994-.548,37.111-2.511,43.414-9.535C205.174,119.421,194.571,103.93,194.571,103.93Z" transform="translate(42.532 34.859)"/><path class="f" d="M128.773,73.18l13.354,35.949H98.673L86.294,75.263a1.549,1.549,0,0,1,1.456-2.083Z" transform="translate(28.311 24.545)"/><path class="v" d="M118.08,73.18h2.083a2.671,2.671,0,0,1,2.5,1.749l12.673,34.2h-3.873Z" transform="translate(39.005 24.545)"/><path class="w" d="M95.63,100.1h43.361v3.459h-40.2a3.138,3.138,0,0,1-3.138-3.138v-.32Z" transform="translate(31.475 33.575)"/><path class="w" d="M128.1,103.572h26.828a1.736,1.736,0,0,0,1.723-1.736h0a1.736,1.736,0,0,0-1.723-1.736H128.1Z" transform="translate(42.365 33.575)"/><path class="x" d="M111.855,87.407c.828,2.484-.16,5.048-2.217,5.729s-4.367-.788-5.195-3.272.174-5.048,2.217-5.729a4.38,4.38,0,0,1,5.195,3.272Z" transform="translate(34.333 28.186)"/><path class="o" d="M186.269,81.149,176.2,106.442l-.227.561a3.833,3.833,0,0,1-3.566,2.4l-28.631-.2a2.1,2.1,0,0,1-2.1-2.123A2.123,2.123,0,0,1,143.443,105l28.324-4.193-3.753,2.965L174.691,77.4a6.065,6.065,0,0,1,11.752,3,4.449,4.449,0,0,1-.174.748Z" transform="translate(46.92 24.429)"/><path class="o" d="M149.137,96.58l-9.775-.2a4.7,4.7,0,0,0-4.38,4.954h14.276Z" transform="translate(44.671 32.327)"/><path class="p" d="M163.17,86.024l15.651,3.9L181.4,75.7a6.877,6.877,0,0,0-5.756-8.012h0a6.877,6.877,0,0,0-7.465,4.447Z" transform="translate(54.128 22.679)"/><path class="u" d="M152.461,180.914l-3.646,3.606-8.213,2a2.551,2.551,0,0,0-1.816,1.643l-.414,1.189a.895.895,0,0,0,.868,1.189l26.414-.641a1.5,1.5,0,0,0,1.456-1.616l-2.083-7.478-4.006.948a4.848,4.848,0,0,1-4.006-.414l-1.429-.828A2.671,2.671,0,0,0,152.461,180.914Z" transform="translate(45.794 60.435)"/><path class="u" d="M124.071,177.029l-3.646,3.606-8.213,2a2.577,2.577,0,0,0-1.816,1.643l-.414,1.189a.895.895,0,0,0,.855,1.189l23.917-.494a1.509,1.509,0,0,0,1.456-1.616L135.6,176.9l-2.951.988a4.888,4.888,0,0,1-4.006-.427l-1.416-.815a2.591,2.591,0,0,0-3.152.387Z" transform="translate(36.272 59.125)"/><rect class="s" width="75.357" height="27.282" rx="3.09" transform="translate(343.468 81.34) rotate(180)"/><rect class="g" width="16.492" height="15.651" rx="0.97" transform="translate(335.255 75.531) rotate(180)"/><path class="g" d="M208.482,47.853h35.856a1.122,1.122,0,0,0,1.122-1.122h0a1.135,1.135,0,0,0-1.122-1.122H208.482a1.122,1.122,0,0,0-1.122,1.122h0a1.108,1.108,0,0,0,1.122,1.122Z" transform="translate(68.95 15.298)"/><rect class="g" width="14.756" height="2.243" rx="0.84" transform="translate(314.409 68.827) rotate(180)"/><rect class="g" width="17.2" height="2.243" rx="0.84" transform="translate(293.51 68.827) rotate(180)"/><path class="g" d="M215.2,56.354h26.882a1.135,1.135,0,0,0,1.122-1.122h0a1.122,1.122,0,0,0-1.122-1.122H215.2a1.108,1.108,0,0,0-1.122,1.122h0a1.122,1.122,0,0,0,1.122,1.122Z" transform="translate(71.204 18.149)"/><path class="y" d="M79.292,97.391s11.071,0,8.774-11.351C88.065,85.987,76.461,87.189,79.292,97.391Z" transform="translate(25.845 28.858)"/><path class="y" d="M80.46,96.965s-11.2,0-8.881-11.485C71.58,85.48,83.331,86.642,80.46,96.965Z" transform="translate(23.301 28.671)"/><path class="j" d="M79.341,97.994S71.181,89.835,80.81,82.53C80.81,82.53,88.528,92.092,79.341,97.994Z" transform="translate(24.928 27.682)"/><path class="z" d="M89.725,93.39H71.83l2.844,12.419H86.653Z" transform="translate(23.492 31.324)"/><line class="aa" y2="87.643" transform="translate(148.778 139.404)"/></g></svg>