<svg xmlns="http://www.w3.org/2000/svg" xmlns:xlink="http://www.w3.org/1999/xlink" width="718" height="693" viewBox="0 0 718 693"><defs><style>.a{fill:#f4f8fd;}.b{fill:#dee1ea;}.c{fill:#253aac;}.d{fill:#4689d7;}.e{fill:#767fe3;}.f{fill:#1522ed;}.g{fill:#135af7;}.h{fill:#4d4cad;}.i,.j,.k{opacity:0.51;}.i{fill:url(#a);}.j{fill:url(#b);}.k,.m{fill:#fff;}.l{fill:#ff9100;}.n{fill:#fcd6cb;}.o{fill:#fab9af;}.p{fill:#3b3b8f;}.q{fill:#c8e6eb;}.ab,.r{fill:#09cb7f;}.r{opacity:0.19;}.s{fill:#41378b;}.t{fill:#3b317e;}.u{fill:#1552d9;}.v{fill:#fa968c;}.w{fill:#d6b1a6;}.x{fill:#b0b0ff;}.y{fill:#fdfeff;}.z{fill:#1c9585;}.aa{fill:#00d280;}.ac{fill:#e4f2f6;}</style><linearGradient id="a" x1="0.751" y1="0.019" x2="0.079" y2="0.685" gradientUnits="objectBoundingBox"><stop offset="0" stop-color="#fff"/><stop offset="1" stop-color="#fff" stop-opacity="0"/></linearGradient><linearGradient id="b" x1="0.67" y1="0.283" x2="0.149" y2="0.949" xlink:href="#a"/></defs><path class="a" d="M420.543,26.912A339.238,339.238,0,0,0,375.48,29.9,323.99,323.99,0,0,1,217.84,11.418,176.413,176.413,0,0,0,162.3.084C75.444-3.091,2.848,55.867.054,132.16-1.534,176.8,21.2,217.437,57.724,244.138A200.017,200.017,0,0,1,131.653,351.8c32.963,117.027,155.322,197.542,288.89,197.542,164.245,0,297.432-116.963,297.432-261.262S584.788,26.912,420.543,26.912Z" transform="translate(0.025 0.039)"/><path class="b" d="M186.515,212.522c0,3.18-41.529,5.692-92.726,5.692S1,215.67,1,212.522s41.5-5.692,92.726-5.692S186.515,209.374,186.515,212.522Z" transform="translate(2.258 450.126)"/><path class="b" d="M141.513,212.522c0,3.18-17.68,5.692-39.463,5.692S62.62,215.67,62.62,212.522s17.648-5.692,39.431-5.692S141.513,209.374,141.513,212.522Z" transform="translate(136.285 450.126)"/><path class="b" d="M393.726,213.257c0,4.929-67.1,8.935-149.837,8.935s-139.439-4.007-139.439-8.935,56.666-8.967,139.439-8.967S393.726,208.3,393.726,213.257Z" transform="translate(226.81 444.589)"/><rect class="c" width="448.938" height="299.133" rx="8.85" transform="translate(160.473 183.295)"/><rect class="d" width="402.194" height="252.325" transform="translate(183.859 206.696)"/><rect class="e" width="402.194" height="24.104" transform="translate(183.859 434.761)"/><rect class="e" width="402.194" height="11.956" transform="translate(183.859 206.839)"/><path class="f" d="M512.817,181.977H72.687A30.177,30.177,0,0,1,42.51,151.8H542.995A30.177,30.177,0,0,1,512.817,181.977Z" transform="translate(91.787 330.402)"/><path class="g" d="M512.817,171.581H72.687a30.177,30.177,0,0,1-28.3-19.811H42.51a30.177,30.177,0,0,0,30.177,30.273h440.1a30.177,30.177,0,0,0,30.177-30.177h-1.876A30.177,30.177,0,0,1,512.817,171.581Z" transform="translate(91.787 330.336)"/><rect class="g" width="471.929" height="5.915" transform="translate(148.607 476.317)"/><path class="g" d="M176.059,161.932H119.2A10.112,10.112,0,0,1,109.09,151.82h77.081A10.112,10.112,0,0,1,176.059,161.932Z" transform="translate(237.365 330.464)"/><rect class="h" width="55.203" height="9.54" transform="translate(198.44 466.818)"/><rect class="h" width="55.203" height="9.54" transform="translate(517.495 466.818)"/><path class="i" d="M192.1,65.09,57.97,199.25V317.415h.286L310.581,65.09Z" transform="translate(126.068 141.606)"/><path class="j" d="M69.76,317.415h73.583L395.636,65.09H322.053Z" transform="translate(151.607 141.606)"/><path class="k" d="M219.991,227.32,267.308,180V106.42L146.44,227.32Z" transform="translate(318.556 231.596)"/><path class="l" d="M117.417,41.75a7.14,7.14,0,0,0-7.14-7.14H72.64a7.14,7.14,0,0,0-7.14,7.14V65.743a7.14,7.14,0,0,0,7.14,7.14H83.752a5.816,5.816,0,0,1,4.809,2.542L90.68,78.6a.911.911,0,0,0,1.515,0l2.119-3.178a5.816,5.816,0,0,1,4.8-2.542h11.123a7.14,7.14,0,0,0,7.182-7.14Z" transform="translate(220.329 119.802)"/><path class="l" d="M151.859,90.642a7.082,7.082,0,0,0-7.082-7.082H107.432a7.082,7.082,0,0,0-7.082,7.082V114.5a7.072,7.072,0,0,0,7.082,7.072h11.033a5.769,5.769,0,0,1,4.771,2.532l2.1,3.152a.914.914,0,0,0,1.513,0l2.1-3.152a5.769,5.769,0,0,1,4.771-2.532h11.033a7.072,7.072,0,0,0,7.082-7.072Z" transform="translate(349.345 235.158)"/><path class="l" d="M206.427,58.577a6.377,6.377,0,0,0-6.386-6.377H166.329A6.377,6.377,0,0,0,160,58.577v21.46a6.377,6.377,0,0,0,6.377,6.386h9.949a5.2,5.2,0,0,1,4.3,2.274l1.895,2.842a.824.824,0,0,0,1.364,0l1.895-2.842a5.183,5.183,0,0,1,4.292-2.274h9.949a6.386,6.386,0,0,0,6.4-6.386Z" transform="translate(354.696 169.029)"/><path class="m" d="M95.806,46.087a5.5,5.5,0,1,1-5.5-5.487,5.5,5.5,0,0,1,5.5,5.487Z" transform="translate(221.471 120.159)"/><path class="m" d="M99.154,65.425a1.674,1.674,0,0,0,1.642-1.97c-1.059-5.36-5.2-9.375-10.222-9.375s-9.195,4.015-10.212,9.375A1.663,1.663,0,0,0,82,65.425Z" transform="translate(221.206 120.941)"/><path class="m" d="M135.984,101.534a2.974,2.974,0,0,0-2.879-3.657h-3.152a1.124,1.124,0,0,1-1.051-1.492l1.692-3.331a1.776,1.776,0,0,0-1.587-2.574h0a2.848,2.848,0,0,0-2.49,1.482l-2.984,5.37a.988.988,0,0,1-.862.5A1.461,1.461,0,0,0,121.21,99.3v12.252a1.461,1.461,0,0,0,1.461,1.545h8.942a2.259,2.259,0,0,0,2.207-1.765Z" transform="translate(350.408 235.514)"/><path class="a" d="M188.984,61.677a5.685,5.685,0,0,0-3.013.853,3.942,3.942,0,0,1-4.207,0A5.685,5.685,0,0,0,173,67.115c-.246,5.751,6.954,10.858,9.759,12.62a2.056,2.056,0,0,0,2.189,0c2.71-1.753,9.579-6.689,9.769-12.09a5.846,5.846,0,0,0-5.732-5.969Z" transform="translate(354.023 168.532)"/><circle class="g" cx="11.509" cy="11.509" r="11.509" transform="translate(545.469 302.601)"/><path class="n" d="M21.782,197.157,15.613,217.6a8.936,8.936,0,0,1-1.208,2.544l-4.356,6.36A7.377,7.377,0,0,0,14.023,237.7s7.727,3.18,16.822,6.074,20.987.509,20.987-1.94c0-5.469-5.088-1.145-13.61-6.837-2.862-1.908-4.738-3.911-7.346-5.946-7.314-5.756-.922-20.32,3.561-28.619a5.024,5.024,0,0,0-3.4-7.314l-2.1-.445a6.137,6.137,0,0,0-7.155,4.484Z" transform="translate(19.222 419)"/><path class="o" d="M63.116,159.414c.922-4.007,1.431-8.141,1.972-9.7a19.975,19.975,0,0,1,1.654-2.671,12.052,12.052,0,0,0,2.417-5.024v-6.869c0-3.18,1.622-5.851,4.929-5.851h0c3.625,0,5.247,3.18,4.833,6.646v4.8a20.16,20.16,0,0,0,1.495,8.363,30.94,30.94,0,0,1-1.336,17.426c-1.049,3.18-8.872,2.608-14.977,2.067-4.134-.35-9-1.654-8.109-3.5,1.367-2.862,16.408.859,13.9-8.013,0-.413-.509-1.526-1.081-1.526-1.654,0-1.94,3.625-2.735,5.406-1.113,2.512-2.894,3.53-3.975,3.18S62.607,162.307,63.116,159.414Z" transform="translate(121.66 281.439)"/><path class="g" d="M66.268,72.57S119.69,144.4,119.69,184.6c0,27.506-11.543,87.352-11.543,87.352a38.843,38.843,0,0,1-5.469.509,27.854,27.854,0,0,1-5.5-.7s.35-76.318-4.229-90.087-49.225-78.7-50.083-93.044S57.237,60.964,66.268,72.57Z" transform="translate(93.238 148.299)"/><rect class="p" width="244.089" height="154.734" rx="4.48" transform="matrix(0.992, 0.125, -0.125, 0.992, 95.971, 277.234)"/><rect class="m" width="213.689" height="131.934" rx="1.24" transform="matrix(0.992, 0.125, -0.125, 0.992, 109.622, 290.465)"/><path class="q" d="M246.064,127.915l.859-6.614a3.18,3.18,0,0,0-2.8-3.593L38.48,91.6a3.18,3.18,0,0,0-3.593,2.8l-.827,6.614Z" transform="translate(74.12 199.354)"/><circle class="r" cx="52.945" cy="52.945" r="52.945" transform="translate(129.329 359.847) rotate(-38.11)"/><path class="m" d="M56.554,160.771l6.36-49.352a6.582,6.582,0,0,1,10.843-4.134l33.612,29.287A6.614,6.614,0,0,1,106,147.447L66.189,167.48a6.582,6.582,0,0,1-9.635-6.71Z" transform="translate(122.962 230.019)"/><path class="n" d="M41.4,199.95v17.012A36,36,0,0,1,40,227.2l-1.463,5.247A6.71,6.71,0,0,0,44.9,241H81.561a1.685,1.685,0,0,0,1.749-1.4c.413-4.961-13.928-8.3-24.74-12.5-8.236-3.18-7.791-17.966-6.773-26.616a5.215,5.215,0,0,0-5.628-5.787h0A5.215,5.215,0,0,0,41.4,199.95Z" transform="translate(83.349 423.649)"/><rect class="m" width="6.284" height="15.163" rx="1.7" transform="translate(462.034 333.376)"/><path class="p" d="M22.409,48.347c1.526-6.01,10.017-9,19.079-6.71a55.3,55.3,0,0,1,7.25,2.512,23.309,23.309,0,0,0,17.68,0,22.991,22.991,0,0,1,8.84-1.781c12.91,0,25.089,9.985,30.114,19.588,1.367,2.576-.223,5.31-.159,8.077.827,30.241-14.246,25.6-30.622,25.6s-28.047-9.54-28.047-22.641V71.306a6.614,6.614,0,0,0-5.819-7.123,34.309,34.309,0,0,1-4.961-.636C26.829,61.1,20.851,54.357,22.409,48.347Z" transform="translate(48.39 89.034)"/><path class="o" d="M133.653,233.725,110.916,73.967,49.576,65.54,17.65,232.58Z" transform="translate(38.553 142.65)"/><path class="s" d="M32.64,122.822l67.923-5.692s6.837,49.479-10.335,139.025c-8.013,42.007-24.644,122.267-24.644,122.267a19.079,19.079,0,0,1-12.72,1.208s-1.272-35.392-2.067-73.519c-.731-36.569-.954-75.65-3.18-88.433C42.625,191.571,32.64,122.822,32.64,122.822Z" transform="translate(71.23 254.589)"/><path class="t" d="M75.96,123.722a24.708,24.708,0,0,0-17.267,26.33c2.957,27.411,4.865,65.379-6.36,82.328-3.72,5.6-2.608-5.819-4.929-18.6C42.667,187.669,32.65,118.92,32.65,118.92Z" transform="translate(71.252 258.791)"/><path class="s" d="M92.332,130.477c7.028,37.682,22.7,94-7.5,146.911S22.915,385.314,22.915,385.314A16.981,16.981,0,0,1,11.69,381.4s5.279-24.008,12.942-52.023c8.745-32.022,19.843-69.735,16.663-89.387-5.946-36.823-12.72-85.857-10.684-109.707S88.644,110.793,92.332,130.477Z" transform="translate(25.561 247.792)"/><path class="m" d="M133.535,236.014a5.978,5.978,0,0,0,3.18-6.36l-24.93-155.72L50.38,65.54,17.4,229.941a5.6,5.6,0,0,0,4.484,6.678,389.221,389.221,0,0,0,69.958,6.709C114.71,243.328,127.684,238.717,133.535,236.014Z" transform="translate(37.749 142.643)"/><path class="g" d="M74.753,74.3c0,11.225,2.194,20.256,3.18,31.417,2.29,22.927,2.417,53.359,3.18,88.369,1.4,60.259-2.449,76.572-18.507,88.083s-46.776-7.7-47.7-14.119,5.978-85.189,13.769-119.342,29.6-83.218,29.6-83.218l9.254.986A7.886,7.886,0,0,1,74.562,74.3Z" transform="translate(32.393 142.503)"/><path class="u" d="M36.5,146.435C44.064,134.383,61.14,95.111,61.14,84.013L49.343,65.57s-20.956,49.861-28.619,84.013S28.324,159.759,36.5,146.435Z" transform="translate(40.695 142.754)"/><path class="g" d="M41.75,67.47a262.6,262.6,0,0,1,8.586,59.814c.922,34.979,4.134,113.65,16.09,145.035,3.784,9.985,31.258-16.472,31.258-24.39s-7.25-34.343-14.119-58.415C78,170.085,70.528,104.738,67.984,80.253c-.6-5.5-1.431-9.858-6.932-10.621Z" transform="translate(90.897 146.819)"/><path class="p" d="M35.174,48.073a5.12,5.12,0,0,0-5.978,6.36,16.949,16.949,0,0,1,0,8.681c-1.94,7.187,6.519,9.254,9.54,12.147s3.657,9.031,8.84,9.54,17.14-4.07,17.076-9.158C64.684,71.6,47.957,51.253,35.174,48.073Z" transform="translate(63.099 104.484)"/><path class="o" d="M52.129,45.05c-13.674,0-18.793,9.762-19.079,27.792a36.632,36.632,0,0,0,5.374,17.712,13.324,13.324,0,0,1,1.272,10.43L36.707,111.16c-2.035,9.54,2.449,14.628,9.063,16.5a12.72,12.72,0,0,0,10.048-1.654c3.4-2.194,3.689-6.9,3.18-10.907l-.763-2.926a7.187,7.187,0,0,1,5.183-8.967c10.525-2.321,12.052-13.292,14.85-30.368C81.13,55.035,65.835,45.05,52.129,45.05Z" transform="translate(72.124 98.124)"/><path class="p" d="M83.867,54.588A10.271,10.271,0,0,0,75.25,45.4a44.107,44.107,0,0,1-5.5-.795L54.9,41.9c-9.54,0-25.153,5.374-23.181,19.079L33.4,70.265a9.19,9.19,0,0,0,7.918,7.5h0a1.972,1.972,0,0,1,1.685,0A2,2,0,0,1,44.055,79.1l1.24,5.31c1.685,0,2.067-5.756,2.067-7.441a9.285,9.285,0,0,1,7.314-9.063c5.247-1.177,6.36-5.279,12.243-3.689l4.388,1.463c5.024,1.336,11.352-2.29,11.352-7.473C82.659,57.386,83.867,55.605,83.867,54.588Z" transform="translate(68.846 91.283)"/><path class="o" d="M43.779,59.078c0,4.2-1.558,7.568-5.565,7.568S31.6,60.922,31.6,56.725s2.576-5.215,6.614-5.215S43.779,54.912,43.779,59.078Z" transform="translate(68.963 112.2)"/><path class="v" d="M50.36,67.652A3.18,3.18,0,0,1,47.18,71.4h0A3.18,3.18,0,0,1,44,68.447V55.186a1.844,1.844,0,0,1,1.876-1.876,1.463,1.463,0,0,1,1.463,1.177Z" transform="translate(95.805 116.116)"/><path class="p" d="M44.65,49.731c5.342,1.4,8.363,10.239,8.522,13.737h.159a2,2,0,0,0,1.972-2V55.741c0-.986-2.989-7.441-3.975-7.441Z" transform="translate(97.219 105.216)"/><path class="o" d="M29.013,156.775c-.954-4.038-1.463-8.172-2-9.73a23.789,23.789,0,0,0-1.622-2.671,11.7,11.7,0,0,1-2.417-5.024v-6.869c0-3.18-1.622-5.851-4.929-5.851h0c-3.593,0-5.247,3.18-4.8,6.646v4.833a20.479,20.479,0,0,1-1.526,8.331,30.686,30.686,0,0,0,1.367,17.426c1.018,3.18,5.183,5.279,10.875,7.632,2.767,1.145,7.441,2.1,5.66-1.24-1.495-2.83-9.858-6.964-7.377-15.9,0-.445.541-1.526,1.081-1.558,1.654,0,1.972,3.625,2.767,5.406,1.113,2.512,2.862,3.53,3.943,3.18S29.681,159.606,29.013,156.775Z" transform="translate(24.138 275.625)"/><path class="g" d="M61.207,69.888S7.753,141.722,7.88,181.948c0,27.506,11.511,87.32,11.511,87.32a38.958,38.958,0,0,0,5.5.509,29.1,29.1,0,0,0,5.5-.668s-.382-76.477,4.2-90.118,47.73-78.83,49.988-93.012C87,70.937,74.4,58.568,61.207,69.888Z" transform="translate(17.256 142.506)"/><path class="h" d="M263.643,222.562a24.674,24.674,0,0,0-5.183.541,9.094,9.094,0,0,1-9.094-2.989,18.6,18.6,0,0,0-13.61-6.646,7.95,7.95,0,0,1-7-4.42,23.436,23.436,0,0,0-11.225-11,13.419,13.419,0,0,1-7.791-12.4,27.03,27.03,0,0,0-8.013-19.556,16.535,16.535,0,0,1-4.674-15.741,26.773,26.773,0,0,0,.445-10.589A27.061,27.061,0,1,0,161,169.171a27.029,27.029,0,0,0,21.814,43.183,21.78,21.78,0,0,0,2.894-.159A23.341,23.341,0,0,0,210.475,242.4a15.708,15.708,0,0,1,12.37,3.72,18.761,18.761,0,0,0,21.083,2.512,14.818,14.818,0,0,1,11.829-1.145c11.1,4.038,26.075-1.431,26.075-11.8C281.705,228.572,273.628,222.562,263.643,222.562Z" transform="translate(312.578 254.321)"/><path class="s" d="M362.22,229.373c-18.6-15.9-101.757-48.97-101.757-48.97-6.36-2.608-41.116-2.83-46.872-.254,0,0-85.857,34.12-103.124,49.288-4.134,3.657-7.409,11.861-5.215,17.235,5.183,12.465,78.893,9.54,114.731-.954a55.68,55.68,0,0,1,32.244.191c37.173,11.575,114.635,16.853,120.264,4.325C375.035,244.891,374.3,239.708,362.22,229.373Z" transform="translate(227.276 387.993)"/><path class="w" d="M142.587,211.686c6.678,1.177,11.13-3.911,15.9-4.993a14.913,14.913,0,0,1,13.26,3.466c10.335,9,20.065,7.95,30.845,8.2l54.44-9.858s46.586-18.38,61.849-15.168c16.949,3.53,24.326,12.72,24.326,21.623,0,8.268-29.541,23.277-64.2,22.991A633.5,633.5,0,0,1,175.34,227.713s-55.871-14.214-56.411-16.758S135.909,210.51,142.587,211.686Z" transform="translate(258.571 419.894)"/><path class="h" d="M157.7,176.342a1.272,1.272,0,0,1,1.049,1.208,11.321,11.321,0,0,0,2.608,6.9,11.67,11.67,0,0,0,8.9,4.229,5.342,5.342,0,0,1,4.643,2.894,9.54,9.54,0,0,0,3.18,3.5,10.112,10.112,0,0,0,10.239.636,9.856,9.856,0,0,0,3.18-2.576,8.363,8.363,0,0,1,6.678-3.18,10.112,10.112,0,0,0,10.653-10.907,9.826,9.826,0,0,0-2.035-6.36,6.614,6.614,0,0,1-1.526-4.992,8.268,8.268,0,0,0-1.844-6.36,7.981,7.981,0,0,0-3.53-2.48,5.788,5.788,0,0,1-3.4-6.869c.286-1.145.541-2.353.731-3.625,1.558-10.939-9.095-21.56-9.095-21.56h0a6.932,6.932,0,0,1-8.395-1.844l-4.07-4.929a1.177,1.177,0,0,0-1.844,1.431l2.544,3.371a10.557,10.557,0,0,1,0,12.338,18.6,18.6,0,0,0-3.18,7.759,31.45,31.45,0,0,0-.191,7.886,8.268,8.268,0,0,1-5.406,8.713,21.146,21.146,0,0,1-13.26-.954,19.906,19.906,0,0,1-8.3-5.978l-5.342-6.36a1.152,1.152,0,0,0-1.781,1.463l2.7,3.18a6.582,6.582,0,0,1,1.431,3.975C143.361,163.749,148.195,174.466,157.7,176.342Z" transform="translate(301.665 260.483)"/><ellipse class="h" cx="35.678" cy="34.502" rx="35.678" ry="34.502" transform="translate(413.485 411.213) rotate(-38.81)"/><path class="g" d="M194.866,275.29l-19.588.6c-13.228.382-24.74-2.48-26.107-15.645l-18.825-96.637c-.254-6.964,5.31-13.8,11.479-17.044,0,0,54.44-10.08,75.618,1.908l1.685.6A19.588,19.588,0,0,1,229.145,165.3l-10.112,93.9C217.952,271.983,207.681,274.908,194.866,275.29Z" transform="translate(283.56 310.283)"/><path class="u" d="M218.371,146.54c-.763,1.336-1.59,2.608-2.449,3.848a58.924,58.924,0,0,0-10.78,32.594c-.254,10.176.8,20.86-2.29,27.57-3.752,8.172-17.458,8.2-24.231,2.258l-.223-.191a10.43,10.43,0,0,0-13.833-.636,21.274,21.274,0,0,1-14.373,5.024,20.892,20.892,0,0,1-16.5-7.187l8.172,41.975c1.367,13.165,12.879,15.9,26.107,15.645l19.588-.6c12.72-.382,23.086-3.18,24.167-16.09l10.112-93.9a17.9,17.9,0,0,0-3.466-10.3Z" transform="translate(290.863 318.861)"/><path class="g" d="M173.238,175.182c-5.438,17.012-37.014,83.218-46.967,80.038s7.791-68.813,13.228-85.857,14.373-28.238,24.326-25.089S178.644,158.17,173.238,175.182Z" transform="translate(268.283 312.789)"/><path class="g" d="M156.987,177.408c7.886,16.058,50.4,74.855,59.75,70.276s-19.334-64.87-27.188-80.928S171.2,140.9,161.82,145.513,149.228,161.381,156.987,177.408Z" transform="translate(332.083 314.163)"/><path class="w" d="M225.294,172.219c-11.607,1.049-84.395,11.67-83.822,18.094s74.346,6.2,85.857,5.12,16.6-6.9,15.9-13.324S236.933,171.138,225.294,172.219Z" transform="translate(307.768 374.489)"/><path class="o" d="M169.244,134.32H143.805a20.287,20.287,0,0,1,1.177,11.289l-2.449,13.133c-1.495,12.147,3.466,18.38,10.4,20.224A11.384,11.384,0,0,0,163.2,176.1c3.371-3.18,3.371-9.094,2.449-14.119l-.986-3.625C163.234,153.495,169.244,134.32,169.244,134.32Z" transform="translate(309.577 292.357)"/><path class="v" d="M168.189,134.32H142.75a20.287,20.287,0,0,1,1.177,11.289l-.89,4.8a50.463,50.463,0,0,0,8.681,8.236,7.664,7.664,0,0,0,9.7-.254c.636-.541,1.336-1.113,2.035-1.749C163.26,150.092,168.189,134.32,168.189,134.32Z" transform="translate(310.632 292.373)"/><path class="o" d="M148.991,136.17c.254,4.007.477,9.031-3.18,9.254s-7.473-6.837-7.727-10.844,1.94-5.12,5.469-5.342S148.736,132.195,148.991,136.17Z" transform="translate(300.449 281.298)"/><path class="o" d="M152.285,136.04c-.254,4.007-.477,9.031,3.18,9.222s7.473-6.837,7.727-10.812-1.94-5.12-5.469-5.342S152.54,131.97,152.285,136.04Z" transform="translate(331.118 281.015)"/><path class="o" d="M186.317,148.586c0,17.648-11.607,29.7-18.38,35.233a7.664,7.664,0,0,1-9.7.286A43.883,43.883,0,0,1,139.7,148.968c0-20.669,11.257-29.128,23.5-29.128S186.317,127.885,186.317,148.586Z" transform="translate(303.977 260.836)"/><path class="v" d="M153.326,145.249a3.721,3.721,0,0,1-4.1,4.134h0a3.752,3.752,0,0,1-3.371-3.911l1.654-15.9a2.322,2.322,0,0,1,.8-1.495,2.226,2.226,0,0,1,1.654-.477,1.749,1.749,0,0,1,1.59,1.59Z" transform="translate(317.389 277.723)"/><path class="h" d="M193.185,127.924h0c2.035-2.735-3.625-11.893-13.61-9.317h0a17.013,17.013,0,0,1-10.653-.763,22.261,22.261,0,0,0-10.176-1.24,13.737,13.737,0,0,0-11.034,7.155,27.7,27.7,0,0,0-2.862,2.321c-8.2,7.409-6.741,22.259-6.741,22.259h0a6.646,6.646,0,0,1,5.279,6.36v6.741a1.177,1.177,0,0,0,2.321,0l.191-4.229a10.557,10.557,0,0,1,7.759-9.54,18.6,18.6,0,0,0,7.409-3.943,31.8,31.8,0,0,0,5.151-5.978,8.363,8.363,0,0,1,9.73-3.18,21.369,21.369,0,0,1,9.54,9.19,20,20,0,0,1,2.608,9.889v8.363a1.177,1.177,0,1,0,2.321,0v-4.229a6.36,6.36,0,0,1,1.431-3.943c4.325-5.533,7.441-16.885,1.3-24.422a1.3,1.3,0,0,1,.032-1.495Z" transform="translate(300.285 253.513)"/><path class="n" d="M231.508,181.112a31.8,31.8,0,0,0-4.9-9.921c-2.067-2.353-10.653-.286-15.645,1.176a23.212,23.212,0,0,1-7.7.89c-19.079-.954-55.68-.445-64.17,1.208-11.448,2.258-17.012,11.257-15.677,17.585,2.131,10.112,8.268,12.4,19.715,10.144a426.515,426.515,0,0,0,60.068-20.606,28.015,28.015,0,0,1,15.359-2.226Z" transform="translate(268.09 370.269)"/><path class="n" d="M300.849,238.882c-3.816-1.208-14.977-.986-21.75-1.208s-10.08-6.074-14.4-8.109a14.914,14.914,0,0,0-13.674.7c-11.956,6.678-21.242,3.657-31.8,1.685,0,0-65.506-38.159-85.857-39.622-17.267-1.145-25.821,7.759-28.237,16.186-3.18,10.621,5.247,18.189,15.709,21.719,37.141,12.561,96.637,16.885,123.062,16.44,0,0,33.993-2.926,51.96.286,6.8,1.24,8.776-.827,9.826-3.18S304.633,240.059,300.849,238.882Z" transform="translate(227.145 418.296)"/><rect class="d" width="120.232" height="83.79" rx="3.37" transform="translate(402.104 540.222)"/><path class="x" d="M238.117,170.12H135.375a8.745,8.745,0,0,0-8.745,8.745v2.608a8.745,8.745,0,0,1,8.745-8.745H238.117a8.745,8.745,0,0,1,8.745,8.745v-2.608a8.745,8.745,0,0,0-8.745-8.745Z" transform="translate(275.474 370.281)"/><path class="y" d="M162.726,197.676a14.373,14.373,0,0,1-3.434-8.872v-1.558a5.406,5.406,0,0,0-4.007-5.056,1.526,1.526,0,0,1-1.145-1.431v-1.908a1.3,1.3,0,0,0-1.367-1.24,1.081,1.081,0,0,0-.859.382.922.922,0,0,0-.191.89l.509,1.654a1.494,1.494,0,0,1-1.049,1.844,5.342,5.342,0,0,0-3.625,4.929v1.081a13.8,13.8,0,0,1-3.18,9.063,9.826,9.826,0,0,0-2.226,8.649,11,11,0,0,0,8.776,8.077,11.289,11.289,0,0,0,13.992-10.271A9.54,9.54,0,0,0,162.726,197.676Z" transform="translate(308.818 386.428)"/><path class="g" d="M444.5,396.476H137.1a50.306,50.306,0,1,1,0-100.58h79.116v3.18H137.1a47.126,47.126,0,1,0,0,94.22H444.5A47.19,47.19,0,0,0,491.63,346.17V186.634A47.158,47.158,0,0,0,444.5,139.54H423.452v-3.18H444.5a50.338,50.338,0,0,1,50.306,50.274V346.17A50.37,50.37,0,0,1,444.5,396.476Z" transform="translate(185.572 296.508)"/><path class="z" d="M55.55,156.682s35.742,39.24,31.163,62.644a45.282,45.282,0,0,0,8.141,36.155,16.758,16.758,0,0,0,28.937-5.5c4.2-12.72,6.105-32.34-6.36-55.807C94.822,151.562,55.55,156.682,55.55,156.682Z" transform="translate(120.91 340.389)"/><path class="aa" d="M55.55,156.682s35.742,39.24,31.163,62.644a45.282,45.282,0,0,0,8.141,36.155,16.758,16.758,0,0,0,28.937-5.5c4.2-12.72,6.105-32.34-6.36-55.807C94.822,151.562,55.55,156.682,55.55,156.682Z" transform="translate(120.91 340.389)"/><path class="ab" d="M86.909,219.216a45.282,45.282,0,0,0,8.141,36.155,11.878,11.878,0,0,0,1.018,1.145,15.9,15.9,0,0,1,4.42,9.858v1.367h8.9a165.072,165.072,0,0,1-2.449-29.287v-5.088h0A85.031,85.031,0,0,0,96.576,194c-11.8-22.673-27.506-32.912-40.289-37.459H55.46S91.488,195.812,86.909,219.216Z" transform="translate(120.721 340.498)"/><path class="z" d="M139.374,164.7s-33.1,29.955-31.163,49.924a38.159,38.159,0,0,1-9.794,29.637A14.087,14.087,0,0,1,74.5,237.142c-2.512-11.034-2.512-27.57,9.858-46.2C106.748,157.231,139.374,164.7,139.374,164.7Z" transform="translate(159.273 356.757)"/><path class="ab" d="M139.374,164.7s-33.1,29.955-31.163,49.924a38.159,38.159,0,0,1-9.794,29.637A14.087,14.087,0,0,1,74.5,237.142c-2.512-11.034-2.512-27.57,9.858-46.2C106.748,157.231,139.374,164.7,139.374,164.7Z" transform="translate(159.273 356.757)"/><path class="aa" d="M84.656,251a13.546,13.546,0,0,1,4.1-6.36,11.794,11.794,0,0,0,.922-.859,38.158,38.158,0,0,0,9.794-29.637c-1.94-19.97,31.163-49.924,31.163-49.924h-.668c-11.1,2.767-25.089,10.08-36.791,28.11a71.517,71.517,0,0,0-11.893,32.117h0c0,1.463-.254,2.894-.286,4.261a136.738,136.738,0,0,1-3.88,22.259Z" transform="translate(167.839 357.24)"/><path class="s" d="M103.921,254.187a16.09,16.09,0,0,0,16.249-15.645V188.49H66.78v50.052a16.09,16.09,0,0,0,16.249,15.645Z" transform="translate(145.346 410.146)"/><path class="t" d="M82.035,254.187a16.09,16.09,0,0,0,16.249-15.645V188.49H82.035v49.861a26.489,26.489,0,0,1-5.215,15.9Z" transform="translate(167.202 410.146)"/><rect class="s" width="36.793" height="13.228" transform="translate(212.134 616.285)"/><rect class="ac" width="53.391" height="2.194" transform="translate(212.126 614.091)"/></svg>