<?xml version="1.0" standalone="no"?>
<!DOCTYPE svg PUBLIC "-//W3C//DTD SVG 20010904//EN"
 "http://www.w3.org/TR/2001/REC-SVG-20010904/DTD/svg10.dtd">
<svg version="1.0" xmlns="http://www.w3.org/2000/svg"
 width="824.000000pt" height="824.000000pt" viewBox="0 0 824.000000 824.000000"
 preserveAspectRatio="xMidYMid meet">
<metadata>
Created by potrace 1.14, written by Peter Selinger 2001-2017
</metadata>
<g transform="translate(0.000000,824.000000) scale(0.100000,-0.100000)"
fill="#000000" stroke="none">
<path d="M4010 8222 c-73 -24 -168 -73 -323 -165 -71 -43 -133 -77 -138 -77
-5 0 -9 -4 -9 -9 0 -5 -10 -13 -22 -17 -12 -3 -67 -34 -122 -67 -151 -90 -353
-206 -411 -235 -16 -9 -32 -18 -35 -21 -6 -8 -150 -91 -240 -139 -36 -20 -135
-77 -220 -127 -85 -51 -247 -145 -360 -210 -113 -65 -285 -165 -382 -222 -97
-57 -181 -103 -187 -103 -5 0 -11 -4 -13 -8 -2 -4 -49 -34 -106 -67 -57 -33
-133 -77 -170 -99 -37 -21 -69 -42 -72 -45 -3 -3 -21 -15 -40 -25 -60 -33 -84
-47 -115 -67 -16 -10 -41 -25 -55 -32 -33 -16 -200 -120 -272 -169 -82 -55
-151 -126 -170 -175 -36 -92 -9 -194 74 -284 32 -34 141 -119 153 -119 3 0 11
-5 18 -10 16 -14 188 -120 194 -120 2 0 23 -13 46 -28 23 -16 72 -45 110 -66
37 -20 101 -57 143 -81 42 -25 80 -45 85 -45 5 0 9 -3 9 -7 0 -5 10 -13 23
-19 44 -21 122 -67 138 -80 8 -8 18 -14 21 -14 3 0 91 -51 194 -113 178 -107
216 -129 332 -193 90 -50 167 -98 170 -106 2 -4 7 -8 11 -8 5 0 49 -24 98 -52
50 -29 140 -82 202 -118 61 -36 238 -141 394 -234 155 -92 289 -171 297 -174
8 -3 29 -16 46 -29 17 -13 34 -23 38 -23 5 0 28 -13 53 -30 24 -16 45 -30 47
-30 2 0 56 -32 121 -70 358 -215 412 -237 567 -238 59 -1 124 4 145 9 44 12
106 40 111 52 2 4 8 7 13 7 11 0 109 59 127 77 7 7 19 13 27 13 7 0 15 3 17 8
4 9 131 88 213 132 33 18 62 35 65 39 3 3 19 14 35 24 41 24 210 128 243 149
15 10 34 21 42 25 8 4 57 33 108 65 51 32 97 58 101 58 5 0 14 6 20 14 7 8 31
24 54 35 52 26 110 61 117 70 3 3 16 12 30 18 43 21 155 87 377 220 95 57 177
103 183 103 5 0 10 4 10 9 0 5 12 15 28 22 56 29 327 193 334 203 4 6 8 7 8 3
0 -5 12 0 28 11 23 16 282 166 362 210 14 7 48 27 75 43 28 16 61 35 75 42 14
6 27 14 30 17 8 10 102 60 111 60 5 0 9 -704 9 -1624 l0 -1625 -57 -33 c-32
-18 -67 -38 -78 -45 -11 -7 -27 -15 -35 -20 -8 -4 -55 -30 -103 -59 -48 -29
-97 -56 -107 -59 -11 -4 -20 -11 -20 -16 0 -5 -3 -8 -7 -7 -5 1 -19 -5 -33
-14 -14 -8 -54 -32 -90 -53 -36 -21 -78 -46 -95 -55 -16 -10 -57 -33 -90 -52
-33 -19 -115 -67 -182 -106 -67 -40 -126 -72 -131 -72 -6 0 -12 -4 -14 -8 -1
-5 -41 -29 -88 -55 -47 -26 -121 -70 -165 -97 -44 -27 -92 -55 -107 -61 -16
-6 -28 -15 -28 -20 0 -5 -5 -9 -10 -9 -6 0 -65 -32 -133 -71 -67 -40 -147 -85
-177 -102 -30 -17 -56 -34 -58 -39 -2 -4 -8 -8 -13 -8 -5 0 -53 -26 -107 -59
-53 -32 -133 -77 -177 -100 -83 -44 -117 -63 -125 -71 -3 -3 -16 -11 -30 -19
-38 -22 -223 -131 -240 -142 -30 -19 -343 -199 -345 -199 -2 0 -60 -34 -130
-75 -141 -84 -123 -82 -220 -25 -22 13 -51 30 -65 37 -14 8 -38 23 -55 33 -16
11 -36 23 -44 26 -7 4 -95 55 -195 114 -99 58 -188 109 -196 113 -8 4 -28 16
-45 27 -16 10 -41 25 -55 33 -14 7 -97 55 -185 106 -204 119 -221 129 -275
159 -25 13 -49 28 -55 32 -5 4 -30 19 -55 32 -25 14 -85 48 -133 77 -49 28
-93 51 -98 51 -5 0 -9 4 -9 8 0 5 -12 14 -27 21 -16 7 -39 20 -53 29 -14 9
-27 17 -30 17 -3 0 -16 8 -30 16 -48 31 -225 134 -241 141 -9 3 -76 42 -150
86 -119 70 -309 179 -409 234 -19 11 -48 28 -65 39 -16 10 -37 22 -45 26 -8 4
-59 33 -113 65 -55 32 -100 58 -102 58 -6 0 -234 138 -277 167 l-36 24 -2 497
c-1 507 -3 597 -15 667 -9 57 -48 137 -81 170 -33 31 -155 91 -204 100 -18 3
-36 8 -39 10 -3 2 -46 6 -94 10 l-88 7 5 -585 c2 -322 6 -589 9 -594 3 -5 2
-15 -3 -23 -5 -8 -5 -21 1 -31 6 -12 5 -20 -1 -24 -6 -4 -8 -11 -5 -16 4 -5 8
-89 10 -186 3 -98 7 -189 11 -203 3 -14 7 -32 8 -42 3 -22 46 -86 82 -121 38
-38 164 -119 304 -197 63 -35 129 -74 146 -87 17 -12 33 -23 37 -23 3 0 89
-50 192 -110 103 -61 189 -110 192 -110 2 0 39 -22 82 -49 44 -27 81 -47 84
-45 2 3 10 -2 17 -11 7 -8 19 -15 26 -15 8 0 14 -4 14 -8 0 -4 12 -13 28 -20
15 -6 41 -20 57 -30 37 -24 195 -116 255 -150 25 -13 70 -39 100 -56 30 -18
62 -35 70 -40 18 -8 48 -26 212 -125 175 -106 428 -251 439 -251 5 0 9 -4 9
-9 0 -5 8 -11 18 -14 19 -7 76 -39 140 -80 23 -15 61 -37 82 -48 22 -12 43
-25 46 -31 3 -5 16 -13 27 -18 33 -14 224 -123 465 -266 324 -192 339 -198
442 -201 47 -1 114 4 150 11 66 12 210 73 210 88 0 4 5 8 10 8 6 0 53 27 106
60 52 33 125 76 162 96 37 19 76 40 87 47 120 73 143 87 149 87 9 0 90 54 94
63 2 4 7 5 12 2 4 -3 13 2 20 10 7 8 17 15 22 15 6 0 22 8 36 19 15 10 50 31
77 45 78 42 369 214 382 225 7 6 14 11 17 11 6 0 149 82 176 100 8 6 23 13 33
16 9 4 17 10 17 14 0 4 17 15 38 24 41 18 107 56 234 134 47 28 91 52 97 52 6
0 11 4 11 8 0 5 28 23 63 41 73 38 181 100 252 145 27 17 52 31 55 31 3 0 19
10 37 23 17 12 33 22 36 22 3 0 51 27 107 60 56 33 106 60 111 60 5 0 9 5 9
10 0 6 4 10 9 10 6 0 79 40 163 89 84 48 173 99 198 113 63 35 107 60 168 97
29 17 55 31 58 31 11 0 90 58 124 91 46 44 110 125 110 137 0 6 7 17 15 25 18
19 31 99 30 204 0 46 4 83 9 83 5 0 4 6 0 13 -9 12 -9 22 -2 105 3 24 1 45 -4
48 -5 3 -5 11 0 17 12 14 13 3115 2 3122 -5 3 -4 20 0 39 4 19 6 37 3 40 -2 2
-6 75 -8 161 -4 179 -17 232 -70 288 -45 48 -95 68 -175 71 -91 4 -182 -28
-310 -109 -22 -14 -44 -25 -50 -25 -5 0 -10 -4 -10 -10 0 -5 -7 -10 -15 -10
-8 0 -15 -4 -15 -10 0 -5 -3 -9 -7 -8 -5 1 -28 -11 -53 -27 -25 -15 -70 -42
-100 -58 -30 -16 -62 -36 -71 -43 -8 -8 -18 -14 -22 -14 -10 0 -312 -184 -315
-192 -2 -5 -7 -8 -12 -8 -5 0 -43 -20 -84 -45 -42 -25 -80 -45 -85 -45 -4 0
-18 -9 -31 -20 -13 -11 -29 -20 -37 -20 -7 0 -13 -4 -13 -10 0 -5 -4 -10 -10
-10 -5 0 -26 -12 -47 -26 -21 -14 -65 -40 -98 -56 -33 -17 -61 -34 -63 -39 -2
-5 -8 -9 -13 -9 -5 0 -43 -20 -83 -45 -41 -25 -79 -45 -84 -45 -6 0 -12 -3
-14 -8 -1 -4 -93 -61 -203 -126 -110 -66 -221 -132 -248 -148 -26 -15 -52 -28
-57 -28 -6 0 -10 -4 -10 -9 0 -5 -10 -13 -22 -18 -13 -4 -89 -47 -170 -95 -80
-49 -151 -88 -156 -88 -6 0 -12 -4 -14 -8 -1 -5 -28 -22 -58 -39 -120 -66
-155 -87 -160 -93 -3 -4 -30 -21 -60 -38 -71 -42 -80 -47 -173 -104 -43 -27
-79 -48 -81 -48 -2 0 -33 -17 -67 -38 -35 -22 -86 -51 -114 -67 -27 -15 -69
-39 -92 -52 -31 -17 -50 -22 -70 -17 -29 8 -107 48 -133 69 -8 7 -35 23 -60
36 -25 13 -47 27 -50 30 -3 3 -12 8 -20 12 -8 3 -36 19 -62 34 -84 50 -302
177 -323 189 -97 54 -336 193 -350 204 -5 4 -26 17 -45 27 -19 11 -98 56 -175
100 -77 44 -156 89 -175 100 -19 11 -59 34 -88 52 -29 17 -55 31 -58 31 -2 0
-21 11 -42 23 -20 13 -57 35 -82 49 -85 48 -225 131 -277 164 -28 19 -54 34
-58 34 -3 0 -31 16 -61 35 -30 19 -56 35 -59 35 -2 0 -91 50 -197 111 -106 62
-204 118 -218 126 -14 8 -38 23 -55 33 -34 21 -53 32 -140 80 -105 57 -109 60
-94 75 14 13 118 73 169 98 14 6 27 14 30 18 3 3 25 17 49 30 24 13 51 29 60
34 9 6 63 37 121 69 58 33 134 77 169 99 168 102 650 378 718 411 13 6 23 14
23 19 0 4 4 7 9 7 5 0 64 34 131 75 67 41 124 75 127 75 3 0 17 8 31 19 15 10
47 29 72 43 25 13 61 34 80 46 19 11 39 21 44 21 5 -1 12 3 15 8 3 5 56 38
116 73 61 34 124 71 140 81 17 10 36 22 44 26 20 9 302 171 321 183 8 6 22 13
30 17 8 4 61 35 117 70 122 74 202 113 232 113 13 0 35 -8 49 -18 15 -10 79
-47 142 -82 63 -35 131 -72 150 -83 19 -11 53 -30 75 -41 143 -77 270 -151
273 -158 2 -4 10 -8 19 -8 8 0 27 -8 41 -18 15 -11 41 -26 57 -34 17 -8 113
-61 215 -118 218 -121 303 -164 386 -196 184 -69 344 -40 513 95 70 56 111
100 111 117 0 16 -170 124 -222 141 -10 3 -18 8 -18 12 0 4 -16 13 -35 21 -19
8 -35 17 -35 22 0 4 -5 8 -11 8 -9 0 -163 84 -219 121 -8 5 -31 17 -50 27 -19
9 -37 19 -40 22 -3 3 -15 10 -26 17 -165 92 -204 113 -234 130 -19 11 -87 48
-150 84 -63 35 -117 66 -120 69 -3 3 -18 12 -35 20 -16 8 -32 17 -35 20 -3 3
-25 15 -50 28 -25 12 -63 33 -85 46 -22 12 -65 36 -95 53 -30 17 -97 54 -149
82 -140 78 -261 138 -306 151 -71 21 -184 22 -245 2z"/>
</g>
</svg>
