<svg xmlns="http://www.w3.org/2000/svg" width="1739.736" height="807.292" viewBox="0 0 1739.736 807.292"><defs><style>.a,.b,.e,.f,.g,.h,.i,.j,.k,.m,.n,.o,.q{fill:none;}.a,.b,.m{stroke:#09cb7f;}.a,.b,.e,.n,.o{stroke-linecap:round;}.a,.b,.e{stroke-width:3px;}.b{opacity:0.84;}.c{opacity:0.29;}.d{opacity:0.14;}.e{stroke:#f2734b;}.f{stroke:#135af7;stroke-width:4px;opacity:0.77;}.g,.i{stroke:#4689d7;}.g,.h,.i{stroke-width:2px;}.g{opacity:0.57;}.h{stroke:#a9b1c6;opacity:0.17;}.i{opacity:0.19;}.j{opacity:0.46;}.k{stroke:#f1f6fe;opacity:0.45;}.k,.m{stroke-width:10px;}.l{fill:#f4f8fd;}.m{opacity:0.16;}.n,.o{stroke:#707070;}.n{opacity:0.23;}.o{opacity:0.13;}.p,.r{stroke:none;}.r{fill:#135af7;}</style></defs><g transform="translate(-85.264 -6402.513)"><g transform="translate(-205.582 200.418)"><path class="a" d="M1487.109,6570.843l10.422,10.423" transform="translate(69 -201)"/><path class="b" d="M0,0,10.422,10.422" transform="translate(1566.531 6369.843) rotate(90)"/></g><g transform="translate(-985.582 827.418)"><path class="a" d="M1487.109,6570.843l10.422,10.423" transform="translate(69 -201)"/><path class="a" d="M0,0,10.422,10.422" transform="translate(1566.531 6369.843) rotate(90)"/></g><g class="c" transform="translate(-47.582 797.418)"><path class="a" d="M1487.109,6570.843l10.422,10.423" transform="translate(69 -201)"/><path class="a" d="M0,0,10.422,10.422" transform="translate(1566.531 6369.843) rotate(90)"/></g><g class="d" transform="translate(-1153.209 34.791)"><path class="e" d="M1487.109,6570.843l15.676,15.677" transform="translate(69 -201)"/><path class="e" d="M0,0,15.676,15.676" transform="translate(1571.785 6369.843) rotate(90)"/></g><g class="f" transform="translate(1539 6441)"><circle class="p" cx="7" cy="7" r="7"/><circle class="q" cx="7" cy="7" r="5"/></g><g class="g" transform="translate(143.523 6464.023) rotate(-30)"><rect class="p" width="19" height="19"/><rect class="q" x="1" y="1" width="17" height="17"/></g><g class="h" transform="translate(1625.523 7106.023) rotate(-30)"><rect class="p" width="19" height="19"/><rect class="q" x="1" y="1" width="17" height="17"/></g><g class="i" transform="translate(1348.523 7093.023) rotate(-30)"><rect class="p" width="19" height="19"/><rect class="q" x="1" y="1" width="17" height="17"/></g><g class="j" transform="translate(85.264 7078.191)"><path class="p" d="M9.309,0C14.45,0,7.09,7.442,13.014,9.639s1.435,8.978-3.706,8.978A9.309,9.309,0,0,1,9.309,0Z"/><path class="r" d="M 9.308590888977051 1.000003814697266 C 4.727221488952637 1.000003814697266 1.000001907348633 4.72722339630127 1.000001907348633 9.30859375 C 1.000001907348633 13.88996315002441 4.727221488952637 17.61718368530273 9.308590888977051 17.61718368530273 C 10.55621147155762 17.61718368530273 11.83982086181641 17.13918304443359 12.92294120788574 16.2712345123291 C 13.91737174987793 15.47436332702637 14.61413097381592 14.4241943359375 14.78679084777832 13.46203422546387 C 14.89203071594238 12.875563621521 14.80227088928223 12.34968376159668 14.52002143859863 11.89901351928711 C 14.1764612197876 11.3504638671875 13.55284118652344 10.90566444396973 12.66647148132324 10.5769739151001 C 10.93607139587402 9.935274124145508 9.918041229248047 8.80290412902832 9.640681266784668 7.211323738098145 C 9.41947078704834 5.941973686218262 9.709860801696777 4.609753608703613 9.966071128845215 3.434353828430176 C 10.09833145141602 2.827563285827637 10.2232608795166 2.254413604736328 10.25106143951416 1.800533294677734 C 10.27858066558838 1.351222991943359 10.19832134246826 1.213993072509766 10.17306137084961 1.182643890380859 C 10.10520076751709 1.098394393920898 9.838070869445801 1.000003814697266 9.308590888977051 1.000003814697266 M 9.308590888977051 3.814697265625e-06 C 14.4495906829834 3.814697265625e-06 7.089851379394531 7.442413330078125 13.0141716003418 9.639363288879395 C 18.93848037719727 11.83631324768066 14.4495906829834 18.61718368530273 9.308590888977051 18.61718368530273 C 4.167601585388184 18.61718368530273 1.9073486328125e-06 14.44958305358887 1.9073486328125e-06 9.30859375 C 1.9073486328125e-06 4.167593955993652 4.167601585388184 3.814697265625e-06 9.308590888977051 3.814697265625e-06 Z"/></g><g class="k" transform="translate(394 7097)"><circle class="p" cx="16.5" cy="16.5" r="16.5"/><circle class="q" cx="16.5" cy="16.5" r="11.5"/></g><circle class="l" cx="16.5" cy="16.5" r="16.5" transform="translate(1792 7152)"/><g class="m" transform="translate(458 6542)"><circle class="p" cx="16.5" cy="16.5" r="16.5"/><circle class="q" cx="16.5" cy="16.5" r="11.5"/></g><path class="n" d="M1613,6721.647l11.412,18.809,16.563-23.05Z" transform="translate(68 -185)"/><path class="o" d="M1613,6721.647l11.412,18.809,16.563-23.05Z" transform="translate(-1402 462)"/></g></svg>