<svg xmlns="http://www.w3.org/2000/svg" width="68.395" height="68.395" viewBox="0 0 68.395 68.395"><defs><style>.a{fill:#a9b1c6;opacity:0.129;}.a,.d{fill-rule:evenodd;}.b{fill:#1522ed;stroke:#135af7;}.b,.e{stroke-width:0.5px;}.c,.d{fill:#00d280;}.e{fill:#135af7;stroke:#1522ed;}</style></defs><path class="a" d="M114.2,64A34.2,34.2,0,1,1,80,98.2,34.2,34.2,0,0,1,114.2,64Z" transform="translate(-80 -64)"/><g transform="translate(15.1 15.1)"><path class="b" d="M18.032,28.089a5.706,5.706,0,0,1-3,1.468,19.134,19.134,0,0,1-3.395.315c.322-.413.056-.72-.161-1.1,3.239-.071,5.1-.448,6.148-1.913a2.776,2.776,0,0,0,.236.951A1.132,1.132,0,0,0,18.032,28.089Zm1.958-6.577a.9.9,0,0,0-.486-.1s-.463-.2-.618.045l-.01.015c.057-1.115.076-2.4.076-3.874,0-10.229-4.89-16.5-8.919-16.5S1.115,7.375,1.115,17.6c0,1.42.018,2.661.069,3.745a1.634,1.634,0,0,0-.58-.479.662.662,0,0,0-.556-.021C.014,19.9,0,18.823,0,17.6A24.592,24.592,0,0,1,3.107,4.951C4.983,1.856,7.526,0,10.034,0s5.051,1.856,6.927,4.951A24.592,24.592,0,0,1,20.067,17.6C20.067,19.116,20.045,20.4,19.99,21.512ZM8.627,29.877a19.82,19.82,0,0,1-3.591-.32A5.569,5.569,0,0,1,1.87,27.915a3.928,3.928,0,0,0,.291-.3,1.064,1.064,0,0,0,.3-.732C3.5,28.314,5.326,28.7,8.478,28.773a.886.886,0,0,0,.062.673A1.373,1.373,0,0,0,8.627,29.877Z" transform="translate(0 14.19) rotate(-45)"/><ellipse class="c" cx="2.806" cy="2.773" rx="2.806" ry="2.773" transform="translate(11.34 15.44) rotate(-45)"/><path class="c" d="M3.53,6.968A3.507,3.507,0,0,1,0,3.484,3.507,3.507,0,0,1,3.53,0a3.507,3.507,0,0,1,3.53,3.484A3.507,3.507,0,0,1,3.53,6.968Zm0-1.1A2.384,2.384,0,1,0,1.115,3.484,2.4,2.4,0,0,0,3.53,5.868Z" transform="translate(10.62 15.649) rotate(-45)"/><path class="d" d="M0,.255A.257.257,0,0,1,.26,0,.257.257,0,0,1,.52.255V1.968a.257.257,0,0,1-.26.255A.257.257,0,0,1,0,1.968Zm3.812,0a.26.26,0,0,1,.52,0V1.968a.26.26,0,0,1-.52,0ZM1.906.685a.26.26,0,0,1,.52,0V3.248a.26.26,0,0,1-.52,0Z" transform="translate(18.138 21.2) rotate(-45)"/><rect class="b" width="1.115" height="4.401" rx="0.557" transform="translate(4.367 5.155) rotate(-45)"/><path class="e" d="M2.044,10.269h0A1.635,1.635,0,0,1,.668,9.5,3.253,3.253,0,0,1,.219,8.342,15.338,15.338,0,0,1,0,5.318,18.233,18.233,0,0,1,.214,2.136,4,4,0,0,1,.622.9,1.607,1.607,0,0,1,2.044,0,1.606,1.606,0,0,1,3.465.9a4,4,0,0,1,.409,1.241,18.232,18.232,0,0,1,.214,3.182,15.337,15.337,0,0,1-.219,3.024A3.253,3.253,0,0,1,3.42,9.5a1.635,1.635,0,0,1-1.376.765Zm0-1.1c.718,0,.929-1.522.929-3.851S2.762,1.1,2.044,1.1s-.929,1.888-.929,4.217.211,3.851.929,3.851Z" transform="translate(21.858 24.748) rotate(-45)"/><path class="e" d="M4.481,9.24h0c-1.159,1.065-1.876,1.525-2.77,1.411A1.779,1.779,0,0,1,.261,9.383,6.038,6.038,0,0,1,0,7.37,11.439,11.439,0,0,1,1.139,2.63C1.89,1.044,2.718,0,3.722,0A2.064,2.064,0,0,1,5.665,1.358a8.871,8.871,0,0,1,.473,3.41c0,.352.011,1.462.008,1.673a3.225,3.225,0,0,1-.164,1.165,2.208,2.208,0,0,1-.675.918s-.59.5-.825.717Zm-.759-.805c1.5-1.382,1.3-.629,1.3-3.667S4.44,1.1,3.722,1.1,1.115,4.332,1.115,7.37s1.1,2.447,2.607,1.065Z" transform="translate(11.894 30.822) rotate(-45)"/><path class="e" d="M1.665,9.24h0C1.43,9.025.838,8.522.84,8.523a2.209,2.209,0,0,1-.675-.918A3.228,3.228,0,0,1,0,6.441C0,6.23.009,5.12.009,4.768a8.872,8.872,0,0,1,.473-3.41A2.064,2.064,0,0,1,2.424,0c1,0,1.832,1.044,2.583,2.63A11.438,11.438,0,0,1,6.146,7.37a6.041,6.041,0,0,1-.261,2.013,1.779,1.779,0,0,1-1.45,1.268c-.894.114-1.611-.346-2.77-1.411Zm.759-.805h0c1.5,1.382,2.607,1.973,2.607-1.065S3.143,1.1,2.424,1.1s-1.3.629-1.3,3.667-.2,2.285,1.3,3.667Z" transform="translate(26.898 16.734) rotate(-45)"/></g></svg>